<svg xmlns="http://www.w3.org/2000/svg" xmlns:xlink="http://www.w3.org/1999/xlink" version="1.1" width="1000" height="1000" viewBox="0 0 1000 1000" xml:space="preserve">
<desc>Created with Fabric.js 3.5.0</desc>
<defs>
</defs>
<rect x="0" y="0" width="100%" height="100%" fill="#ffffff"/>
<g transform="matrix(0.08 0 0 0.08 500 500)" id="216545">
<g style="" vector-effect="non-scaling-stroke">
		<g transform="matrix(1 0 0 1 9.0406 -4.9832)">
<path style="stroke: none; stroke-width: 1; stroke-dasharray: none; stroke-linecap: butt; stroke-dashoffset: 0; stroke-linejoin: miter; stroke-miterlimit: 4; is-custom-font: none; font-file-url: none; fill: rgb(149,217,123); fill-rule: evenodd; opacity: 1;" transform=" translate(-209.0406, -195.0167)" d="M 178.8 13.27 c -13.72 1.88 -26.04 4.45 -34 7.1 c -1.21 0.4 -3.01 0.96 -4 1.25 c -0.99 0.29 -1.98 0.64 -2.2 0.78 c -0.22 0.14 -1.21 0.5 -2.2 0.8 c -0.99 0.3 -1.98 0.65 -2.2 0.79 c -0.22 0.13 -1.12 0.47 -2 0.75 c -0.88 0.29 -2.41 0.89 -3.4 1.34 c -0.99 0.45 -2.16 0.96 -2.6 1.13 c -2.76 1.06 -12.66 5.93 -17.35 8.53 a 49.3 49.3 0 0 1 -3.53 1.86 c -0.1 0 -0.96 0.54 -1.92 1.2 a 8.32 8.32 0 0 1 -2.17 1.2 c -0.24 0 -0.43 0.18 -0.43 0.4 a 0.4 0.4 0 0 1 -0.41 0.4 c -1.14 0 -14.28 9.53 -21.79 15.8 a 245.52 245.52 0 0 0 -19.78 19.32 c -3.6 4.15 -6.26 5.1 -9.62 3.42 c -1.55 -0.77 -2.16 -0.52 -3.53 1.5 c -0.5 0.75 -1.36 1.85 -1.9 2.46 c -0.53 0.6 -0.97 1.33 -0.97 1.6 c 0 0.3 -0.36 0.78 -0.8 1.1 c -0.44 0.32 -0.8 0.9 -0.8 1.31 c 0 0.4 -0.18 0.63 -0.4 0.49 c -0.58 -0.36 -0.49 0.85 0.11 1.47 c 1.57 1.62 2.29 3.15 2.29 4.88 c 0 1.92 -0.19 2.33 -3.55 7.78 a 47.77 47.77 0 0 0 -2.05 3.5 c 0 0.1 -0.42 0.86 -0.94 1.68 c -3.51 5.61 -4.3 7.66 -3.88 10.03 c 0.23 1.24 0.79 4.96 1.24 8.26 c 0.46 3.3 1.01 7.17 1.23 8.6 c 0.22 1.43 0.56 3.86 0.76 5.4 c 0.2 1.54 0.56 4.06 0.8 5.6 l 0.84 5.8 a 871.2 871.2 0 0 0 1.53 10.8 c 0.25 1.65 0.63 4.35 0.86 6 c 0.23 1.65 0.57 3.99 0.76 5.2 l 0.62 4.08 l 0.28 1.89 l 1.72 -1.19 a 8.16 8.16 0 0 1 2.15 -1.18 c 0.24 0 0.43 -0.15 0.43 -0.33 c 0 -0.19 0.5 -0.59 1.1 -0.9 c 0.6 -0.3 2.9 -1.74 5.1 -3.19 c 9.91 -6.53 11.45 -7.18 16.97 -7.18 c 5.68 0 8.24 1 13.56 5.33 c 3.58 2.9 3.8 2.79 4.95 -2.4 c 0.75 -3.4 1.17 -5.28 1.97 -8.73 c 0.2 -0.88 0.48 -2.28 0.61 -3.11 c 0.14 -0.83 0.4 -1.6 0.6 -1.72 c 0.18 -0.12 0.34 -0.57 0.34 -1 c 0 -0.43 0.16 -1.1 0.36 -1.47 c 0.2 -0.39 0.77 -1.6 1.28 -2.7 c 4.18 -8.98 9.9 -13.37 23.16 -17.77 a 142.1 142.1 0 0 0 8.1 -2.84 c 0.38 -0.21 1.04 -0.39 1.47 -0.39 c 0.43 0 0.9 -0.18 1.03 -0.4 c 0.14 -0.22 0.68 -0.4 1.2 -0.4 c 0.52 0 1.06 -0.18 1.2 -0.4 c 0.14 -0.22 0.68 -0.4 1.2 -0.4 c 0.52 0 1.06 -0.18 1.2 -0.4 c 0.14 -0.22 0.68 -0.4 1.2 -0.4 c 0.52 0 1.06 -0.18 1.2 -0.4 c 0.14 -0.22 0.6 -0.4 1.03 -0.4 c 0.43 0 1.1 -0.16 1.47 -0.37 c 0.39 -0.2 1.37 -0.65 2.2 -1.01 c 2.34 -1.02 3.5 -2.86 3.5 -5.55 c 0 -2.66 0 -2.66 -6.99 -13.47 l -3.8 -5.9 c -3.79 -5.88 -6.82 -7.57 -10.32 -5.73 c -0.38 0.2 -2.04 0.99 -3.69 1.75 l -5.6 2.6 c -13.52 6.3 -27.2 -1.68 -27.2 -15.83 c 0 -7.5 3.5 -12.91 10.87 -16.83 c 1.17 -0.63 2.85 -1.55 3.73 -2.06 c 1.8 -1.04 4.12 -2.3 8.8 -4.8 a 73.12 73.12 0 0 0 3.6 -2 c 0.22 -0.16 1.84 -1.06 3.6 -2 l 4.8 -2.58 c 10.33 -5.59 24.52 -2.26 31.4 7.38 c 3.54 4.95 4.25 5.8 5.9 7.06 c 2.92 2.22 5.16 2.62 14.06 2.47 c 10.02 -0.17 13.41 -1.62 15.93 -6.82 a 60.03 60.03 0 0 0 2.51 -5.71 c 0 -0.12 0.38 -1.06 0.84 -2.1 c 0.46 -1.05 1 -2.3 1.2 -2.8 l 0.72 -1.8 c 0.2 -0.5 0.74 -1.75 1.2 -2.8 c 0.46 -1.04 0.84 -2.15 0.84 -2.47 c 0 -0.32 0.16 -0.68 0.36 -0.8 c 0.84 -0.52 1.31 -7.81 0.67 -10.43 a 22.9 22.9 0 0 0 -3.12 -6.87 a 7.95 7.95 0 0 1 -1.11 -2.1 c 0 -0.24 -0.15 -0.43 -0.33 -0.43 c -0.19 0 -0.59 -0.5 -0.9 -1.1 c -0.31 -0.6 -1.7 -2.86 -3.1 -5 c -2.86 -4.4 -2.4 -4.21 -8.07 -3.43 m 85.4 11.39 l -2.2 1.9 l -6.5 5.57 c -6.53 5.59 -6.9 6.08 -6.9 9.08 c 0 4.3 4.68 7.78 8.1 6.04 c 0.39 -0.2 1.15 -0.53 1.7 -0.75 l 4 -1.6 c 12.68 -5.2 26.85 8.14 23.18 21.85 c -1.16 4.33 -7.3 11.65 -9.78 11.65 c -0.14 0 -1.04 0.54 -2 1.2 a 14.6 14.6 0 0 1 -1.92 1.2 c -0.1 0 -2.73 1.53 -5.86 3.4 c -3.12 1.87 -5.77 3.4 -5.88 3.4 c -0.1 0 -0.98 0.54 -1.94 1.2 c -0.96 0.66 -1.86 1.2 -2 1.2 c -0.14 0 -1.04 0.54 -2 1.2 c -0.96 0.66 -1.83 1.2 -1.94 1.2 c -0.11 0 -1.63 0.88 -3.38 1.95 a 75.35 75.35 0 0 1 -3.54 2.1 c -1 0.4 -9.2 5.52 -10.85 6.76 c -7.66 5.78 -9.72 21.18 -3.7 27.73 c 7.2 7.86 19.52 3.48 21.21 -7.54 c 0.86 -5.56 4.21 -10.43 8.67 -12.59 l 2.63 -1.27 c 1.78 -0.87 54.7 -0.39 57.27 0.52 c 12.78 4.5 17.1 20.87 8.1 30.63 c -7.13 7.74 -19.37 8.77 -20.33 1.71 l -0.14 -1 l -6.3 -0.11 c -5.62 -0.1 -6.3 -0.04 -6.3 0.55 c 0 1.16 -1.6 3.54 -3.01 4.46 c -1.37 0.9 -1.44 0.9 -18.08 0.9 c -18 0.02 -21.12 0.27 -26.2 2.11 c -9.33 3.4 -16.88 11.43 -19.46 20.69 c -0.28 0.99 -0.67 2.35 -0.88 3.03 c -0.5 1.68 -0.47 10.3 0.06 12.32 c 1.08 4.13 1.4 5.04 2.83 7.92 c 2.18 4.4 5.32 8.21 9.14 11.08 c 0.77 0.57 1.49 1.14 1.6 1.25 c 0.29 0.29 1.95 1.22 3.8 2.12 l 2.3 1.13 c 0.38 0.2 0.96 0.35 1.3 0.35 c 0.34 0 0.92 0.16 1.3 0.35 c 1.7 0.87 4.95 1.25 10.56 1.25 c 3.33 0 6.79 0.2 7.7 0.43 l 3.24 0.87 c 6.26 1.69 14.22 8.64 15.61 13.64 c 0.27 0.97 0.64 1.92 1.44 3.66 c 0.44 0.98 0.58 8.19 0.75 39 c 0.17 32.64 0.28 37.94 0.8 38.8 c 0.95 1.59 4.04 4.4 4.83 4.4 c 0.4 0 0.83 0.18 0.97 0.4 c 0.32 0.52 4.48 0.52 4.8 0 c 0.14 -0.22 0.6 -0.4 1.03 -0.4 c 0.92 0 3.95 -2.9 4.84 -4.62 c 1.5 -2.9 2.55 -4.8 2.73 -4.98 c 0.11 -0.11 0.47 -0.74 0.8 -1.4 c 0.33 -0.66 0.69 -1.29 0.8 -1.4 c 0.11 -0.11 0.59 -0.92 1.06 -1.8 c 0.9 -1.68 1.42 -2.61 4.03 -7.2 a 757.61 757.61 0 0 0 4.42 -7.84 l 1.35 -2.4 c 0.3 -0.53 0.63 -1.05 0.74 -1.16 c 0.11 -0.11 0.57 -0.92 1.03 -1.8 a 30.19 30.19 0 0 1 2.17 -3.8 c 0.11 -0.11 0.58 -0.92 1.04 -1.8 c 0.95 -1.82 2.06 -3.8 5.47 -9.8 l 3.4 -6 c 0.55 -0.99 1.6 -2.84 2.34 -4.12 c 0.74 -1.28 1.35 -2.5 1.35 -2.7 c 0 -0.21 0.13 -0.38 0.3 -0.38 c 0.17 0 0.49 -0.41 0.72 -0.9 a 49.52 49.52 0 0 1 2.58 -4.7 c 0.11 -0.11 0.58 -0.92 1.04 -1.8 c 0.46 -0.88 1.25 -2.32 1.75 -3.2 l 1.94 -3.4 c 0.55 -0.99 1.83 -3.24 2.84 -5 a 96.57 96.57 0 0 0 4.07 -7.9 c 0.2 -0.38 0.36 -1.1 0.36 -1.62 c 0 -0.5 0.19 -1.11 0.42 -1.34 c 0.82 -0.82 0.03 -13.41 -0.86 -13.97 c -0.2 -0.12 -0.36 -0.65 -0.36 -1.17 a 6.2 6.2 0 0 0 -0.36 -1.88 c -0.2 -0.5 -0.58 -1.73 -0.85 -2.72 c -0.27 -0.99 -0.66 -2.34 -0.85 -3 c -3.8 -12.92 -3.92 -15.6 -0.8 -17.74 c 1.41 -0.96 4.35 -1.78 4.97 -1.38 c 1.91 1.24 19.89 1.3 19.89 0.08 c 0 -0.2 0.28 -0.36 0.62 -0.36 c 0.74 0 4.5 -2.56 6.88 -4.69 c 1.64 -1.47 1.68 -1.56 1.32 -3.11 c -0.2 -0.88 -0.65 -3.04 -1 -4.8 c -1.01 -5.28 -3.01 -14.06 -3.5 -15.4 c -0.12 -0.33 -0.62 -1.95 -1.11 -3.6 a 37.05 37.05 0 0 0 -1.25 -3.7 a 3.83 3.83 0 0 1 -0.36 -1.47 c 0 -0.43 -0.18 -0.9 -0.4 -1.03 c -0.22 -0.14 -0.4 -0.6 -0.4 -1.03 c 0 -0.43 -0.16 -1.1 -0.35 -1.47 c -0.2 -0.39 -0.58 -1.24 -0.85 -1.9 c -0.27 -0.66 -0.65 -1.51 -0.85 -1.9 c -0.2 -0.38 -0.35 -0.95 -0.35 -1.26 c 0 -0.3 -0.39 -1.35 -0.86 -2.3 c -0.47 -0.96 -0.99 -2.1 -1.16 -2.54 c -0.26 -0.7 -1.57 -3.53 -4.52 -9.8 a 162.5 162.5 0 0 0 -3.35 -6.35 c -1.38 -2.5 -2.51 -4.7 -2.51 -4.87 a 0.54 0.54 0 0 0 -0.3 -0.45 c -0.38 -0.16 -1.68 -2.3 -1.97 -3.23 c -0.12 -0.39 -0.38 -0.7 -0.58 -0.7 c -0.2 0 -0.35 -0.27 -0.35 -0.6 c 0 -0.33 -0.18 -0.6 -0.4 -0.6 c -0.22 0 -0.4 -0.2 -0.4 -0.43 c 0 -0.37 -3.17 -5.23 -4.67 -7.17 c -0.26 -0.33 -1.73 -2.31 -3.28 -4.4 a 343.08 343.08 0 0 0 -3.13 -4.2 c -2.12 -2.61 -4 -4.88 -4.32 -5.23 l -2.86 -3.2 c -3.67 -4.13 -12.8 -13.27 -15.75 -15.76 a 64.94 64.94 0 0 1 -2.79 -2.44 c -0.37 -0.47 -10.08 -7.99 -11.95 -9.26 A 19.95 19.95 0 0 1 307.6 46 c -0.4 -0.52 -7.58 -5.19 -7.99 -5.19 c -0.22 0 -0.41 -0.13 -0.41 -0.3 c 0 -0.16 -0.41 -0.5 -0.9 -0.74 c -0.5 -0.25 -2.43 -1.39 -4.3 -2.53 c -3.73 -2.29 -18.03 -9.4 -21.9 -10.88 l -2 -0.8 l -2.1 -0.85 c -0.55 -0.22 -1.31 -0.55 -1.7 -0.75 c -0.87 -0.44 -0.7 -0.5 -2.1 0.7 M 66.47 231.1 c -1.16 3.25 -2.29 6.3 -2.5 6.8 a 61.06 61.06 0 0 0 -1.57 4.1 a 34.67 34.67 0 0 1 -1.65 4.1 c -0.2 0.38 -0.35 0.96 -0.35 1.3 c 0 0.34 -0.16 0.92 -0.35 1.3 c -1.52 3 -1.54 7.87 -0.05 11.9 c 1.7 4.6 3.44 6.67 9.96 11.9 c 2.77 2.24 5.13 4.16 5.24 4.28 c 0.11 0.12 1.01 0.84 2 1.6 c 5.41 4.17 8.58 8.77 13.5 19.62 c 0.99 2.2 1.9 4.17 4.71 10.2 l 4.69 10.2 a 1751.43 1751.43 0 0 0 7.19 15.6 c 1.87 4.06 2.9 6.26 5.08 10.92 c 1.12 2.38 2.03 4.4 2.03 4.47 c 0 0.08 1.9 4.17 4.22 9.08 a 1953.85 1953.85 0 0 1 6.12 13.06 c 0.27 0.54 1.4 1.22 3.46 2.07 c 0.66 0.27 1.51 0.65 1.9 0.85 c 0.38 0.2 0.96 0.35 1.3 0.35 c 0.33 0 0.6 0.18 0.6 0.4 c 0 0.22 0.36 0.4 0.8 0.4 c 0.45 0 1.17 0.18 1.6 0.4 l 1.6 0.8 c 0.43 0.22 0.88 0.4 1 0.4 c 0.32 0 0.23 -1.64 -0.17 -2.97 c -0.8 -2.63 -1.91 -7.33 -4.02 -17.03 c -0.46 -2.09 -1 -4.43 -1.2 -5.2 c -0.2 -0.77 -0.56 -2.3 -0.81 -3.4 s -0.6 -2.63 -0.79 -3.4 c -1.1 -4.53 -1.26 -6.13 -1.25 -12.25 c 0 -4.84 0.18 -7.54 0.66 -9.55 c 0.36 -1.54 0.75 -3.34 0.87 -4 c 0.11 -0.66 0.34 -1.38 0.49 -1.6 c 0.15 -0.22 0.52 -1.21 0.82 -2.2 c 0.6 -1.98 5.78 -12.29 18.5 -36.8 c 4 -7.74 4.62 -9.9 3.78 -13.51 c -1.26 -5.49 -3.7 -7.84 -10.88 -10.48 a 308.91 308.91 0 0 0 -8.6 -3.22 c -10.94 -3.99 -16 -9.92 -16 -18.76 c 0 -2.86 -0.49 -4.14 -2.26 -5.9 l -1.72 -1.73 H 68.6 l -2.13 5.9" stroke-linecap="round"/>
</g>
		<g transform="matrix(1 0 0 1 -0.0238 -0.0245)">
<path style="stroke: none; stroke-width: 1; stroke-dasharray: none; stroke-linecap: butt; stroke-dashoffset: 0; stroke-linejoin: miter; stroke-miterlimit: 4; is-custom-font: none; font-file-url: none; fill: rgb(4,5,5); fill-rule: evenodd; opacity: 1;" transform=" translate(-199.9762, -199.9755)" d="M 178.5 0.28 c -2.03 0.08 -3.7 0.32 -3.7 0.53 c 0 0.22 -1.26 0.39 -2.8 0.39 c -1.6 0 -2.8 0.17 -2.8 0.4 c 0 0.22 -1.07 0.4 -2.4 0.4 c -1.33 0 -2.4 0.18 -2.4 0.4 c 0 0.22 -0.89 0.4 -1.98 0.4 c -1.08 0 -2.08 0.18 -2.22 0.4 c -0.14 0.22 -0.96 0.4 -1.82 0.4 c -0.87 0 -1.58 0.18 -1.58 0.4 c 0 0.22 -0.8 0.4 -1.78 0.4 c -0.97 0 -1.88 0.18 -2.02 0.4 c -0.14 0.22 -0.86 0.4 -1.6 0.4 c -0.74 0 -1.46 0.18 -1.6 0.4 c -0.14 0.22 -0.77 0.4 -1.4 0.4 c -0.63 0 -1.26 0.18 -1.4 0.4 c -0.14 0.22 -0.77 0.4 -1.4 0.4 c -0.63 0 -1.26 0.18 -1.4 0.4 c -0.14 0.22 -0.77 0.4 -1.4 0.4 c -0.63 0 -1.26 0.18 -1.4 0.4 c -0.14 0.22 -0.78 0.4 -1.42 0.4 c -0.65 0 -1.18 0.18 -1.18 0.4 c 0 0.22 -0.54 0.4 -1.2 0.4 c -0.66 0 -1.2 0.16 -1.2 0.35 c 0 0.19 -0.8 0.45 -1.8 0.59 c -0.98 0.13 -2.15 0.43 -2.6 0.65 l -1.6 0.81 c -0.43 0.22 -1.03 0.4 -1.32 0.4 c -0.3 0 -1.28 0.36 -2.19 0.8 c -0.9 0.44 -1.93 0.8 -2.27 0.8 c -0.34 0 -0.62 0.18 -0.62 0.4 c 0 0.22 -0.35 0.4 -0.78 0.4 c -0.42 0 -0.88 0.18 -1.02 0.4 c -0.14 0.22 -0.69 0.4 -1.22 0.4 c -0.54 0 -0.98 0.18 -0.98 0.4 c 0 0.22 -0.36 0.4 -0.8 0.4 c -0.44 0 -0.8 0.18 -0.8 0.4 c 0 0.22 -0.36 0.4 -0.8 0.4 c -0.44 0 -0.8 0.18 -0.8 0.4 c 0 0.22 -0.35 0.4 -0.78 0.4 c -0.42 0 -0.88 0.18 -1.02 0.4 c -0.14 0.22 -0.6 0.4 -1.02 0.4 c -0.43 0 -0.78 0.18 -0.78 0.4 c 0 0.22 -0.36 0.4 -0.8 0.4 c -0.44 0 -0.8 0.18 -0.8 0.4 c 0 0.22 -0.36 0.4 -0.8 0.4 c -0.44 0 -0.8 0.18 -0.8 0.4 c 0 0.22 -0.36 0.4 -0.8 0.4 c -0.44 0 -0.8 0.18 -0.8 0.4 c 0 0.22 -0.36 0.4 -0.8 0.4 c -0.44 0 -0.8 0.18 -0.8 0.4 c 0 0.22 -0.24 0.4 -0.52 0.4 c -0.3 0 -0.92 0.36 -1.39 0.8 c -0.47 0.44 -1.13 0.8 -1.47 0.8 c -0.34 0 -0.62 0.18 -0.62 0.4 c 0 0.22 -0.36 0.4 -0.8 0.4 c -0.44 0 -0.8 0.18 -0.8 0.4 c 0 0.22 -0.36 0.4 -0.8 0.4 c -0.44 0 -0.8 0.18 -0.8 0.4 c 0 0.22 -0.27 0.4 -0.6 0.4 c -0.33 0 -0.6 0.17 -0.6 0.37 c 0 0.2 -0.54 0.48 -1.2 0.63 c -0.66 0.15 -1.2 0.4 -1.2 0.58 c 0 0.18 -0.54 0.55 -1.2 0.82 c -0.66 0.27 -1.2 0.65 -1.2 0.85 c 0 0.2 -0.32 0.35 -0.71 0.35 c -0.4 0 -0.97 0.36 -1.29 0.8 c -0.32 0.44 -0.86 0.8 -1.2 0.8 c -0.34 0 -0.88 0.36 -1.2 0.8 c -0.32 0.44 -0.83 0.8 -1.14 0.8 c -0.31 0 -0.86 0.32 -1.21 0.7 a 7.5 7.5 0 0 1 -1.75 1.27 c -0.6 0.31 -1.1 0.71 -1.1 0.9 c 0 0.18 -0.24 0.33 -0.54 0.33 c -0.3 0 -1.1 0.54 -1.8 1.2 a 5.4 5.4 0 0 1 -1.6 1.2 c -0.19 0 -0.9 0.54 -1.6 1.2 c -0.69 0.66 -1.36 1.2 -1.5 1.2 c -0.13 0 -0.72 0.51 -1.3 1.14 a 10.2 10.2 0 0 1 -2.28 1.77 c -0.67 0.34 -1.94 1.32 -2.82 2.16 c -0.89 0.84 -2.4 2.16 -3.39 2.92 c -0.97 0.77 -2.94 2.61 -4.37 4.1 c -3 3.14 -5.6 5.74 -9.74 9.75 a 50.78 50.78 0 0 0 -4.1 4.4 a 20.5 20.5 0 0 1 -1.86 2.2 c -0.38 0.36 -0.7 0.94 -0.7 1.28 c 0 0.35 -0.18 0.74 -0.4 0.88 c -0.91 0.56 -0.1 5.79 0.9 5.8 c 0.16 0 0.3 0.25 0.3 0.56 c 0 0.36 0.28 0.5 0.75 0.37 c 0.42 -0.11 1.3 0.09 1.98 0.44 c 3 1.55 4.83 0.71 9.28 -4.25 C 68.08 64.84 89.31 46 91.57 46 c 0.2 0 0.42 -0.15 0.5 -0.33 c 0.48 -1.18 17.26 -11.15 25.13 -14.94 a 187.32 187.32 0 0 1 42.2 -14.72 l 3.4 -0.75 c 2.08 -0.47 5.4 -1.04 9.4 -1.61 l 5.45 -0.83 c 1.45 -0.23 3.65 -0.42 4.88 -0.42 h 2.23 l 2.32 3.65 l 4.28 6.7 c 6.35 9.9 6.62 14.44 1.57 26.05 c -0.34 0.77 -0.75 1.76 -0.93 2.2 l -0.93 2.2 c -0.33 0.77 -1 2.38 -1.46 3.57 C 185.59 67 183.6 68.2 170.6 68.2 c -12.06 0 -13.71 -0.64 -18.03 -7.07 c -7.98 -11.85 -21.58 -15.7 -33.06 -9.38 a 2468.66 2468.66 0 0 1 -12.61 6.9 l -3.4 1.88 l -6.63 3.65 c -8.14 4.48 -11.26 8.51 -11.91 15.42 c -1.21 12.8 11.2 22.6 23.24 18.33 c 1.35 -0.48 3.38 -1.4 9.2 -4.18 c 7.69 -3.67 9.48 -3.02 14.82 5.34 c 1.93 3.03 4.68 7.31 6.1 9.51 c 4.19 6.45 4.23 6.55 4.26 9.23 c 0.04 4.99 -0.08 5.06 -18.9 11.33 c -17.76 5.92 -19.33 6.66 -24.17 11.4 a 31.6 31.6 0 0 0 -7.5 11.64 c -0.38 0.94 -1 3.28 -1.56 5.8 c -1.08 4.88 -1.64 7.3 -2.42 10.25 c -0.24 0.9 -0.43 2 -0.43 2.43 c 0 2.35 -2.1 2.6 -4.41 0.5 c -8.97 -8.09 -16.48 -8.08 -28.93 0.06 c -11.24 7.33 -12.3 7.98 -12.65 7.77 c -0.54 -0.34 -0.87 -2.24 -3 -17.61 l -1.21 -8.6 l -1.19 -8.4 c -0.54 -3.85 -1.16 -8.08 -1.37 -9.4 c -0.21 -1.32 -0.6 -3.84 -0.84 -5.6 c -0.24 -1.76 -0.6 -4.28 -0.8 -5.6 l -0.85 -5.7 l -0.5 -3.28 l 1.22 -2.31 c 2.03 -3.89 3.8 -7 5.2 -9.22 a 20.45 20.45 0 0 0 1.33 -2.28 c 0 -0.1 0.72 -1.3 1.6 -2.66 c 2.13 -3.3 2.06 -6.48 -0.2 -8.36 c -0.33 -0.27 -0.6 -0.83 -0.6 -1.24 c 0 -0.67 -0.34 -0.75 -3.2 -0.75 c -1.76 0 -3.2 0.14 -3.2 0.3 c 0 0.17 -0.54 0.54 -1.2 0.84 c -0.73 0.32 -1.2 0.83 -1.2 1.3 c 0 0.42 -0.15 0.76 -0.33 0.76 c -0.18 0 -0.59 0.5 -0.9 1.1 c -0.31 0.6 -0.66 1.19 -0.77 1.3 c -0.73 0.72 -2 2.89 -2.23 3.76 c -0.14 0.57 -0.42 1.04 -0.61 1.04 c -0.2 0 -0.36 0.27 -0.36 0.6 c 0 0.33 -0.18 0.6 -0.4 0.6 c -0.22 0 -0.4 0.36 -0.4 0.8 c 0 0.44 -0.18 0.8 -0.4 0.8 c -0.22 0 -0.4 0.34 -0.4 0.77 c 0 0.42 -0.14 0.82 -0.3 0.9 c -0.38 0.16 -1.68 2.3 -1.97 3.23 c -0.12 0.39 -0.38 0.7 -0.58 0.7 c -0.2 0 -0.35 0.36 -0.35 0.8 c 0 0.44 -0.18 0.8 -0.4 0.8 c -0.22 0 -0.4 0.36 -0.4 0.8 c 0 0.44 -0.18 0.8 -0.4 0.8 c -0.22 0 -0.4 0.36 -0.4 0.8 c 0 0.44 -0.14 0.8 -0.3 0.8 c -0.36 0 -1.3 1.94 -1.3 2.68 c 0 0.29 -0.18 0.52 -0.4 0.52 c -0.22 0 -0.4 0.35 -0.4 0.78 c 0 0.42 -0.18 0.88 -0.4 1.02 c -0.22 0.14 -0.4 0.6 -0.4 1.02 c 0 0.43 -0.18 0.78 -0.4 0.78 c -0.22 0 -0.4 0.36 -0.4 0.8 c 0 0.44 -0.18 0.8 -0.4 0.8 c -0.22 0 -0.4 0.35 -0.4 0.78 c 0 0.42 -0.18 0.88 -0.4 1.02 c -0.22 0.14 -0.4 0.69 -0.4 1.22 c 0 0.54 -0.18 0.98 -0.4 0.98 c -0.22 0 -0.4 0.27 -0.4 0.6 c 0 0.34 -0.16 0.92 -0.35 1.3 a 29.05 29.05 0 0 0 -1.7 4.3 c -0.29 0.88 -0.66 1.8 -0.83 2.04 a 8.05 8.05 0 0 0 -0.57 2.3 c -0.14 1.02 -0.41 1.86 -0.6 1.86 c -0.2 0 -0.35 0.54 -0.35 1.2 c 0 0.66 -0.18 1.2 -0.4 1.2 c -0.22 0 -0.4 0.54 -0.4 1.2 c 0 0.66 -0.18 1.2 -0.4 1.2 c -0.22 0 -0.4 0.62 -0.4 1.38 c 0 0.75 -0.18 1.48 -0.4 1.62 c -0.22 0.14 -0.4 0.78 -0.4 1.42 c 0 0.65 -0.18 1.18 -0.4 1.18 c -0.22 0 -0.4 0.63 -0.4 1.4 c 0 0.77 -0.18 1.4 -0.4 1.4 c -0.22 0 -0.4 0.72 -0.4 1.6 c 0 0.88 -0.18 1.6 -0.4 1.6 c -0.22 0 -0.4 0.8 -0.4 1.78 c 0 0.97 -0.18 1.88 -0.4 2.02 c -0.22 0.14 -0.4 0.95 -0.4 1.8 c 0 0.85 -0.18 1.66 -0.4 1.8 c -0.22 0.14 -0.4 1.14 -0.4 2.22 c 0 1.1 -0.18 1.98 -0.4 1.98 c -0.22 0 -0.4 1.07 -0.4 2.4 c 0 1.33 -0.18 2.4 -0.4 2.4 c -0.23 0 -0.4 1.19 -0.4 2.77 c 0 1.85 -0.16 2.82 -0.5 2.93 c -0.73 0.24 -0.73 49.96 0 50.2 c 0.33 0.11 0.5 1.07 0.5 2.91 c 0 1.5 0.18 2.85 0.4 2.99 c 0.22 0.14 0.4 1.22 0.4 2.4 s 0.18 2.26 0.4 2.4 c 0.22 0.14 0.4 1.14 0.4 2.22 c 0 1.1 0.18 1.98 0.4 1.98 c 0.22 0 0.4 0.8 0.4 1.78 c 0 0.97 0.18 1.88 0.4 2.02 c 0.22 0.14 0.4 0.96 0.4 1.82 c 0 0.87 0.18 1.58 0.4 1.58 c 0.22 0 0.4 0.72 0.4 1.6 c 0 0.88 0.18 1.6 0.4 1.6 c 0.22 0 0.4 0.72 0.4 1.6 c 0 0.88 0.18 1.6 0.4 1.6 c 0.22 0 0.4 0.53 0.4 1.18 c 0 0.64 0.18 1.28 0.4 1.42 c 0.22 0.14 0.4 0.78 0.4 1.42 c 0 0.65 0.18 1.18 0.4 1.18 c 0.22 0 0.4 0.54 0.4 1.2 c 0 0.66 0.18 1.2 0.4 1.2 c 0.22 0 0.4 0.54 0.4 1.2 c 0 0.66 0.16 1.2 0.35 1.2 c 0.19 0 0.47 0.92 0.62 2.03 c 0.14 1.12 0.42 2.34 0.6 2.7 c 0.19 0.37 0.56 1.21 0.83 1.87 c 0.27 0.66 0.65 1.51 0.85 1.9 c 0.2 0.38 0.35 1.05 0.35 1.5 c 0 0.44 0.18 0.8 0.4 0.8 c 0.22 0 0.4 0.36 0.4 0.8 c 0 0.44 0.18 0.8 0.4 0.8 c 0.22 0 0.4 0.54 0.4 1.2 c 0 0.66 0.18 1.2 0.4 1.2 c 0.22 0 0.4 0.36 0.4 0.8 c 0 0.44 0.18 0.8 0.4 0.8 c 0.22 0 0.4 0.36 0.4 0.8 c 0 0.44 0.18 0.8 0.4 0.8 c 0.22 0 0.4 0.44 0.4 0.98 c 0 0.53 0.18 1.08 0.4 1.22 c 0.22 0.14 0.4 0.6 0.4 1.02 c 0 0.43 0.18 0.78 0.4 0.78 c 0.22 0 0.4 0.36 0.4 0.8 c 0 0.44 0.18 0.8 0.4 0.8 c 0.22 0 0.4 0.36 0.4 0.8 c 0 0.44 0.15 0.8 0.32 0.8 c 0.18 0 0.58 0.63 0.88 1.4 c 0.3 0.77 0.7 1.4 0.88 1.4 c 0.17 0 0.32 0.36 0.32 0.8 c 0 0.44 0.18 0.8 0.4 0.8 c 0.22 0 0.4 0.35 0.4 0.77 c 0 0.42 0.14 0.82 0.3 0.9 c 0.38 0.16 1.68 2.3 1.97 3.23 c 0.12 0.38 0.38 0.7 0.58 0.7 c 0.2 0 0.35 0.36 0.35 0.8 c 0 0.44 0.18 0.8 0.4 0.8 c 0.22 0 0.4 0.36 0.4 0.8 c 0 0.44 0.17 0.8 0.37 0.8 c 0.2 0 0.5 0.4 0.66 0.9 c 0.15 0.5 0.8 1.65 1.43 2.57 a 8.79 8.79 0 0 1 1.14 2.01 c 0 0.2 0.36 0.6 0.8 0.92 c 0.44 0.32 0.8 0.9 0.8 1.29 s 0.15 0.71 0.33 0.71 c 0.19 0 0.59 0.5 0.9 1.1 c 0.31 0.6 0.88 1.4 1.27 1.75 c 0.38 0.35 0.7 0.9 0.7 1.2 c 0 0.32 0.36 0.83 0.8 1.15 c 0.44 0.32 0.8 0.78 0.8 1.03 s 0.54 1.02 1.2 1.7 c 0.66 0.7 1.2 1.46 1.2 1.7 c 0 0.25 0.54 0.95 1.2 1.57 c 0.66 0.62 1.2 1.32 1.2 1.56 s 0.18 0.44 0.4 0.44 c 0.22 0 0.4 0.26 0.4 0.57 c 0 0.32 0.34 0.68 0.76 0.82 c 0.41 0.13 0.97 0.75 1.23 1.39 a 12.9 12.9 0 0 0 2.16 2.9 c 0.92 0.96 2.12 2.38 2.66 3.14 c 0.54 0.76 2.78 3.13 4.98 5.28 c 4.74 4.61 5.4 5.28 9.2 9.19 a 53.7 53.7 0 0 0 4.44 4.15 c 0.85 0.64 2.42 2.01 3.5 3.06 c 1.07 1.04 2.12 1.9 2.32 1.9 c 0.2 0 1 0.63 1.78 1.4 c 0.77 0.77 1.57 1.4 1.79 1.4 c 0.21 0 0.95 0.54 1.64 1.2 a 5.4 5.4 0 0 0 1.6 1.2 c 0.2 0 0.91 0.54 1.6 1.2 c 0.7 0.66 1.46 1.2 1.71 1.2 s 0.71 0.36 1.03 0.8 c 0.32 0.44 0.83 0.8 1.14 0.8 c 0.31 0 0.86 0.32 1.21 0.7 a 7.5 7.5 0 0 0 1.75 1.27 c 0.6 0.31 1.1 0.71 1.1 0.9 c 0 0.18 0.32 0.33 0.71 0.33 c 0.4 0 0.97 0.36 1.29 0.8 c 0.32 0.44 0.81 0.8 1.1 0.8 c 0.3 0 0.89 0.33 1.32 0.74 c 0.44 0.4 1.29 0.99 1.89 1.3 c 0.6 0.3 1.82 1.04 2.7 1.63 c 0.9 0.59 2.15 1.2 2.8 1.37 a 5.3 5.3 0 0 1 1.95 1.02 c 0.44 0.4 1.03 0.74 1.31 0.74 c 0.3 0 0.53 0.18 0.53 0.4 c 0 0.22 0.36 0.4 0.8 0.4 c 0.44 0 0.8 0.18 0.8 0.4 c 0 0.22 0.36 0.4 0.8 0.4 c 0.44 0 0.8 0.18 0.8 0.4 c 0 0.22 0.34 0.4 0.77 0.4 c 0.42 0 0.82 0.13 0.9 0.3 c 0.19 0.42 5.13 2.9 5.79 2.9 c 0.3 0 0.54 0.18 0.54 0.4 c 0 0.22 0.45 0.4 1 0.4 s 1 0.18 1 0.4 c 0 0.22 0.36 0.4 0.8 0.4 c 0.44 0 0.8 0.18 0.8 0.4 c 0 0.22 0.36 0.4 0.8 0.4 c 0.44 0 0.8 0.18 0.8 0.4 c 0 0.22 0.54 0.4 1.2 0.4 c 0.66 0 1.2 0.18 1.2 0.4 c 0 0.22 0.36 0.4 0.8 0.4 c 0.44 0 0.8 0.18 0.8 0.4 c 0 0.22 0.36 0.4 0.8 0.4 c 0.45 0 1.12 0.16 1.5 0.35 c 0.39 0.2 1.24 0.58 1.9 0.85 c 0.66 0.27 1.51 0.65 1.9 0.85 c 0.38 0.2 1.04 0.35 1.47 0.35 c 0.43 0 0.9 0.18 1.03 0.4 c 0.14 0.22 0.68 0.4 1.2 0.4 c 0.52 0 1.06 0.17 1.18 0.37 c 0.13 0.2 1.22 0.5 2.43 0.65 c 1.2 0.15 2.19 0.43 2.19 0.63 s 0.63 0.35 1.4 0.35 c 0.77 0 1.4 0.18 1.4 0.4 c 0 0.22 0.53 0.4 1.18 0.4 c 0.64 0 1.28 0.18 1.42 0.4 c 0.14 0.22 0.87 0.4 1.62 0.4 c 0.76 0 1.38 0.18 1.38 0.4 c 0 0.22 0.72 0.4 1.6 0.4 c 0.88 0 1.6 0.18 1.6 0.4 c 0 0.22 0.7 0.4 1.58 0.4 c 0.86 0 1.68 0.18 1.82 0.4 c 0.14 0.22 1.05 0.4 2.02 0.4 c 0.98 0 1.78 0.18 1.78 0.4 c 0 0.22 0.89 0.4 1.98 0.4 c 1.08 0 2.08 0.18 2.22 0.4 c 0.14 0.22 1.22 0.4 2.4 0.4 s 2.26 0.18 2.4 0.4 c 0.14 0.22 1.48 0.4 2.99 0.4 c 1.84 0 2.8 0.16 2.91 0.5 c 0.24 0.73 49.96 0.73 50.2 0 c 0.11 -0.34 1.08 -0.5 2.93 -0.5 c 1.58 0 2.77 -0.17 2.77 -0.4 c 0 -0.22 1.06 -0.4 2.38 -0.4 c 1.3 0 2.48 -0.18 2.62 -0.4 c 0.14 -0.22 1.14 -0.4 2.22 -0.4 c 1.1 0 1.98 -0.18 1.98 -0.4 c 0 -0.22 0.9 -0.4 2 -0.4 s 2 -0.18 2 -0.4 c 0 -0.22 0.72 -0.4 1.6 -0.4 c 0.88 0 1.6 -0.18 1.6 -0.4 c 0 -0.22 0.72 -0.4 1.6 -0.4 c 0.88 0 1.6 -0.18 1.6 -0.4 c 0 -0.22 0.72 -0.4 1.6 -0.4 c 0.88 0 1.6 -0.18 1.6 -0.4 c 0 -0.22 0.54 -0.4 1.2 -0.4 c 0.66 0 1.2 -0.18 1.2 -0.4 c 0 -0.22 0.63 -0.4 1.4 -0.4 c 0.77 0 1.4 -0.16 1.4 -0.35 c 0 -0.2 0.99 -0.48 2.2 -0.63 c 1.2 -0.15 2.3 -0.44 2.42 -0.65 c 0.12 -0.2 0.66 -0.37 1.18 -0.37 c 0.52 0 1.06 -0.18 1.2 -0.4 c 0.14 -0.22 0.6 -0.4 1.03 -0.4 c 0.43 0 1.1 -0.16 1.48 -0.35 c 0.38 -0.2 1.23 -0.58 1.89 -0.85 c 0.66 -0.27 1.51 -0.65 1.9 -0.85 c 0.38 -0.2 1.05 -0.35 1.5 -0.35 c 0.44 0 0.8 -0.18 0.8 -0.4 c 0 -0.22 0.36 -0.4 0.8 -0.4 c 0.44 0 0.8 -0.18 0.8 -0.4 c 0 -0.22 0.54 -0.4 1.2 -0.4 c 0.66 0 1.2 -0.18 1.2 -0.4 c 0 -0.22 0.36 -0.4 0.8 -0.4 c 0.44 0 0.8 -0.18 0.8 -0.4 c 0 -0.22 0.36 -0.4 0.8 -0.4 c 0.44 0 0.8 -0.18 0.8 -0.4 c 0 -0.22 0.44 -0.4 0.98 -0.4 c 0.53 0 1.08 -0.18 1.22 -0.4 c 0.14 -0.22 0.6 -0.4 1.02 -0.4 c 0.43 0 0.78 -0.18 0.78 -0.4 c 0 -0.22 0.36 -0.4 0.8 -0.4 c 0.44 0 0.8 -0.18 0.8 -0.4 c 0 -0.22 0.36 -0.4 0.8 -0.4 c 0.44 0 0.8 -0.15 0.8 -0.32 c 0 -0.18 0.63 -0.58 1.4 -0.88 c 0.77 -0.3 1.4 -0.7 1.4 -0.88 c 0 -0.17 0.36 -0.32 0.8 -0.32 c 0.44 0 0.8 -0.18 0.8 -0.4 c 0 -0.22 0.36 -0.4 0.8 -0.4 c 0.44 0 0.8 -0.18 0.8 -0.4 c 0 -0.22 0.32 -0.4 0.71 -0.4 c 0.4 0 0.97 -0.36 1.29 -0.8 c 0.32 -0.44 0.83 -0.8 1.15 -0.8 c 0.77 0 4.85 -2.09 4.85 -2.48 c 0 -0.18 0.2 -0.32 0.43 -0.32 c 0.23 0 1.21 -0.54 2.17 -1.2 a 8.34 8.34 0 0 1 2.17 -1.2 c 0.23 0 0.65 -0.36 0.92 -0.8 c 0.28 -0.44 0.82 -0.8 1.2 -0.8 c 0.4 0 0.71 -0.15 0.71 -0.33 c 0 -0.19 0.5 -0.59 1.1 -0.9 a 7.5 7.5 0 0 0 1.75 -1.27 c 0.35 -0.38 0.9 -0.7 1.2 -0.7 c 0.32 0 0.83 -0.36 1.15 -0.8 c 0.32 -0.44 0.78 -0.8 1.03 -0.8 s 1.02 -0.54 1.7 -1.2 c 0.7 -0.66 1.46 -1.2 1.7 -1.2 c 0.25 0 0.95 -0.54 1.57 -1.2 c 0.62 -0.66 1.33 -1.2 1.6 -1.2 c 0.25 0 1.08 -0.63 1.83 -1.4 c 0.74 -0.77 1.52 -1.4 1.72 -1.4 c 0.2 0 1.25 -0.86 2.31 -1.9 a 35.39 35.39 0 0 1 3.34 -2.9 c 0.77 -0.54 3.16 -2.79 5.31 -5 c 4.7 -4.81 3.68 -3.78 8.5 -8.49 a 64.84 64.84 0 0 0 5 -5.3 c 0.54 -0.77 1.84 -2.28 2.89 -3.35 c 1.04 -1.06 1.9 -2.1 1.9 -2.3 c 0 -0.2 0.63 -0.99 1.4 -1.73 c 0.77 -0.75 1.4 -1.58 1.4 -1.84 s 0.54 -0.97 1.2 -1.59 c 0.66 -0.62 1.2 -1.32 1.2 -1.56 c 0 -0.25 0.54 -1.01 1.2 -1.7 c 0.66 -0.7 1.2 -1.46 1.2 -1.71 s 0.36 -0.71 0.8 -1.03 c 0.44 -0.32 0.8 -0.83 0.8 -1.14 c 0 -0.31 0.32 -0.86 0.7 -1.21 a 7.5 7.5 0 0 0 1.27 -1.75 c 0.31 -0.6 0.71 -1.1 0.9 -1.1 c 0.18 0 0.33 -0.32 0.33 -0.7 c 0 -0.4 0.36 -0.93 0.8 -1.2 c 0.44 -0.28 0.8 -0.7 0.8 -0.93 c 0 -0.24 0.54 -1.21 1.2 -2.17 c 0.66 -0.96 1.2 -1.84 1.2 -1.95 c 0 -0.12 0.53 -1 1.17 -1.94 c 0.64 -0.96 1.3 -2.27 1.47 -2.93 c 0.16 -0.65 0.62 -1.47 1.02 -1.83 c 0.4 -0.35 0.74 -0.94 0.74 -1.3 c 0 -0.36 0.18 -0.65 0.4 -0.65 c 0.22 0 0.4 -0.36 0.4 -0.8 c 0 -0.44 0.18 -0.8 0.4 -0.8 c 0.22 0 0.4 -0.36 0.4 -0.8 c 0 -0.44 0.15 -0.8 0.33 -0.8 c 0.17 0 0.57 -0.63 0.87 -1.4 c 0.3 -0.77 0.7 -1.4 0.88 -1.4 c 0.17 0 0.32 -0.36 0.32 -0.8 c 0 -0.44 0.18 -0.8 0.4 -0.8 c 0.22 0 0.4 -0.36 0.4 -0.8 c 0 -0.44 0.18 -0.8 0.4 -0.8 c 0.22 0 0.4 -0.35 0.4 -0.78 c 0 -0.42 0.18 -0.88 0.4 -1.02 c 0.22 -0.14 0.4 -0.69 0.4 -1.22 c 0 -0.54 0.18 -0.98 0.4 -0.98 c 0.22 0 0.4 -0.36 0.4 -0.8 c 0 -0.44 0.18 -0.8 0.4 -0.8 c 0.22 0 0.4 -0.36 0.4 -0.8 c 0 -0.44 0.18 -0.8 0.4 -0.8 c 0.22 0 0.4 -0.54 0.4 -1.2 c 0 -0.66 0.18 -1.2 0.4 -1.2 c 0.22 0 0.4 -0.36 0.4 -0.8 c 0 -0.44 0.18 -0.8 0.4 -0.8 c 0.22 0 0.4 -0.36 0.4 -0.8 c 0 -0.45 0.16 -1.12 0.35 -1.5 c 0.2 -0.39 0.58 -1.24 0.85 -1.9 c 0.27 -0.66 0.65 -1.51 0.85 -1.9 c 0.2 -0.38 0.35 -1.04 0.35 -1.47 c 0 -0.43 0.18 -0.9 0.4 -1.03 c 0.22 -0.14 0.4 -0.68 0.4 -1.2 c 0 -0.52 0.17 -1.06 0.37 -1.18 c 0.2 -0.13 0.5 -1.22 0.65 -2.43 c 0.15 -1.2 0.43 -2.19 0.63 -2.19 s 0.35 -0.63 0.35 -1.4 c 0 -0.77 0.18 -1.4 0.4 -1.4 c 0.22 0 0.4 -0.54 0.4 -1.2 c 0 -0.66 0.18 -1.2 0.4 -1.2 c 0.22 0 0.4 -0.72 0.4 -1.6 c 0 -0.88 0.18 -1.6 0.4 -1.6 c 0.22 0 0.4 -0.72 0.4 -1.6 c 0 -0.88 0.18 -1.6 0.4 -1.6 c 0.22 0 0.4 -0.7 0.4 -1.58 c 0 -0.86 0.18 -1.68 0.4 -1.82 c 0.22 -0.14 0.4 -1.05 0.4 -2.02 c 0 -0.98 0.18 -1.78 0.4 -1.78 c 0.22 0 0.4 -0.89 0.4 -1.98 c 0 -1.08 0.18 -2.08 0.4 -2.22 c 0.22 -0.14 0.4 -1.22 0.4 -2.4 s 0.18 -2.26 0.4 -2.4 c 0.22 -0.14 0.4 -1.48 0.4 -2.99 c 0 -1.84 0.16 -2.8 0.5 -2.91 c 0.4 -0.13 0.5 -5.5 0.5 -25.1 s -0.1 -24.97 -0.5 -25.1 c -0.34 -0.11 -0.5 -1.07 -0.5 -2.91 c 0 -1.5 -0.18 -2.85 -0.4 -2.99 c -0.22 -0.14 -0.4 -1.22 -0.4 -2.4 s -0.18 -2.26 -0.4 -2.4 c -0.22 -0.14 -0.4 -1.14 -0.4 -2.22 c 0 -1.1 -0.18 -1.98 -0.4 -1.98 c -0.22 0 -0.4 -0.8 -0.4 -1.78 c 0 -0.97 -0.18 -1.88 -0.4 -2.02 c -0.22 -0.14 -0.4 -0.96 -0.4 -1.82 c 0 -0.87 -0.18 -1.58 -0.4 -1.58 c -0.22 0 -0.4 -0.72 -0.4 -1.6 c 0 -0.88 -0.18 -1.6 -0.4 -1.6 c -0.22 0 -0.4 -0.62 -0.4 -1.38 c 0 -0.75 -0.18 -1.48 -0.4 -1.62 c -0.22 -0.14 -0.4 -0.78 -0.4 -1.42 c 0 -0.65 -0.18 -1.18 -0.4 -1.18 c -0.22 0 -0.4 -0.63 -0.4 -1.4 c 0 -0.77 -0.16 -1.4 -0.35 -1.4 c -0.2 0 -0.48 -0.99 -0.63 -2.2 c -0.15 -1.2 -0.44 -2.3 -0.65 -2.42 c -0.2 -0.12 -0.37 -0.66 -0.37 -1.18 c 0 -0.52 -0.18 -1.06 -0.4 -1.2 c -0.22 -0.14 -0.4 -0.6 -0.4 -1.03 c 0 -0.43 -0.16 -1.1 -0.35 -1.47 c -0.2 -0.39 -0.58 -1.24 -0.85 -1.9 c -0.27 -0.66 -0.65 -1.51 -0.85 -1.9 a 3.94 3.94 0 0 1 -0.35 -1.5 c 0 -0.44 -0.18 -0.8 -0.4 -0.8 c -0.22 0 -0.4 -0.36 -0.4 -0.8 c 0 -0.44 -0.18 -0.8 -0.4 -0.8 c -0.22 0 -0.4 -0.54 -0.4 -1.2 c 0 -0.66 -0.18 -1.2 -0.4 -1.2 c -0.22 0 -0.4 -0.36 -0.4 -0.8 c 0 -0.44 -0.18 -0.8 -0.4 -0.8 c -0.22 0 -0.4 -0.36 -0.4 -0.8 c 0 -0.44 -0.18 -0.8 -0.4 -0.8 c -0.22 0 -0.4 -0.45 -0.4 -1 s -0.18 -1 -0.4 -1 c -0.22 0 -0.4 -0.25 -0.4 -0.54 c 0 -0.66 -2.48 -5.6 -2.9 -5.8 c -0.17 -0.07 -0.3 -0.47 -0.3 -0.9 c 0 -0.41 -0.18 -0.76 -0.4 -0.76 c -0.22 0 -0.4 -0.36 -0.4 -0.8 c 0 -0.44 -0.18 -0.8 -0.4 -0.8 c -0.22 0 -0.4 -0.36 -0.4 -0.8 c 0 -0.44 -0.18 -0.8 -0.4 -0.8 c -0.22 0 -0.4 -0.3 -0.4 -0.65 c 0 -0.36 -0.33 -0.95 -0.74 -1.3 a 4.17 4.17 0 0 1 -1.02 -1.83 c -0.17 -0.66 -0.78 -1.92 -1.37 -2.8 c -0.59 -0.9 -1.32 -2.11 -1.63 -2.71 c -0.31 -0.6 -0.9 -1.45 -1.3 -1.89 c -0.4 -0.43 -0.74 -1.02 -0.74 -1.31 c 0 -0.3 -0.36 -0.8 -0.8 -1.11 c -0.44 -0.32 -0.8 -0.9 -0.8 -1.29 s -0.15 -0.71 -0.33 -0.71 c -0.19 0 -0.59 -0.5 -0.9 -1.1 a 7.5 7.5 0 0 0 -1.27 -1.75 c -0.38 -0.35 -0.7 -0.9 -0.7 -1.2 c 0 -0.32 -0.36 -0.83 -0.8 -1.15 c -0.44 -0.32 -0.8 -0.78 -0.8 -1.03 s -0.54 -1.02 -1.2 -1.7 a 5.4 5.4 0 0 1 -1.2 -1.6 c 0 -0.2 -0.54 -0.92 -1.2 -1.6 a 5.08 5.08 0 0 1 -1.2 -1.65 c 0 -0.22 -0.63 -1.02 -1.4 -1.8 c -0.77 -0.76 -1.4 -1.56 -1.4 -1.77 c 0 -0.2 -0.86 -1.25 -1.9 -2.31 a 35.21 35.21 0 0 1 -2.9 -3.34 a 47.92 47.92 0 0 0 -4.2 -4.5 c -3.9 -3.78 -4.4 -4.27 -9.3 -9.3 a 64.46 64.46 0 0 0 -5.28 -5 a 34.57 34.57 0 0 1 -3.14 -2.65 a 12.9 12.9 0 0 0 -2.9 -2.16 c -0.64 -0.26 -1.26 -0.82 -1.4 -1.23 c -0.13 -0.42 -0.5 -0.76 -0.8 -0.76 c -0.32 0 -0.58 -0.18 -0.58 -0.4 c 0 -0.22 -0.2 -0.4 -0.44 -0.4 s -0.94 -0.54 -1.56 -1.2 c -0.62 -0.66 -1.32 -1.2 -1.56 -1.2 c -0.25 0 -1.01 -0.54 -1.7 -1.2 c -0.7 -0.66 -1.46 -1.2 -1.71 -1.2 s -0.71 -0.36 -1.03 -0.8 c -0.32 -0.44 -0.83 -0.8 -1.14 -0.8 c -0.31 0 -0.86 -0.32 -1.21 -0.7 a 7.5 7.5 0 0 0 -1.75 -1.27 c -0.6 -0.31 -1.1 -0.71 -1.1 -0.9 c 0 -0.18 -0.32 -0.33 -0.71 -0.33 c -0.4 0 -0.97 -0.36 -1.29 -0.8 c -0.32 -0.44 -0.73 -0.8 -0.92 -0.8 c -0.18 0 -1.09 -0.52 -2 -1.14 a 13.5 13.5 0 0 0 -2.58 -1.43 c -0.5 -0.16 -0.9 -0.45 -0.9 -0.66 c 0 -0.2 -0.36 -0.37 -0.8 -0.37 c -0.44 0 -0.8 -0.18 -0.8 -0.4 c 0 -0.22 -0.36 -0.4 -0.8 -0.4 c -0.44 0 -0.8 -0.18 -0.8 -0.4 c 0 -0.22 -0.32 -0.4 -0.71 -0.4 c -0.4 0 -0.97 -0.36 -1.29 -0.8 c -0.32 -0.44 -0.9 -0.8 -1.29 -0.8 s -0.71 -0.18 -0.71 -0.4 c 0 -0.22 -0.36 -0.4 -0.8 -0.4 c -0.44 0 -0.8 -0.18 -0.8 -0.4 c 0 -0.22 -0.36 -0.4 -0.8 -0.4 c -0.44 0 -0.8 -0.15 -0.8 -0.33 c 0 -0.17 -0.63 -0.57 -1.4 -0.87 c -0.77 -0.3 -1.4 -0.7 -1.4 -0.88 c 0 -0.17 -0.36 -0.32 -0.8 -0.32 c -0.44 0 -0.8 -0.18 -0.8 -0.4 c 0 -0.22 -0.36 -0.4 -0.8 -0.4 c -0.44 0 -0.8 -0.18 -0.8 -0.4 c 0 -0.22 -0.27 -0.4 -0.6 -0.4 c -0.34 0 -1.01 -0.2 -1.5 -0.46 c -1.88 -0.97 -2.3 -1.14 -2.9 -1.14 c -0.33 0 -0.6 -0.18 -0.6 -0.4 c 0 -0.22 -0.36 -0.4 -0.8 -0.4 c -0.44 0 -0.8 -0.18 -0.8 -0.4 c 0 -0.22 -0.54 -0.4 -1.2 -0.4 c -0.66 0 -1.2 -0.18 -1.2 -0.4 c 0 -0.22 -0.36 -0.4 -0.8 -0.4 c -0.44 0 -0.8 -0.18 -0.8 -0.4 c 0 -0.22 -0.36 -0.4 -0.8 -0.4 c -0.45 0 -1.12 -0.16 -1.5 -0.35 c -0.39 -0.2 -1.24 -0.58 -1.9 -0.85 c -0.66 -0.27 -1.5 -0.64 -1.87 -0.83 c -0.36 -0.18 -1.58 -0.46 -2.7 -0.6 c -1.11 -0.15 -2.03 -0.43 -2.03 -0.62 c 0 -0.2 -0.54 -0.35 -1.2 -0.35 c -0.66 0 -1.2 -0.18 -1.2 -0.4 c 0 -0.22 -0.54 -0.4 -1.2 -0.4 c -0.66 0 -1.2 -0.18 -1.2 -0.4 c 0 -0.22 -0.53 -0.4 -1.18 -0.4 c -0.64 0 -1.28 -0.18 -1.42 -0.4 c -0.14 -0.22 -0.78 -0.4 -1.42 -0.4 c -0.65 0 -1.18 -0.18 -1.18 -0.4 c 0 -0.22 -0.72 -0.4 -1.6 -0.4 c -0.88 0 -1.6 -0.18 -1.6 -0.4 c 0 -0.22 -0.72 -0.4 -1.6 -0.4 c -0.88 0 -1.6 -0.18 -1.6 -0.4 c 0 -0.22 -0.72 -0.4 -1.6 -0.4 c -0.88 0 -1.6 -0.18 -1.6 -0.4 c 0 -0.22 -0.9 -0.4 -2 -0.4 s -2 -0.18 -2 -0.4 c 0 -0.22 -0.89 -0.4 -1.98 -0.4 c -1.08 0 -2.08 -0.18 -2.22 -0.4 c -0.14 -0.22 -1.22 -0.4 -2.4 -0.4 s -2.26 -0.18 -2.4 -0.4 c -0.14 -0.22 -1.48 -0.4 -2.99 -0.4 c -1.81 0 -2.8 -0.17 -2.9 -0.5 c -0.17 -0.48 -37.15 -0.82 -46.61 -0.42 m 39.3 12.1 c 6.15 0.58 11.18 1.3 16.8 2.37 a 164.7 164.7 0 0 1 9.6 2 c 4.9 1.2 7.4 1.9 7.71 2.23 c 0.3 0.3 -0.15 0.73 -4.7 4.62 c -8.64 7.37 -10.43 10.35 -10.48 17.43 c -0.12 13.78 13.52 22.17 26.47 16.27 c 5.24 -2.38 8.52 -1.7 10.7 2.2 c 2.04 3.65 -2.81 9.4 -10.5 12.46 c -0.22 0.09 -1.12 0.65 -2 1.24 a 19.9 19.9 0 0 1 -2 1.24 c -0.23 0.09 -3.11 1.76 -6.4 3.72 c -8.96 5.3 -14.66 8.67 -16 9.44 c -9.45 5.4 -13.94 9.15 -16.72 13.93 c -8.84 15.2 -5.15 35.85 7.52 42.05 c 3.61 1.77 3.6 1.64 0.4 4.91 a 43.39 43.39 0 0 0 0.46 61.6 c 8.87 8.74 17.3 12.06 32.14 12.68 c 8.57 0.35 10.04 0.8 13.27 4.11 c 3.74 3.82 3.53 1.31 3.54 41.63 c 0.01 28.57 0.13 35.9 0.58 38.46 a 20.67 20.67 0 0 0 34.59 11.58 c 2.29 -2.12 3.57 -3.95 6.55 -9.35 c 0.66 -1.21 2.55 -4.54 4.19 -7.4 l 3.99 -7 c 0.55 -0.99 1.6 -2.85 2.34 -4.12 a 21.49 21.49 0 0 0 1.35 -2.54 c 0 -0.12 0.33 -0.7 0.74 -1.28 c 0.4 -0.58 1.52 -2.5 2.47 -4.26 c 0.95 -1.76 2.5 -4.52 3.46 -6.13 a 33.87 33.87 0 0 0 1.73 -3.14 c 0 -0.11 0.33 -0.68 0.74 -1.27 c 0.4 -0.58 1.28 -2.05 1.94 -3.26 c 0.66 -1.21 1.59 -2.88 2.06 -3.7 c 1.91 -3.33 2.62 -4.58 3.58 -6.3 l 5.74 -10.13 a 241.9 241.9 0 0 0 4.74 -8.54 c 0 -0.11 0.33 -0.68 0.74 -1.27 c 1.29 -1.85 5.45 -9.72 6.91 -13.06 c 2.81 -6.45 2.65 -16.45 -0.45 -27.2 c -0.77 -2.67 -2.06 -7.64 -2.13 -8.2 c -0.06 -0.5 0.51 -0.58 3.53 -0.47 c 6.9 0.26 13.6 -1.33 18.36 -4.35 c 1.06 -0.67 2.02 -1.13 2.13 -1.03 c 1 1 1.09 22.68 0.14 32.85 c -0.76 8.2 -2.03 16.59 -3.38 22.27 c -0.32 1.4 -0.8 3.52 -1.05 4.73 c -0.25 1.21 -0.6 2.65 -0.78 3.2 c -0.18 0.55 -0.52 1.72 -0.76 2.6 c -1.68 6.26 -5.1 16.52 -6.08 18.3 c -0.2 0.38 -0.38 0.87 -0.38 1.08 c 0 0.22 -0.47 1.44 -1.04 2.7 L 372.5 276 c -4.57 10.36 -14.25 27.5 -18.18 32.2 c -0.2 0.22 -1.46 1.94 -2.83 3.81 c -2.72 3.74 -4.9 6.5 -7.08 9.01 l -3.61 4.2 c -3.23 3.8 -13.39 13.83 -17.43 17.23 c -7.02 5.9 -14.32 11.55 -14.94 11.55 c -0.2 0 -0.42 0.15 -0.5 0.33 c -0.13 0.35 -6.48 4.68 -8.8 6.01 l -5.9 3.44 a 168.23 168.23 0 0 1 -16.07 8.23 c -1.63 0.7 -3.91 1.71 -5.07 2.24 c -1.16 0.52 -2.3 0.95 -2.5 0.95 c -0.22 0 -0.71 0.16 -1.1 0.35 c -2.2 1.13 -10.5 4 -15.29 5.3 l -4.4 1.2 c -29.28 8.1 -67.82 8.3 -95.63 0.5 c -2.52 -0.7 -2.04 0.27 -3.97 -7.95 c -1.17 -4.95 -3.2 -13.45 -3.58 -15 l -0.79 -3.1 l -0.81 -3.2 c -0.21 -0.82 -0.49 -2.04 -0.62 -2.7 c -0.13 -0.66 -0.4 -1.83 -0.6 -2.6 c -1.81 -7.01 -2.4 -10.69 -2.4 -15.08 c 0 -9.23 0.88 -11.5 14.56 -37.72 c 10.28 -19.7 10.85 -21.17 10.81 -27.8 c -0.07 -11.59 -5.7 -18.83 -18.37 -23.62 c -4.6 -1.74 -9.09 -3.4 -10.96 -4.04 c -4.1 -1.42 -6.04 -3.67 -6.04 -6.96 c 0 -3.84 -1.28 -8.27 -3.25 -11.21 a 18.95 18.95 0 0 0 -9.35 -7.4 c -1.86 -0.7 -3.78 -0.76 -27.2 -0.96 L 65.4 213 l -2.4 -1.36 c -10.33 -5.86 -12.1 -7 -14.32 -9.17 a 20.89 20.89 0 0 1 -2.95 -3.47 c -2.61 -4.95 -2.98 -6.63 -1.64 -7.6 c 0.77 -0.56 12.59 -8.24 18.71 -12.15 c 5.85 -3.74 8.35 -3.77 12.2 -0.17 c 5.56 5.2 10.72 6.33 16.52 3.61 c 1.91 -0.89 5.28 -4.03 5.28 -4.92 c 0 -0.31 0.16 -0.57 0.35 -0.57 c 0.2 0 0.45 -0.4 0.57 -0.9 c 0.11 -0.5 0.5 -2.07 0.86 -3.5 l 1 -4 c 0.2 -0.77 0.75 -3.2 1.23 -5.4 c 3.33 -15.13 4.68 -16.29 27.7 -23.97 c 15.4 -5.13 16.8 -5.72 19.82 -8.44 c 6.21 -5.59 7.56 -15.35 3.14 -22.63 a 348.4 348.4 0 0 1 -1.9 -3.14 c -0.31 -0.54 -0.7 -1.17 -0.87 -1.4 c -0.17 -0.23 -1.5 -2.31 -2.96 -4.62 c -8.4 -13.3 -9.6 -14.76 -13.96 -16.95 c -5.7 -2.86 -10.95 -2.54 -18.78 1.15 c -8.24 3.88 -9.04 4.2 -10.61 4.2 c -4.7 0 -7.8 -5.18 -5.52 -9.24 c 0.7 -1.24 3.35 -3.56 4.08 -3.56 c 0.08 0 2.2 -1.14 4.7 -2.53 c 2.5 -1.4 5.81 -3.22 7.35 -4.06 c 4.39 -2.38 7.05 -3.84 9 -4.93 c 3.35 -1.88 4.2 -2.27 6 -2.76 c 6.27 -1.7 10.63 0.52 16.12 8.23 c 6.22 8.72 11.4 10.85 26.43 10.85 c 14.35 0 18.77 -1.77 25.46 -10.23 c 1.18 -1.49 2.92 -5.34 7.37 -16.28 c 6.38 -15.7 5.86 -23.2 -2.53 -36.49 c -1.52 -2.42 -2.67 -4.56 -2.56 -4.75 c 0.25 -0.4 13.5 -0.04 19.51 0.53 m 50.63 11.86 c 1.41 0.57 3.11 1.27 3.77 1.56 c 0.66 0.29 2.01 0.85 3 1.26 c 30.12 12.25 61.75 38.75 81.66 68.43 c 5.1 7.6 15.94 27.35 15.94 29.04 c 0 0.14 0.54 1.43 1.2 2.87 c 0.66 1.44 1.2 2.8 1.2 3.01 c 0 0.22 0.16 0.71 0.35 1.1 c 2.33 4.57 7.59 22.4 9.22 31.29 c 0.27 1.43 0.65 3.35 0.86 4.28 c 0.68 3.05 0.53 3.53 -1.73 5.42 c -6.83 5.75 -11.35 6.91 -21.46 5.51 c -10.67 -1.48 -14.7 1.27 -12.14 8.27 c 0.22 0.62 0.6 1.84 0.84 2.72 l 1.26 4.6 c 1.45 5.31 1.69 6.18 2 7.2 c 0.17 0.55 0.53 1.81 0.8 2.8 c 0.27 0.99 0.69 2.33 0.92 2.97 c 1.95 5.29 0.2 14.19 -4.42 22.43 a 488.16 488.16 0 0 1 -7.56 13.3 a 37.22 37.22 0 0 0 -1.74 3.06 c 0 0.1 -0.92 1.77 -2.05 3.7 c -1.13 1.95 -2.5 4.35 -3.06 5.34 l -6.69 11.8 a 5170.98 5170.98 0 0 0 -10.2 18 c -2.17 3.8 -2.59 4.53 -3.52 6.2 c -0.55 0.99 -2.44 4.32 -4.2 7.4 a 359.23 359.23 0 0 0 -4.43 7.98 c -4.33 8.27 -12.78 9.57 -17.55 2.7 l -1.3 -1.88 l -0.22 -37.4 c -0.27 -43.71 0.02 -41.14 -5.33 -48.25 c -4.89 -6.5 -10.25 -8.82 -21.65 -9.36 c -8.96 -0.43 -11.17 -0.83 -15.7 -2.84 c -0.93 -0.41 -1.8 -0.75 -1.91 -0.75 c -3.53 0 -15.79 -14.11 -15.79 -18.17 c 0 -0.32 -0.18 -0.7 -0.4 -0.83 c -0.22 -0.14 -0.4 -0.7 -0.4 -1.25 s -0.2 -1.37 -0.44 -1.82 c -0.67 -1.26 -0.55 -11.67 0.16 -14.33 c 3.08 -11.39 12.05 -20.77 22.48 -23.5 c 4.69 -1.23 5.95 -1.3 22.79 -1.3 c 18.44 0 18.76 -0.03 20.46 -1.94 c 2 -2.25 2.08 -5.18 0.19 -7.4 c -1.55 -1.81 -2 -1.86 -17.63 -1.86 c -15.53 0 -16.2 -0.08 -14.9 -1.7 c 0.57 -0.73 1.92 -4.93 2.46 -7.7 c 1.14 -5.82 -1 -5.4 27.91 -5.4 c 26.9 0.02 26.38 -0.03 28.45 2.6 c 3.78 4.8 1.08 10.69 -5.53 12.05 c -4.07 0.85 -5.6 2.43 -5.6 5.8 c 0 4.36 4.1 6.45 9.77 4.98 c 18.26 -4.76 19.26 -29.94 1.42 -35.8 c -3.74 -1.23 -53.72 -1.3 -57.05 -0.08 c -6.07 2.22 -10.54 8.28 -10.54 14.31 c 0 1.64 -2.27 5.94 -3.88 7.36 c -6.68 5.86 -16.58 3.78 -20.58 -4.33 c -1.07 -2.19 -1.4 -13.98 -0.42 -14.97 c 0.26 -0.27 0.48 -0.8 0.48 -1.19 c 0 -0.72 1.06 -2.8 2.51 -4.93 c 2.16 -3.16 5.86 -5.77 17.39 -12.24 a 23.4 23.4 0 0 0 1.9 -1.16 c 0.22 -0.17 1.03 -0.67 1.8 -1.1 a 1026.2 1026.2 0 0 0 19.81 -11.71 l 2.89 -1.64 a 61 61 0 0 0 3.3 -2.06 c 14.53 -9.81 8.04 -32.03 -9.36 -32.03 c -3.7 0 -4.64 0.22 -9.73 2.31 c -5.1 2.1 -8.92 0.54 -10.48 -4.27 c -1 -3.05 0.21 -5.07 5.93 -9.96 c 4.3 -3.67 7.65 -6.56 9.84 -8.47 c 1.49 -1.3 1.5 -1.3 4.63 -0.03 M 23.91 138.8 c 0.25 1.43 0.65 4.13 0.9 6 c 0.24 1.87 0.6 4.39 0.8 5.6 c 0.47 3 1.07 7.16 1.6 11 c 0.44 3.21 0.86 6.06 1.58 10.7 c 0.2 1.38 0.84 5.83 1.4 9.9 c 1.47 10.81 1.8 12.71 2.65 15.68 c 2.22 7.63 7.64 14.1 15.63 18.66 c 9.1 5.19 9.44 5.45 8.41 6.68 c -0.17 0.2 -0.55 1.1 -0.83 1.98 c -0.5 1.56 -0.71 2.16 -1.56 4.2 a 51.7 51.7 0 0 0 -0.89 2.4 c -0.26 0.77 -0.63 1.76 -0.8 2.2 c -0.18 0.44 -0.68 1.79 -1.13 3 l -2.02 5.48 c -5.92 16.03 -2 27.7 13.47 39.95 c 10.8 8.57 11.8 9.76 16.17 19.37 l 4.5 9.8 c 2.41 5.17 3.59 7.7 4.77 10.3 c 0.52 1.16 1.6 3.47 2.38 5.15 l 2.64 5.7 a 4320.58 4320.58 0 0 0 7.4 16.05 a 4207.67 4207.67 0 0 0 6.95 15.1 c 1.06 2.31 -17.26 -9.6 -26.53 -17.24 c -6.91 -5.7 -9.16 -7.76 -15.75 -14.44 c -4.64 -4.7 -6.87 -7.17 -12.09 -13.38 C 44.3 307.58 34.03 290.79 27.5 276 c -0.34 -0.77 -1.08 -2.44 -1.66 -3.71 a 16.29 16.29 0 0 1 -1.04 -2.7 c 0 -0.22 -0.17 -0.71 -0.38 -1.1 c -0.98 -1.8 -4.43 -12.18 -6.08 -18.29 c -0.24 -0.88 -0.59 -2.05 -0.77 -2.6 c -0.3 -0.9 -0.7 -2.62 -2.02 -8.8 c -4.4 -20.57 -5.15 -46.34 -1.95 -66.4 l 0.82 -5.2 c 0.26 -1.65 0.6 -3.54 0.78 -4.2 c 0.17 -0.66 0.54 -2.28 0.82 -3.6 c 1.95 -9.2 6.54 -24.26 7.17 -23.52 c 0.15 0.18 0.47 1.49 0.72 2.92 M 115 225.26 c 2.58 1.42 3.8 3.59 3.8 6.72 c 0 10.49 4.39 14.94 20.72 21 c 10.72 3.97 12.73 5.49 14.65 11.02 c 1.69 4.9 1.59 5.16 -9.57 26.6 c -14.48 27.8 -14.96 29.07 -15.3 40.82 c -0.2 7.43 -0.1 8.27 2.55 19.38 l 1.99 8.4 c 1.84 7.86 2.23 9.54 2.61 11 c 2.27 8.77 2.42 8.65 -5.95 4.95 c -0.93 -0.41 -1.84 -0.75 -2.02 -0.75 c -2.21 0 -3.95 -1.77 -5.87 -6 c -0.86 -1.87 -2.44 -5.29 -3.53 -7.6 a 792.02 792.02 0 0 1 -5.12 -11.1 a 3713.87 3713.87 0 0 1 -4.87 -10.5 a 5496.7 5496.7 0 0 1 -9.58 -20.8 c -1.4 -3.07 -3.16 -6.87 -4.71 -10.2 c -1.93 -4.15 -3.48 -7.5 -4.8 -10.4 c -5.28 -11.65 -7.8 -14.96 -16.56 -21.8 c -0.42 -0.33 -1.41 -1.15 -2.2 -1.81 c -0.8 -0.67 -2.48 -2 -3.76 -2.97 c -7.07 -5.33 -10.74 -14.18 -8.62 -20.8 c 0.7 -2.2 3.19 -9.15 3.94 -11.02 c 0.4 -1.01 1.49 -3.93 3.67 -9.89 c 1 -2.71 1.97 -4.76 2.32 -4.86 c 2.04 -0.6 45.06 -0.02 46.21 0.61" stroke-linecap="round"/>
</g>
		<g transform="matrix(1 0 0 1 8.9208 -5.0341)">
<path style="stroke: none; stroke-width: 1; stroke-dasharray: none; stroke-linecap: butt; stroke-dashoffset: 0; stroke-linejoin: miter; stroke-miterlimit: 4; is-custom-font: none; font-file-url: none; fill: rgb(86,127,72); fill-rule: evenodd; opacity: 1;" transform=" translate(-208.9208, -194.9659)" d="M 177.2 12.87 c -1.21 0.2 -3.46 0.54 -5 0.77 c -5.61 0.82 -7.47 1.17 -12.7 2.34 a 187.73 187.73 0 0 0 -28.97 8.84 a 197.74 197.74 0 0 0 -29.72 14.97 c -4.76 2.9 -8.57 5.46 -8.74 5.88 a 0.58 0.58 0 0 1 -0.5 0.33 C 89.3 46 68.08 64.84 59.2 74.72 c -4.38 4.9 -6.46 5.85 -9.21 4.28 a 4.47 4.47 0 0 0 -1.8 -0.57 c -0.54 0 -0.29 0.26 0.77 0.79 c 3.61 1.8 6.16 0.94 9.85 -3.3 A 245.52 245.52 0 0 1 78.6 56.59 c 7.5 -6.27 20.65 -15.79 21.79 -15.79 a 0.4 0.4 0 0 0 0.41 -0.4 c 0 -0.22 0.2 -0.4 0.43 -0.4 c 0.23 0 1.21 -0.54 2.17 -1.2 c 0.96 -0.66 1.82 -1.2 1.92 -1.2 c 0.1 0 1.69 -0.84 3.53 -1.86 c 4.7 -2.6 14.59 -7.47 17.35 -8.53 c 0.44 -0.17 1.61 -0.68 2.6 -1.13 c 0.99 -0.45 2.52 -1.05 3.4 -1.34 c 0.88 -0.28 1.78 -0.62 2 -0.75 c 0.22 -0.14 1.21 -0.5 2.2 -0.79 c 0.99 -0.3 1.98 -0.66 2.2 -0.8 c 0.22 -0.14 1.21 -0.5 2.2 -0.78 c 0.99 -0.3 2.79 -0.86 4 -1.26 c 8.2 -2.72 20.8 -5.32 34.6 -7.14 c 5.07 -0.67 4.65 -0.87 7.47 3.48 c 1.4 2.14 2.79 4.4 3.1 5 c 0.31 0.6 0.72 1.1 0.9 1.1 c 0.18 0 0.33 0.2 0.33 0.43 c 0 0.23 0.5 1.18 1.11 2.1 a 22.9 22.9 0 0 1 3.12 6.87 c 0.64 2.62 0.17 9.9 -0.67 10.43 c -0.2 0.12 -0.36 0.48 -0.36 0.8 c 0 0.32 -0.38 1.43 -0.84 2.47 a 80.07 80.07 0 0 0 -1.15 2.7 a 99.79 99.79 0 0 1 -1.97 4.7 a 17.72 17.72 0 0 0 -0.84 2.1 c 0 0.12 -0.38 1.06 -0.84 2.1 c -4 9.03 -6.04 10.24 -17.6 10.43 c -8.9 0.15 -11.14 -0.25 -14.06 -2.47 c -1.66 -1.27 -2.36 -2.11 -5.9 -7.06 c -6.88 -9.64 -21.07 -12.97 -31.4 -7.38 L 115 53.6 a 74.61 74.61 0 0 0 -3.6 2 c -0.22 0.17 -1.84 1.07 -3.6 2 c -4.68 2.5 -7 3.76 -8.8 4.8 c -0.88 0.5 -2.56 1.43 -3.73 2.06 c -7.38 3.92 -10.87 9.33 -10.87 16.83 c 0 14.15 13.68 22.12 27.2 15.84 l 5.6 -2.6 c 1.65 -0.77 3.31 -1.56 3.7 -1.77 c 3.49 -1.83 6.52 -0.14 10.3 5.73 l 3.81 5.91 c 7 10.81 6.99 10.81 6.99 13.47 c 0 2.7 -1.16 4.53 -3.5 5.55 c -0.83 0.36 -1.81 0.81 -2.2 1.01 c -0.38 0.2 -1.04 0.37 -1.47 0.37 c -0.43 0 -0.9 0.18 -1.03 0.4 c -0.14 0.22 -0.68 0.4 -1.2 0.4 c -0.52 0 -1.06 0.18 -1.2 0.4 c -0.14 0.22 -0.68 0.4 -1.2 0.4 c -0.52 0 -1.06 0.18 -1.2 0.4 c -0.14 0.22 -0.68 0.4 -1.2 0.4 c -0.52 0 -1.06 0.18 -1.2 0.4 c -0.14 0.22 -0.6 0.4 -1.03 0.4 c -0.43 0 -1.1 0.18 -1.47 0.4 c -0.39 0.2 -4.03 1.48 -8.1 2.83 c -13.26 4.4 -18.98 8.79 -23.16 17.77 c -0.5 1.1 -1.09 2.31 -1.28 2.7 c -0.2 0.38 -0.36 1.04 -0.36 1.47 c 0 0.43 -0.16 0.88 -0.35 1 c -0.19 0.11 -0.45 0.89 -0.59 1.72 c -0.23 1.43 -0.73 3.78 -1.47 6.91 l -1.11 4.94 c -1.14 5.18 -1.38 5.29 -4.95 2.39 c -5.32 -4.32 -7.88 -5.33 -13.56 -5.33 c -5.52 0 -7.06 0.65 -16.97 7.18 a 93.2 93.2 0 0 1 -5.1 3.2 c -0.6 0.3 -1.1 0.7 -1.1 0.89 c 0 0.18 -0.2 0.33 -0.43 0.33 c -0.23 0 -1.2 0.53 -2.15 1.19 l -1.72 1.18 l -0.28 -1.89 a 603.6 603.6 0 0 0 -0.62 -4.08 c -0.2 -1.21 -0.53 -3.55 -0.76 -5.2 l -0.83 -5.8 c -0.22 -1.54 -0.56 -4.11 -0.76 -5.72 c -0.35 -2.93 -0.85 -4.32 -0.85 -2.36 c 0 0.58 0.44 4.07 0.98 7.77 l 1.43 9.91 c 0.68 4.85 1.2 7.36 1.6 7.6 c 0.35 0.22 1.4 -0.43 12.65 -7.76 c 12.45 -8.14 19.96 -8.15 28.93 -0.05 c 2.33 2.1 4.41 1.84 4.41 -0.57 c 0 -0.4 0.2 -1.47 0.43 -2.37 c 0.6 -2.27 1.04 -4.11 1.55 -6.35 l 0.84 -3.8 c 0.6 -2.67 1.22 -4.96 1.59 -5.9 a 31.6 31.6 0 0 1 7.5 -11.63 c 4.84 -4.75 6.4 -5.5 24.17 -11.4 c 18.82 -6.27 18.94 -6.35 18.9 -11.34 c -0.03 -2.68 -0.07 -2.78 -4.25 -9.23 c -1.43 -2.2 -4.18 -6.48 -6.11 -9.5 c -5.34 -8.37 -7.13 -9.02 -14.82 -5.35 c -5.82 2.78 -7.85 3.7 -9.2 4.18 c -12.04 4.26 -24.45 -5.53 -23.24 -18.33 c 0.65 -6.9 3.77 -10.94 11.91 -15.42 l 6.63 -3.65 c 0.94 -0.5 2.47 -1.36 3.4 -1.88 l 4 -2.2 l 4.6 -2.5 l 4.01 -2.2 c 11.48 -6.33 25.08 -2.47 33.06 9.38 c 4.32 6.43 5.97 7.07 18.03 7.07 c 13 0 14.99 -1.2 19.01 -11.43 c 0.47 -1.2 1.13 -2.8 1.46 -3.57 c 0.34 -0.77 0.75 -1.76 0.93 -2.2 l 0.93 -2.2 c 5.05 -11.6 4.78 -16.14 -1.57 -26.05 l -4.28 -6.7 l -2.32 -3.65 l -2.68 0.05 c -1.47 0.03 -3.67 0.22 -4.88 0.42 m 86.6 11.4 c -2.19 1.91 -5.55 4.8 -9.84 8.47 c -5.72 4.89 -6.92 6.91 -5.94 9.96 c 1.56 4.81 5.4 6.37 10.49 4.27 c 5.1 -2.1 6.02 -2.31 9.73 -2.31 c 17.4 0 23.9 22.22 9.36 32.03 a 61 61 0 0 1 -3.3 2.06 l -2.89 1.64 A 1026.2 1026.2 0 0 1 251.6 92.1 c -0.77 0.43 -1.58 0.93 -1.8 1.1 c -0.22 0.17 -1.08 0.7 -1.9 1.16 c -11.53 6.47 -15.23 9.08 -17.39 12.24 c -1.45 2.13 -2.51 4.2 -2.51 4.93 c 0 0.4 -0.22 0.92 -0.48 1.19 c -0.99 0.98 -0.65 12.78 0.42 14.97 c 4 8.1 13.9 10.19 20.58 4.33 c 1.6 -1.42 3.88 -5.72 3.88 -7.36 c 0 -6.03 4.47 -12.1 10.54 -14.31 c 3.33 -1.22 53.31 -1.15 57.05 0.08 c 17.84 5.86 16.84 31.04 -1.42 35.8 c -5.14 1.33 -9.77 -0.64 -9.77 -4.17 c 0 -0.47 -0.16 -0.86 -0.35 -0.86 c -0.6 0 0.02 2.16 1.02 3.5 c 3.44 4.62 13.11 2.6 19.2 -4 c 9 -9.77 4.68 -26.13 -8.1 -30.64 c -2.57 -0.91 -55.49 -1.39 -57.27 -0.52 l -2.63 1.27 c -4.46 2.16 -7.81 7.03 -8.67 12.59 c -1.7 11.02 -14 15.4 -21.22 7.54 c -6 -6.55 -3.95 -21.95 3.71 -27.73 c 1.65 -1.24 9.86 -6.36 10.84 -6.76 c 0.21 -0.09 1.8 -1.03 3.55 -2.1 a 39.95 39.95 0 0 1 3.38 -1.95 c 0.1 0 0.98 -0.54 1.94 -1.2 c 0.96 -0.66 1.86 -1.2 2 -1.2 c 0.14 0 1.04 -0.54 2 -1.2 c 0.96 -0.66 1.83 -1.2 1.94 -1.2 c 0.11 0 2.76 -1.53 5.88 -3.4 c 3.13 -1.87 5.76 -3.4 5.86 -3.4 c 0.1 0 0.96 -0.54 1.92 -1.2 c 0.96 -0.66 1.86 -1.2 2 -1.2 c 1.4 0 6.57 -4.94 8.16 -7.78 c 7.8 -13.97 -6.86 -31.57 -21.46 -25.78 a 85.6 85.6 0 0 0 -5.8 2.4 c -3.42 1.75 -8.1 -1.73 -8.1 -6.03 c 0 -3 0.38 -3.5 6.9 -9.06 c 3.02 -2.59 5.59 -4.81 5.7 -4.93 c 1.5 -1.7 4.45 -3.6 5.08 -3.29 c 0.4 0.21 1.17 0.55 1.72 0.77 c 2.08 0.82 3.21 1.28 6.1 2.47 c 3.32 1.38 17.1 8.34 19.9 10.06 a 98.23 98.23 0 0 0 4.3 2.53 c 0.49 0.24 0.9 0.58 0.9 0.74 c 0 0.16 0.19 0.3 0.42 0.3 c 0.4 0 7.58 4.67 7.98 5.2 c 0.11 0.14 1.03 0.82 2.05 1.51 c 1.87 1.27 11.58 8.8 11.95 9.26 c 0.11 0.14 1.36 1.24 2.79 2.44 c 2.95 2.5 12.08 11.63 15.75 15.76 l 2.86 3.2 c 0.33 0.35 2.2 2.62 4.32 5.23 c 0.18 0.22 1.6 2.11 3.13 4.2 c 1.55 2.09 3.02 4.07 3.28 4.4 c 1.5 1.94 4.67 6.8 4.67 7.17 c 0 0.23 0.18 0.43 0.4 0.43 c 0.22 0 0.4 0.26 0.4 0.57 c 0 0.3 0.13 0.62 0.3 0.7 c 0.38 0.16 1.68 2.3 1.97 3.23 c 0.12 0.39 0.38 0.7 0.58 0.7 c 0.2 0 0.35 0.16 0.35 0.35 c 0 0.2 1.13 2.4 2.5 4.9 a 162.5 162.5 0 0 1 3.36 6.35 c 2.95 6.27 4.25 9.1 4.52 9.8 c 0.17 0.44 0.7 1.58 1.16 2.54 c 0.47 0.95 0.86 2 0.86 2.3 c 0 0.31 0.16 0.88 0.35 1.27 c 0.2 0.38 0.58 1.23 0.85 1.89 c 0.27 0.66 0.65 1.51 0.85 1.9 c 0.2 0.38 0.35 1.04 0.35 1.47 c 0 0.43 0.18 0.9 0.4 1.03 c 0.22 0.14 0.4 0.6 0.4 1.03 c 0 0.43 0.16 1.1 0.36 1.47 c 0.2 0.39 0.76 2.05 1.25 3.7 c 0.49 1.65 0.99 3.27 1.1 3.6 c 0.5 1.34 2.5 10.12 3.52 15.4 c 0.34 1.76 0.78 3.92 0.99 4.8 c 0.36 1.56 0.32 1.64 -1.33 3.11 c -2.38 2.13 -6.13 4.69 -6.87 4.69 c -0.34 0 -0.62 0.16 -0.62 0.36 c 0 1.23 -17.98 1.16 -19.9 -0.08 c -1.35 -0.88 -5.65 1.36 -6.65 3.47 c -1.12 2.37 -0.9 3.7 2.6 16.05 l 0.86 3 c 0.21 0.77 0.55 1.81 0.74 2.32 c 0.2 0.5 0.35 1.35 0.35 1.88 c 0 0.52 0.16 1.05 0.36 1.17 c 0.9 0.56 1.68 13.15 0.86 13.97 c -0.23 0.23 -0.42 0.84 -0.42 1.34 c 0 0.51 -0.16 1.24 -0.36 1.63 a 96.57 96.57 0 0 1 -4.08 7.9 a 1010.85 1010.85 0 0 0 -6.52 11.59 c -0.46 0.88 -0.93 1.69 -1.04 1.8 c -0.24 0.24 -2 3.44 -2.58 4.7 c -0.23 0.49 -0.56 0.9 -0.72 0.9 c -0.16 0 -0.3 0.17 -0.3 0.38 c 0 0.2 -0.6 1.42 -1.35 2.7 c -0.74 1.28 -1.8 3.13 -2.34 4.12 l -3.4 6 c -3.4 6 -4.52 7.98 -5.47 9.8 c -0.46 0.88 -0.93 1.69 -1.04 1.8 c -0.25 0.25 -1.1 1.73 -2.17 3.8 c -0.46 0.88 -0.92 1.69 -1.03 1.8 c -0.11 0.11 -0.44 0.63 -0.74 1.15 a 1178.93 1178.93 0 0 1 -3.18 5.65 c -0.55 0.99 -1.71 3.06 -2.59 4.6 c -2.6 4.59 -3.13 5.52 -4.03 7.2 a 16.7 16.7 0 0 1 -1.06 1.8 c -0.11 0.11 -0.47 0.74 -0.8 1.4 a 9.75 9.75 0 0 1 -0.8 1.4 c -0.18 0.18 -1.22 2.08 -2.73 4.98 c -0.9 1.72 -3.92 4.62 -4.84 4.62 c -0.43 0 -0.9 0.18 -1.03 0.4 c -0.14 0.22 -1.22 0.4 -2.4 0.4 s -2.26 -0.18 -2.4 -0.4 c -0.14 -0.22 -0.57 -0.4 -0.97 -0.4 c -0.79 0 -3.88 -2.81 -4.83 -4.4 c -0.52 -0.86 -0.63 -6.16 -0.8 -38.8 c -0.15 -27.51 -0.33 -38.07 -0.67 -38.8 c -0.26 -0.55 -0.57 -1.34 -0.7 -1.76 c -0.14 -0.41 -0.33 -0.68 -0.43 -0.58 c -0.1 0.1 0.13 1.16 0.5 2.36 c 0.58 1.94 0.68 6.36 0.88 39.58 l 0.22 37.4 l 1.3 1.87 c 4.77 6.88 13.22 5.58 17.55 -2.69 c 0.68 -1.3 2.68 -4.9 4.43 -7.98 c 1.76 -3.08 3.65 -6.41 4.2 -7.4 c 0.93 -1.67 1.35 -2.4 3.52 -6.2 a 5170.98 5170.98 0 0 1 10.2 -18 l 6.69 -11.8 c 0.55 -0.99 1.93 -3.39 3.06 -5.33 a 54.63 54.63 0 0 0 2.05 -3.7 c 0 -0.1 0.78 -1.49 1.74 -3.08 c 1.53 -2.54 2.77 -4.73 7.56 -13.29 c 4.62 -8.24 6.37 -17.14 4.42 -22.43 c -0.23 -0.64 -0.65 -1.98 -0.92 -2.97 c -0.27 -0.99 -0.63 -2.25 -0.8 -2.8 c -0.31 -1.02 -0.55 -1.89 -2 -7.2 l -1.25 -4.6 c -0.25 -0.88 -0.63 -2.1 -0.85 -2.72 c -2.57 -7 1.47 -9.75 12.14 -8.27 c 10.1 1.4 14.63 0.24 21.46 -5.5 c 2.26 -1.9 2.4 -2.38 1.73 -5.43 c -0.2 -0.93 -0.6 -2.85 -0.86 -4.28 c -1.63 -8.89 -6.89 -26.72 -9.22 -31.3 c -0.2 -0.38 -0.35 -0.87 -0.35 -1.09 c 0 -0.21 -0.54 -1.57 -1.2 -3.01 a 27.02 27.02 0 0 1 -1.2 -2.87 c 0 -1.69 -10.84 -21.44 -15.94 -29.04 c -19.91 -29.68 -51.54 -56.18 -81.66 -68.43 c -0.99 -0.4 -2.34 -0.97 -3 -1.26 c -6.53 -2.86 -6.81 -2.91 -8.4 -1.53 M 40.4 89.12 c 0 0.21 0.27 0.6 0.6 0.87 c 2.26 1.88 2.34 5.06 0.2 8.36 a 27.14 27.14 0 0 0 -1.6 2.66 c 0 0.1 -0.6 1.12 -1.34 2.28 c -1.4 2.21 -3.16 5.33 -5.2 9.22 l -1.2 2.3 l 0.49 3.3 l 0.84 5.69 c 0.2 1.32 0.56 3.84 0.8 5.6 c 0.25 1.76 0.62 4.19 0.82 5.4 c 0.2 1.21 0.85 5.62 1.42 9.8 c 0.58 4.18 1.12 7.68 1.21 7.77 c 0.3 0.32 0.16 -3.13 -0.22 -5.04 c -0.21 -1.06 -0.57 -3.19 -0.8 -4.73 c -0.4 -2.69 -0.64 -4.47 -2.43 -17.4 c -0.44 -3.19 -0.98 -6.82 -1.2 -8.06 c -0.44 -2.38 0.36 -4.42 3.88 -10.03 c 0.5 -0.82 0.93 -1.57 0.93 -1.67 c 0 -0.1 0.92 -1.68 2.05 -3.51 c 1.13 -1.83 2.4 -3.92 2.8 -4.64 c 1.05 -1.84 0.98 -4.63 -0.14 -6.23 c -1.15 -1.64 -1.91 -2.41 -1.91 -1.94 m 254.33 53.48 c -1.73 4.27 -1.39 4.2 -21.74 4.2 c -16.84 0 -18.1 0.07 -22.79 1.3 c -10.43 2.73 -19.4 12.11 -22.48 23.5 c -0.71 2.66 -0.83 13.07 -0.16 14.33 c 0.24 0.45 0.44 1.27 0.44 1.82 s 0.18 1.11 0.4 1.25 c 0.22 0.14 0.4 0.5 0.4 0.83 c 0 4.06 12.26 18.17 15.79 18.17 c 0.12 0 0.98 0.34 1.91 0.75 c 4.53 2.01 6.74 2.41 15.7 2.84 c 13.02 0.62 19.06 3.92 24.2 13.25 c 0.65 1.19 1.19 1.88 1.2 1.53 c 0.04 -4.01 -9.4 -12.55 -15.8 -14.28 l -3.25 -0.86 c -0.9 -0.24 -4.36 -0.43 -7.7 -0.43 c -5.6 0 -8.84 -0.38 -10.55 -1.25 a 3.5 3.5 0 0 0 -1.3 -0.35 c -0.34 0 -0.92 -0.16 -1.3 -0.35 l -2.3 -1.13 a 25.46 25.46 0 0 1 -3.8 -2.12 c -0.11 -0.11 -0.83 -0.68 -1.6 -1.25 a 30.94 30.94 0 0 1 -9.14 -11.08 c -1.42 -2.88 -1.75 -3.8 -2.83 -7.92 c -0.53 -2.02 -0.57 -10.64 -0.06 -12.32 l 0.88 -3.03 c 2.58 -9.26 10.13 -17.29 19.47 -20.69 c 5.07 -1.84 8.18 -2.1 26.19 -2.1 c 16.64 -0.01 16.7 -0.01 18.08 -0.91 c 1.53 -1 3.14 -3.54 2.93 -4.6 c -0.1 -0.47 -0.36 -0.16 -0.8 0.9 M 68.8 224.65 c -0.35 0.1 -1.33 2.15 -2.32 4.86 a 536.72 536.72 0 0 1 -3.67 9.89 c -0.75 1.87 -3.24 8.82 -3.94 11.03 c -2.12 6.61 1.55 15.46 8.62 20.8 c 1.27 0.96 2.97 2.3 3.76 2.96 c 0.79 0.66 1.78 1.48 2.2 1.81 c 8.77 6.84 11.28 10.15 16.57 21.8 c 1.31 2.9 2.86 6.25 4.79 10.4 c 1.55 3.33 3.3 7.13 4.71 10.2 a 5496.7 5496.7 0 0 0 14.45 31.3 l 2.16 4.7 c 0.55 1.21 1.88 4.09 2.96 6.4 c 1.09 2.31 2.67 5.73 3.53 7.6 c 1.92 4.23 3.66 6 5.87 6 c 0.18 0 1.1 0.34 2.02 0.75 c 8.37 3.7 8.22 3.82 5.95 -4.95 c -0.38 -1.46 -0.77 -3.14 -2.61 -11 c -0.34 -1.43 -1.23 -5.21 -2 -8.4 c -2.63 -11.11 -2.75 -11.95 -2.53 -19.38 c 0.33 -11.75 0.8 -13.01 15.29 -40.82 c 11.16 -21.44 11.26 -21.7 9.57 -26.6 c -1.92 -5.53 -3.93 -7.05 -14.65 -11.03 c -16.33 -6.06 -20.72 -10.5 -20.72 -21 c 0 -3.13 -1.22 -5.29 -3.8 -6.7 c -1.14 -0.64 -44.17 -1.21 -46.2 -0.62 m 47.34 2.27 c 1.77 1.77 2.26 3.05 2.26 5.91 c 0 8.84 5.06 14.77 16 18.76 c 2.53 0.92 4.96 1.82 5.4 2 c 0.44 0.18 1.88 0.73 3.2 1.22 c 7.17 2.64 9.62 5 10.88 10.48 c 0.84 3.6 0.23 5.77 -3.79 13.51 c -12.7 24.51 -17.89 34.82 -18.49 36.8 c -0.3 0.99 -0.67 1.98 -0.82 2.2 c -0.16 0.22 -0.38 0.94 -0.5 1.6 c -0.11 0.66 -0.5 2.46 -0.87 4 c -0.47 2 -0.65 4.71 -0.66 9.55 c 0 6.12 0.17 7.72 1.26 12.25 c 0.19 0.77 0.54 2.3 0.79 3.4 s 0.61 2.63 0.81 3.4 c 0.2 0.77 0.74 3.11 1.2 5.2 c 2.1 9.7 3.22 14.4 4.02 17.03 c 0.4 1.33 0.5 2.97 0.16 2.97 a 4.3 4.3 0 0 1 -1 -0.4 l -1.59 -0.8 a 4.26 4.26 0 0 0 -1.6 -0.4 c -0.44 0 -0.8 -0.18 -0.8 -0.4 c 0 -0.22 -0.27 -0.4 -0.6 -0.4 a 3.5 3.5 0 0 1 -1.3 -0.35 c -0.39 -0.2 -1.24 -0.58 -1.9 -0.85 c -2.06 -0.85 -3.19 -1.53 -3.46 -2.07 l -1.08 -2.33 c -0.45 -0.99 -2.72 -5.82 -5.04 -10.73 s -4.22 -9 -4.22 -9.08 c 0 -0.08 -0.91 -2.09 -2.03 -4.47 c -2.18 -4.66 -3.2 -6.86 -5.08 -10.92 l -2.6 -5.6 l -4.6 -10 c -1.75 -3.85 -3.86 -8.44 -4.68 -10.2 c -2.81 -6.03 -3.72 -8 -4.72 -10.2 c -4.91 -10.85 -8.08 -15.45 -13.49 -19.62 a 37.74 37.74 0 0 1 -2 -1.6 c -0.11 -0.12 -2.47 -2.04 -5.24 -4.27 c -6.52 -5.24 -8.25 -7.3 -9.96 -11.91 c -1.49 -4.03 -1.47 -8.9 0.05 -11.9 c 0.2 -0.38 0.35 -0.96 0.35 -1.3 c 0 -0.34 0.16 -0.92 0.35 -1.3 c 0.48 -0.94 1.07 -2.4 1.65 -4.1 c 0.48 -1.38 0.84 -2.34 1.57 -4.1 c 0.21 -0.5 1.34 -3.55 2.5 -6.8 l 2.13 -5.9 h 45.82 l 1.72 1.72" stroke-linecap="round"/>
</g>
		<g transform="matrix(1 0 0 1 -0.0606 -0.1607)">
<path style="stroke: none; stroke-width: 1; stroke-dasharray: none; stroke-linecap: butt; stroke-dashoffset: 0; stroke-linejoin: miter; stroke-miterlimit: 4; is-custom-font: none; font-file-url: none; fill: rgb(4,133,218); fill-rule: evenodd; opacity: 1;" transform=" translate(-199.9394, -199.8394)" d="M 198.8 12.24 c 0 0.13 0.98 1.74 2.17 3.57 c 3.6 5.51 5.36 9.3 6.62 14.19 c 0.75 2.95 0.1 15.24 -0.83 15.83 c -0.2 0.12 -0.36 0.57 -0.36 1 c 0 0.43 -0.18 1.1 -0.4 1.48 c -0.22 0.38 -1.76 4.02 -3.42 8.09 c -3.87 9.47 -4.35 10.5 -6.17 13.18 c -3.33 4.88 -7.96 8.12 -14.41 10.07 c -3.3 1 -21.16 0.76 -24.42 -0.33 c -2.84 -0.95 -6.45 -2.74 -7.99 -3.96 c -2.27 -1.8 -5.99 -5.87 -5.99 -6.56 a 0.4 0.4 0 0 0 -0.4 -0.4 a 0.4 0.4 0 0 1 -0.4 -0.4 c 0 -1.05 -3.86 -5.05 -5.71 -5.91 c -4.09 -1.92 -7.98 -1.9 -11.82 0.02 c -1.72 0.86 -7.43 3.98 -7.87 4.29 c -0.4 0.28 -6.14 3.38 -9.2 4.97 c -0.88 0.46 -1.69 0.92 -1.8 1.03 c -0.11 0.11 -1.01 0.63 -2 1.15 c -4.26 2.26 -4.98 2.7 -5.98 3.7 a 5.73 5.73 0 0 0 1.93 9.39 c 2.02 0.84 2.7 0.72 7.05 -1.27 c 14 -6.4 15.68 -6.72 23 -4.3 c 4.05 1.35 12 9.37 12 12.11 c 0 0.23 0.18 0.42 0.4 0.42 c 0.22 0 0.4 0.19 0.4 0.42 c 0 0.23 0.87 1.71 1.94 3.3 c 8 11.91 10.11 16.62 9.53 21.34 c -1.29 10.51 -5.2 14.37 -19.2 18.96 c -4 1.31 -7.58 2.57 -7.97 2.78 c -0.38 0.22 -1.04 0.4 -1.47 0.4 c -0.43 0 -0.9 0.18 -1.03 0.4 c -0.14 0.22 -0.68 0.4 -1.2 0.4 c -0.52 0 -1.06 0.18 -1.2 0.4 c -0.14 0.22 -0.68 0.4 -1.2 0.4 c -0.52 0 -1.06 0.18 -1.2 0.4 c -0.14 0.22 -0.68 0.4 -1.2 0.4 c -0.52 0 -1.06 0.18 -1.2 0.4 c -0.14 0.22 -0.6 0.4 -1.03 0.4 c -0.43 0 -1.1 0.16 -1.47 0.36 c -0.39 0.2 -1.6 0.78 -2.7 1.3 c -5 2.36 -9.04 7.56 -10.2 13.14 c -3.16 15.08 -4.52 19.21 -7.25 21.91 c -5.51 5.46 -13.54 5.16 -19.95 -0.73 c -3.27 -3 -5.45 -3.75 -7.88 -2.7 c -1.19 0.53 -12.36 7.52 -17.2 10.78 a 20.8 20.8 0 0 1 -3.24 1.94 c -0.2 0 -0.68 0.36 -1.08 0.8 c -0.4 0.44 -0.97 0.8 -1.26 0.8 c -0.62 0 -0.75 2.4 -0.18 3.5 l 1.28 2.64 c 0.51 1.07 1.87 2.9 3.02 4.07 c 2.04 2.07 3.69 3.17 10.59 7.05 c 0.52 0.3 1.04 0.63 1.15 0.74 c 0.11 0.11 0.74 0.47 1.4 0.79 c 0.66 0.32 1.74 0.95 2.4 1.4 c 1.17 0.79 1.89 0.82 26.8 1.02 l 25.6 0.2 l 2.2 0.97 c 7.36 3.24 12 10.03 12 17.6 c 0 4.05 3.34 8.02 6.76 8.02 c 0.29 0 1.65 0.5 5.44 2 c 0.44 0.18 1.43 0.54 2.2 0.8 a 63.17 63.17 0 0 1 4.1 1.55 c 9.92 3.85 15.58 10.73 17.13 20.83 c 1.06 6.89 0.3 8.95 -11.92 32.42 c -7.08 13.6 -11.31 22.13 -11.31 22.81 c 0 0.41 -0.16 0.84 -0.35 0.96 c -0.2 0.12 -0.47 0.8 -0.62 1.52 l -0.72 3.51 a 46.03 46.03 0 0 0 -0.46 7 c 0 4.5 0.25 6.56 1.35 11 l 0.8 3.4 c 0.33 1.5 0.62 2.69 1.6 6.6 c 0.7 2.79 1.2 4.96 1.46 6.31 c 0.14 0.72 0.4 1.4 0.6 1.52 c 0.18 0.12 0.34 0.83 0.34 1.57 c 0 0.74 0.16 1.45 0.36 1.57 c 0.2 0.13 0.45 0.9 0.56 1.73 c 0.12 0.82 0.4 2.22 0.63 3.1 c 0.22 0.88 0.62 2.5 0.87 3.6 l 0.84 3.6 c 0.21 0.88 0.51 2.23 0.67 3 c 0.3 1.5 1.75 2.1 7.67 3.22 c 1.21 0.23 3.01 0.58 4 0.8 c 26.82 5.68 58.98 4.69 86.2 -2.65 c 5.03 -1.36 9.07 -2.59 9.9 -3.01 c 0.38 -0.2 1.04 -0.36 1.47 -0.36 c 0.43 0 0.9 -0.18 1.03 -0.4 c 0.14 -0.22 0.6 -0.4 1.03 -0.4 c 0.43 0 1.1 -0.16 1.47 -0.35 c 0.39 -0.2 1.15 -0.53 1.7 -0.75 a 169.8 169.8 0 0 0 4.2 -1.7 a 51.26 51.26 0 0 0 3.9 -1.65 c 0.38 -0.2 0.96 -0.35 1.3 -0.35 c 0.33 0 0.6 -0.18 0.6 -0.4 c 0 -0.22 0.24 -0.4 0.53 -0.4 c 0.77 0 18.38 -8.86 19.07 -9.59 a 15.4 15.4 0 0 1 3.3 -1.88 c 0.38 -0.12 0.7 -0.38 0.7 -0.58 c 0 -0.2 0.27 -0.35 0.6 -0.35 c 0.33 0 0.6 -0.18 0.6 -0.4 c 0 -0.22 0.27 -0.4 0.6 -0.4 c 0.33 0 0.6 -0.18 0.6 -0.4 c 0 -0.22 0.27 -0.4 0.6 -0.4 c 0.33 0 0.6 -0.18 0.6 -0.4 c 0 -0.22 0.2 -0.4 0.43 -0.4 c 0.42 0 2.45 -1.4 8.72 -6.06 a 182.81 182.81 0 0 0 27.6 -25.13 c 1.46 -1.64 3.01 -3.38 3.45 -3.85 c 0.9 -0.96 1.38 -1.56 3.4 -4.14 c 0.77 -0.99 2.16 -2.74 3.09 -3.9 a 99.46 99.46 0 0 0 3.78 -5.22 a 50.88 50.88 0 0 1 2.8 -3.88 c 0.4 -0.42 0.73 -1 0.73 -1.3 c 0 -0.28 0.18 -0.52 0.4 -0.52 c 0.22 0 0.4 -0.27 0.4 -0.6 c 0 -0.33 0.18 -0.6 0.4 -0.6 c 0.22 0 0.4 -0.27 0.4 -0.6 c 0 -0.33 0.18 -0.6 0.4 -0.6 c 0.22 0 0.4 -0.27 0.4 -0.6 c 0 -0.33 0.16 -0.6 0.35 -0.6 c 0.2 0 0.46 -0.31 0.58 -0.7 a 15.4 15.4 0 0 1 1.88 -3.3 c 0.73 -0.69 9.59 -18.3 9.59 -19.07 c 0 -0.3 0.18 -0.53 0.4 -0.53 c 0.22 0 0.4 -0.27 0.4 -0.6 c 0 -0.34 0.16 -0.92 0.35 -1.3 c 0.2 -0.39 0.53 -1.15 0.75 -1.7 l 0.9 -2.2 c 0.28 -0.66 0.64 -1.56 0.8 -2 a 47.7 47.7 0 0 1 1.65 -3.9 c 0.2 -0.38 0.35 -1.04 0.35 -1.47 c 0 -0.43 0.18 -0.9 0.4 -1.03 c 0.22 -0.14 0.4 -0.6 0.4 -1.03 c 0 -0.43 0.16 -1.1 0.36 -1.48 c 2.57 -4.98 7.22 -27.36 8.62 -41.49 c 1.02 -10.33 1.04 -30.36 0.03 -31.7 c -0.04 -0.05 -1.32 0.54 -2.84 1.31 c -5.84 2.96 -14.44 4.46 -18.71 3.27 c -1.27 -0.35 -1.35 0.7 -0.32 4.12 a 227.04 227.04 0 0 1 1.69 5.9 c 2.02 7.11 2.57 16.96 1.19 21.3 c -0.25 0.77 -0.63 2.03 -0.86 2.8 c -0.23 0.77 -0.56 1.76 -0.73 2.2 c -0.68 1.7 -4.44 9 -4.83 9.4 c -0.4 0.4 -1.65 2.62 -1.87 3.3 c -0.12 0.38 -0.38 0.7 -0.58 0.7 c -0.2 0 -0.35 0.36 -0.35 0.8 c 0 0.44 -0.16 0.8 -0.35 0.8 c -0.2 0 -0.46 0.31 -0.59 0.7 c -0.12 0.38 -0.7 1.51 -1.28 2.5 a 141.37 141.37 0 0 0 -4.58 8.28 c 0 0.1 -0.36 0.7 -0.8 1.33 c -0.45 0.62 -1.32 2.09 -1.94 3.26 c -1.4 2.68 -2.2 4.07 -2.46 4.33 c -0.11 0.11 -0.57 0.92 -1.03 1.8 a 30 30 0 0 1 -2.17 3.8 c -0.11 0.11 -0.47 0.74 -0.8 1.4 a 9.62 9.62 0 0 1 -0.8 1.4 c -0.11 0.11 -0.47 0.74 -0.79 1.4 c -0.32 0.66 -1.27 2.34 -2.1 3.74 c -0.83 1.4 -1.51 2.6 -1.51 2.67 c 0 0.07 -0.99 1.87 -2.2 4 a 37.35 37.35 0 0 0 -2.2 4.24 c 0 0.2 -0.13 0.35 -0.3 0.35 c -0.16 0 -0.49 0.41 -0.72 0.9 a 49.52 49.52 0 0 1 -2.58 4.7 c -0.11 0.11 -0.57 0.92 -1.03 1.8 a 30 30 0 0 1 -2.17 3.8 c -0.11 0.11 -0.46 0.74 -0.79 1.4 c -0.32 0.66 -0.9 1.68 -1.3 2.27 c -0.4 0.59 -1.23 2.03 -1.85 3.2 c -4.65 8.72 -6.5 11.57 -9.23 14.18 c -2.03 1.94 -6.38 4.55 -7.58 4.55 c -0.38 0 -0.86 0.15 -1.07 0.33 c -0.77 0.68 -6.72 1.35 -7.9 0.9 a 7.66 7.66 0 0 0 -2.29 -0.43 c -4.95 0 -13.14 -6.48 -15.16 -12 c -0.28 -0.77 -0.66 -1.76 -0.84 -2.2 a 19.1 19.1 0 0 1 -0.64 -2 c -0.17 -0.66 -0.36 -17.76 -0.43 -38 c -0.06 -20.24 -0.27 -37.16 -0.47 -37.6 c -1.98 -4.5 -3.6 -6.5 -6.33 -7.77 a 73.6 73.6 0 0 1 -1.81 -0.88 c -0.39 -0.2 -2.36 -0.35 -4.39 -0.35 c -18.3 0 -31.8 -6.19 -41 -18.8 c -12.42 -17 -10.59 -41.33 4.24 -56.36 c 1.87 -1.9 2.62 -2.91 2.3 -3.13 c -0.25 -0.19 -1.26 -0.76 -2.23 -1.29 a 24.3 24.3 0 0 1 -10.74 -12.13 c -3.07 -7.61 -2.6 -19.22 1.12 -27.24 c 1.48 -3.2 5.53 -8.67 7.52 -10.15 c 0.81 -0.6 1.56 -1.2 1.67 -1.33 c 0.3 -0.34 5.13 -3.57 5.35 -3.57 c 0.1 0 1.77 -0.96 3.72 -2.13 A 1223.04 1223.04 0 0 1 249 79.89 c 0.66 -0.39 1.51 -0.82 1.9 -0.95 c 0.38 -0.13 0.7 -0.37 0.7 -0.54 c 0 -0.17 0.31 -0.41 0.7 -0.54 c 0.38 -0.12 1.6 -0.78 2.7 -1.46 c 1.1 -0.68 2.31 -1.34 2.7 -1.46 c 0.38 -0.13 0.7 -0.37 0.7 -0.54 c 0 -0.17 0.31 -0.4 0.7 -0.53 c 0.69 -0.22 2.9 -1.47 3.3 -1.87 c 0.11 -0.11 0.65 -0.46 1.2 -0.77 l 3.2 -1.83 c 6.76 -3.85 8.14 -5.85 6.6 -9.53 c -1.18 -2.83 -5.13 -4.43 -7.7 -3.12 c -0.77 0.4 -2.67 1.2 -3.9 1.65 l -1.92 0.75 c -7.22 2.9 -18.53 -2.29 -22.14 -10.16 c -4.33 -9.47 -1.57 -16.79 9.98 -26.51 c 3.82 -3.21 4 -3.5 2.38 -3.8 c -0.6 -0.1 -3.08 -0.67 -5.5 -1.25 a 202.03 202.03 0 0 0 -33.4 -5.03 c -6 -0.45 -12.4 -0.53 -12.4 -0.16 m 66.84 110.12 c -0.81 0.76 -1.25 1.55 -1.25 2.3 c -0.03 2.21 -1.84 8.27 -2.88 9.62 c -0.29 0.37 3.07 0.5 14.56 0.6 c 13.06 0.1 15.08 0.2 16.13 0.79 c 1.79 1 3.4 3.24 3.4 4.74 c 0 0.79 0.2 0.8 6.3 0.7 l 6.3 -0.11 l 0.12 -1.22 c 0.23 -2.32 2.71 -4.35 5.88 -4.8 c 7.09 -1 9.29 -8.93 3.5 -12.6 l -1.86 -1.18 h -48.96 l -1.24 1.16 M 22.85 137.31 a 4.08 4.08 0 0 1 -0.43 1.4 c -0.9 1.62 -3.29 9.75 -4.98 16.89 c -7.42 31.35 -7.07 63.4 1.02 93.2 l 1.13 4.2 c 0.65 2.4 1.7 5.62 2.05 6.3 c 0.2 0.38 0.36 1.04 0.36 1.47 c 0 0.43 0.18 0.9 0.4 1.03 c 0.22 0.14 0.4 0.6 0.4 1.03 c 0 0.43 0.16 1.1 0.35 1.48 c 0.2 0.38 0.53 1.14 0.75 1.69 l 0.9 2.2 a 88.15 88.15 0 0 1 1.55 3.9 c 1.39 3.58 7.46 16.01 9.78 20.04 c 1.25 2.16 2.27 4 2.27 4.1 c 0 0.11 0.18 0.41 0.4 0.68 c 0.2 0.26 2.37 3.5 4.8 7.18 c 2.43 3.69 5.18 7.64 6.11 8.8 c 0.93 1.16 2.44 3.1 3.36 4.3 c 0.92 1.21 2 2.56 2.4 3 c 0.4 0.44 1.73 1.96 2.93 3.39 a 324.67 324.67 0 0 0 16.4 16.64 c 6.5 5.66 9.8 8.29 14.4 11.44 a 22.75 22.75 0 0 1 3.13 2.4 c 0.08 0.18 0.35 0.33 0.6 0.33 c 0.26 0 1.1 0.54 1.87 1.2 c 0.77 0.66 1.63 1.2 1.9 1.2 s 0.5 0.18 0.5 0.4 c 0 0.22 0.27 0.4 0.6 0.4 c 0.33 0 0.6 0.18 0.6 0.4 c 0 0.22 0.27 0.4 0.6 0.4 c 0.33 0 0.6 0.18 0.6 0.4 c 0 0.22 0.2 0.4 0.43 0.4 c 0.23 0 1.21 0.54 2.17 1.2 c 0.96 0.66 1.86 1.2 2.01 1.2 c 0.15 0 0.79 0.37 1.43 0.83 c 1.45 1.03 1.46 0.62 0.04 -2.09 a 48.1 48.1 0 0 1 -1.67 -3.54 a 211.3 211.3 0 0 0 -3.9 -8.8 l -1.99 -4.4 c -0.6 -1.36 -1.59 -3.5 -4.72 -10.2 a 4531.66 4531.66 0 0 1 -8.79 -19 a 852.14 852.14 0 0 0 -5.46 -11.9 c -5.13 -11.11 -5 -10.97 -19.34 -22.25 c -5.9 -4.64 -10.07 -10.4 -11.75 -16.25 c -0.28 -0.99 -0.68 -2.35 -0.89 -3.03 c -0.57 -1.9 -0.45 -10.63 0.19 -13.05 c 0.75 -2.88 2.66 -8.28 7.04 -19.92 c 1.4 -3.72 2.19 -6.36 1.95 -6.55 c -0.08 -0.06 -2.31 -1.34 -4.95 -2.84 c -13.38 -7.6 -18.48 -14.25 -20.25 -26.41 l -0.76 -5.2 l -0.78 -5.3 c -0.22 -1.6 -0.6 -4.2 -0.84 -5.8 c -0.24 -1.6 -0.59 -3.98 -0.77 -5.3 c -1.08 -7.59 -1.28 -9 -1.6 -11 c -0.32 -2 -0.62 -4.1 -1.6 -11 c -1.15 -8.2 -1.87 -12.37 -1.95 -11.3" stroke-linecap="round"/>
</g>
		<g transform="matrix(1 0 0 1 -0.0583 -0.0593)">
<path style="stroke: none; stroke-width: 1; stroke-dasharray: none; stroke-linecap: butt; stroke-dashoffset: 0; stroke-linejoin: miter; stroke-miterlimit: 4; is-custom-font: none; font-file-url: none; fill: rgb(4,80,135); fill-rule: evenodd; opacity: 1;" transform=" translate(-199.9417, -199.9407)" d="M 198.3 11.85 c -0.12 0.2 1.03 2.33 2.55 4.75 c 8.39 13.3 8.9 20.8 2.53 36.49 c -4.45 10.94 -6.2 14.8 -7.37 16.28 c -6.7 8.45 -11.11 10.23 -25.46 10.23 c -15.02 0 -20.2 -2.13 -26.43 -10.85 c -5.5 -7.7 -9.85 -9.93 -16.12 -8.23 c -1.8 0.5 -2.65 0.88 -6 2.76 c -1.95 1.1 -4.61 2.55 -9 4.93 c -1.54 0.84 -4.85 2.66 -7.35 4.06 a 95.7 95.7 0 0 1 -4.7 2.53 c -0.73 0 -3.38 2.32 -4.08 3.56 c -2.28 4.06 0.81 9.24 5.52 9.24 c 1.57 0 2.37 -0.32 10.61 -4.2 c 7.83 -3.7 13.08 -4.01 18.78 -1.15 c 4.35 2.19 5.56 3.65 13.96 16.95 c 1.46 2.31 2.79 4.39 2.96 4.62 c 0.16 0.23 0.56 0.86 0.88 1.4 c 0.31 0.54 1.16 1.95 1.89 3.14 c 1.78 2.94 2.53 5.75 2.56 9.7 c 0.03 3.55 0.69 3.42 0.74 -0.14 c 0.07 -4.85 -1.68 -8.65 -9.25 -20 c -1.28 -1.92 -2.32 -3.68 -2.32 -3.9 a 0.4 0.4 0 0 0 -0.4 -0.42 a 0.41 0.41 0 0 1 -0.4 -0.42 c 0 -2.74 -7.95 -10.76 -12 -12.1 c -7.32 -2.43 -9 -2.11 -23 4.29 c -4.36 1.99 -5.03 2.11 -7.05 1.27 a 5.73 5.73 0 0 1 -1.93 -9.4 c 1 -0.98 1.72 -1.43 5.98 -3.69 c 0.99 -0.52 1.89 -1.04 2 -1.15 c 0.11 -0.11 0.92 -0.57 1.8 -1.03 c 3.06 -1.59 8.8 -4.7 9.2 -4.97 c 0.44 -0.31 6.15 -3.43 7.87 -4.3 c 3.84 -1.92 7.73 -1.93 11.82 -0.01 c 1.85 0.86 5.71 4.86 5.71 5.91 c 0 0.22 0.18 0.4 0.4 0.4 c 0.22 0 0.4 0.18 0.4 0.4 c 0 0.7 3.72 4.76 6 6.56 c 1.53 1.22 5.14 3 7.98 3.96 c 3.26 1.09 21.11 1.34 24.42 0.33 c 6.45 -1.95 11.08 -5.19 14.4 -10.07 c 1.83 -2.68 2.31 -3.7 6.18 -13.18 c 1.66 -4.07 3.2 -7.71 3.42 -8.1 c 0.22 -0.38 0.4 -1.04 0.4 -1.47 c 0 -0.43 0.16 -0.88 0.36 -1 c 0.94 -0.59 1.58 -12.88 0.83 -15.83 c -1.26 -4.9 -3.03 -8.68 -6.62 -14.19 a 36.98 36.98 0 0 1 -2.17 -3.57 c 0 -0.37 6.4 -0.29 12.4 0.16 c 12.49 0.93 22.68 2.46 33.4 5.03 c 2.42 0.58 4.9 1.15 5.5 1.26 c 1.62 0.3 1.44 0.58 -2.38 3.79 c -11.55 9.72 -14.31 17.04 -9.98 26.51 c 3.6 7.87 14.92 13.06 22.14 10.16 A 1194.93 1194.93 0 0 0 264 57.5 c 0.55 -0.22 1.31 -0.55 1.7 -0.75 c 2.57 -1.3 6.52 0.3 7.7 3.12 c 1.54 3.68 0.16 5.68 -6.6 9.53 l -3.2 1.83 c -0.55 0.31 -1.09 0.66 -1.2 0.77 c -0.4 0.4 -2.61 1.65 -3.3 1.87 c -0.39 0.12 -0.7 0.36 -0.7 0.53 c 0 0.17 -0.31 0.41 -0.7 0.54 c -0.38 0.12 -1.6 0.78 -2.7 1.46 c -1.1 0.68 -2.31 1.34 -2.7 1.46 c -0.39 0.13 -0.7 0.37 -0.7 0.54 c 0 0.17 -0.31 0.41 -0.7 0.54 c -0.39 0.13 -1.24 0.56 -1.9 0.95 l -5.2 3.08 c -2.2 1.3 -5.59 3.33 -7.53 4.5 a 50.54 50.54 0 0 1 -3.72 2.13 c -0.22 0 -5.05 3.23 -5.35 3.57 c -0.11 0.13 -0.86 0.73 -1.67 1.33 c -2 1.48 -6.04 6.94 -7.53 10.15 c -3.7 8.02 -4.18 19.63 -1.1 27.24 a 24.3 24.3 0 0 0 10.73 12.13 c 0.97 0.53 1.98 1.1 2.23 1.29 c 0.32 0.22 -0.43 1.23 -2.3 3.13 c -24.32 24.66 -11.87 65.3 22.64 73.9 c 2.37 0.59 9.9 1.26 14.12 1.26 c 2.03 0 4 0.16 4.38 0.35 c 0.39 0.2 1.2 0.6 1.82 0.88 c 2.72 1.28 4.35 3.27 6.33 7.77 c 0.2 0.44 0.41 17.36 0.47 37.6 c 0.07 20.24 0.26 37.34 0.43 38 c 0.17 0.66 0.46 1.56 0.64 2 c 0.18 0.44 0.56 1.43 0.84 2.2 c 2.02 5.52 10.21 12 15.16 12 c 0.64 0 1.67 0.2 2.28 0.43 c 1.2 0.45 7.14 -0.22 7.91 -0.9 c 0.2 -0.18 0.69 -0.33 1.07 -0.33 c 1.2 0 5.55 -2.61 7.58 -4.55 c 2.73 -2.6 4.58 -5.46 9.23 -14.18 a 47.01 47.01 0 0 1 1.85 -3.2 c 0.4 -0.59 0.98 -1.61 1.3 -2.27 c 0.32 -0.66 0.68 -1.29 0.79 -1.4 a 30 30 0 0 0 2.17 -3.8 c 0.46 -0.88 0.92 -1.69 1.03 -1.8 c 0.24 -0.24 2 -3.44 2.58 -4.7 c 0.23 -0.49 0.56 -0.9 0.72 -0.9 c 0.17 0 0.3 -0.16 0.3 -0.35 c 0 -0.2 0.99 -2.1 2.2 -4.23 a 88.27 88.27 0 0 0 2.2 -4.01 c 0 -0.07 0.68 -1.27 1.51 -2.67 s 1.78 -3.08 2.1 -3.74 c 0.32 -0.66 0.68 -1.29 0.79 -1.4 c 0.11 -0.11 0.47 -0.74 0.8 -1.4 c 0.33 -0.66 0.69 -1.29 0.8 -1.4 a 30 30 0 0 0 2.17 -3.8 c 0.46 -0.88 0.92 -1.69 1.03 -1.8 c 0.26 -0.26 1.05 -1.65 2.46 -4.33 a 36.86 36.86 0 0 1 1.94 -3.26 c 0.44 -0.63 0.8 -1.22 0.8 -1.33 c 0 -0.2 2.73 -5.14 4.58 -8.28 c 0.58 -0.99 1.16 -2.12 1.28 -2.5 c 0.13 -0.39 0.4 -0.7 0.59 -0.7 c 0.2 0 0.35 -0.36 0.35 -0.8 c 0 -0.44 0.16 -0.8 0.35 -0.8 c 0.2 0 0.46 -0.31 0.58 -0.7 c 0.22 -0.69 1.47 -2.9 1.87 -3.3 c 0.4 -0.4 4.15 -7.7 4.83 -9.4 c 0.17 -0.44 0.5 -1.43 0.73 -2.2 c 0.22 -0.77 0.61 -2.03 0.86 -2.8 c 0.67 -2.1 0.93 -10.6 0.43 -13.8 c -0.62 -3.97 -1 -5.53 -3.3 -13.3 c -1.04 -3.56 -0.97 -4.57 0.3 -4.22 c 4.28 1.2 12.88 -0.31 18.72 -3.27 c 1.52 -0.77 2.8 -1.36 2.84 -1.3 c 0.04 0.05 0.3 3.1 0.58 6.79 c 1.14 15.1 -1.48 38.92 -6.22 56.5 c -1.36 5.03 -2.59 9.07 -3.01 9.9 c -0.2 0.38 -0.36 1.04 -0.36 1.47 c 0 0.43 -0.18 0.9 -0.4 1.03 c -0.22 0.14 -0.4 0.6 -0.4 1.03 c 0 0.43 -0.16 1.1 -0.35 1.47 c -0.2 0.39 -0.56 1.2 -0.8 1.8 l -0.9 2.2 l -0.8 2 a 47.88 47.88 0 0 1 -1.6 3.8 c -0.2 0.38 -0.35 0.96 -0.35 1.3 c 0 0.33 -0.18 0.6 -0.4 0.6 c -0.22 0 -0.4 0.24 -0.4 0.53 c 0 0.77 -8.86 18.38 -9.59 19.07 a 15.4 15.4 0 0 0 -1.88 3.3 c -0.12 0.38 -0.38 0.7 -0.58 0.7 c -0.2 0 -0.35 0.27 -0.35 0.6 c 0 0.33 -0.18 0.6 -0.4 0.6 c -0.22 0 -0.4 0.27 -0.4 0.6 c 0 0.33 -0.18 0.6 -0.4 0.6 c -0.22 0 -0.4 0.27 -0.4 0.6 c 0 0.33 -0.18 0.6 -0.4 0.6 c -0.22 0 -0.4 0.24 -0.4 0.52 c 0 0.3 -0.32 0.88 -0.72 1.3 c -0.4 0.43 -1.66 2.17 -2.81 3.88 a 99.46 99.46 0 0 1 -3.78 5.21 a 569.5 569.5 0 0 0 -3.08 3.9 a 55.35 55.35 0 0 1 -3.41 4.15 c -0.44 0.47 -2 2.2 -3.45 3.85 a 182.81 182.81 0 0 1 -27.6 25.13 c -6.27 4.65 -8.3 6.06 -8.72 6.06 c -0.24 0 -0.43 0.18 -0.43 0.4 c 0 0.22 -0.27 0.4 -0.6 0.4 c -0.33 0 -0.6 0.18 -0.6 0.4 c 0 0.22 -0.27 0.4 -0.6 0.4 c -0.33 0 -0.6 0.18 -0.6 0.4 c 0 0.22 -0.27 0.4 -0.6 0.4 c -0.33 0 -0.6 0.16 -0.6 0.35 c 0 0.2 -0.31 0.46 -0.7 0.58 a 15.4 15.4 0 0 0 -3.3 1.88 c -0.69 0.73 -18.3 9.59 -19.07 9.59 c -0.3 0 -0.53 0.18 -0.53 0.4 c 0 0.22 -0.27 0.4 -0.6 0.4 c -0.34 0 -0.92 0.16 -1.3 0.35 c -0.39 0.2 -1.2 0.56 -1.8 0.8 l -2.2 0.9 c -1.21 0.5 -2.57 1.05 -4.1 1.65 c -0.55 0.22 -1.31 0.55 -1.7 0.75 c -0.38 0.2 -1.04 0.35 -1.47 0.35 c -0.43 0 -0.9 0.18 -1.03 0.4 c -0.14 0.22 -0.6 0.4 -1.03 0.4 c -0.43 0 -1.1 0.16 -1.48 0.36 c -3.3 1.7 -20.13 5.69 -30.69 7.26 c -21.68 3.23 -45.32 2.65 -65.4 -1.6 c -0.99 -0.21 -2.79 -0.57 -4 -0.8 c -5.92 -1.11 -7.37 -1.72 -7.67 -3.22 c -0.44 -2.2 -1.5 -6.75 -2.36 -10.1 c -0.24 -0.94 -0.53 -2.38 -0.65 -3.2 c -0.11 -0.83 -0.37 -1.6 -0.56 -1.73 c -0.2 -0.12 -0.36 -0.83 -0.36 -1.57 c 0 -0.74 -0.16 -1.45 -0.35 -1.57 c -0.19 -0.11 -0.45 -0.8 -0.6 -1.52 c -0.31 -1.67 -1.08 -4.9 -2.29 -9.71 c -0.22 -0.88 -0.56 -2.32 -0.76 -3.2 l -0.8 -3.4 a 37.58 37.58 0 0 1 -1.35 -11 c 0 -2.64 0.2 -5.79 0.46 -7 l 0.72 -3.5 c 0.15 -0.72 0.42 -1.4 0.62 -1.53 c 0.2 -0.12 0.35 -0.55 0.35 -0.96 c 0 -0.68 4.23 -9.2 11.31 -22.81 c 12.22 -23.47 12.98 -25.53 11.92 -32.42 c -1.75 -11.39 -7.8 -17.77 -21.23 -22.38 c -0.77 -0.26 -1.76 -0.62 -2.2 -0.8 c -3.8 -1.5 -5.15 -2 -5.44 -2 c -3.42 0 -6.76 -3.97 -6.76 -8.02 c 0 -7.57 -4.64 -14.36 -12 -17.6 l -2.2 -0.96 l -25.6 -0.21 c -24.91 -0.2 -25.63 -0.23 -26.8 -1.02 a 23.66 23.66 0 0 0 -2.4 -1.4 a 9.38 9.38 0 0 1 -1.4 -0.79 a 8.7 8.7 0 0 0 -1.16 -0.74 c -6.9 -3.88 -8.54 -4.98 -10.58 -7.05 c -1.15 -1.17 -2.5 -3 -3.02 -4.07 a 159.3 159.3 0 0 0 -1.28 -2.64 c -0.57 -1.1 -0.44 -3.5 0.18 -3.5 c 0.3 0 0.86 -0.36 1.26 -0.8 c 0.4 -0.44 0.88 -0.8 1.08 -0.8 c 0.2 0 1.65 -0.87 3.24 -1.94 c 4.84 -3.26 16.01 -10.25 17.2 -10.77 c 2.43 -1.06 4.6 -0.32 7.88 2.69 c 6.41 5.9 14.44 6.19 19.95 0.73 c 2.73 -2.7 4.1 -6.83 7.25 -21.91 c 1.16 -5.58 5.2 -10.78 10.2 -13.14 c 1.1 -0.52 2.31 -1.1 2.7 -1.3 c 0.38 -0.2 1.04 -0.36 1.47 -0.36 c 0.43 0 0.9 -0.18 1.03 -0.4 c 0.14 -0.22 0.68 -0.4 1.2 -0.4 c 0.52 0 1.06 -0.18 1.2 -0.4 c 0.14 -0.22 0.68 -0.4 1.2 -0.4 c 0.52 0 1.06 -0.18 1.2 -0.4 c 0.14 -0.22 0.68 -0.4 1.2 -0.4 c 0.52 0 1.06 -0.18 1.2 -0.4 c 0.14 -0.22 0.6 -0.4 1.03 -0.4 c 0.43 0 1.1 -0.18 1.47 -0.4 c 0.39 -0.21 3.98 -1.47 7.98 -2.78 c 8.9 -2.91 10.85 -3.88 13.72 -6.77 c 2.3 -2.32 4.82 -6.8 4.78 -8.52 c -0.01 -0.56 -0.38 0.04 -0.92 1.5 c -2.9 7.77 -4.93 9.07 -24.54 15.6 c -23.03 7.68 -24.38 8.84 -27.7 23.97 c -0.5 2.2 -1.04 4.63 -1.24 5.4 l -1 4 c -0.36 1.43 -0.75 3 -0.86 3.5 c -0.12 0.5 -0.37 0.9 -0.57 0.9 c -0.2 0 -0.35 0.26 -0.35 0.57 c 0 0.89 -3.37 4.03 -5.28 4.92 c -5.8 2.72 -10.96 1.59 -16.52 -3.61 c -3.85 -3.6 -6.35 -3.57 -12.2 0.17 a 1587.28 1587.28 0 0 0 -18.71 12.14 c -1.34 0.98 -0.98 2.66 1.64 7.61 c 0.35 0.66 1.68 2.22 2.95 3.47 c 2.22 2.18 3.99 3.3 14.32 9.17 l 2.4 1.36 l 25.2 0.21 c 23.42 0.2 25.34 0.27 27.2 0.97 a 18.95 18.95 0 0 1 9.36 7.39 a 21.63 21.63 0 0 1 3.24 11.21 c 0 3.3 1.95 5.54 6.04 6.96 c 13.91 4.82 18.34 6.9 22 10.31 c 5.05 4.7 7.29 10.02 7.33 17.35 c 0.04 6.63 -0.53 8.1 -10.81 27.8 c -13.68 26.21 -14.56 28.5 -14.56 37.72 c 0 4.4 0.59 8.07 2.4 15.08 c 0.2 0.77 0.47 1.94 0.6 2.6 c 0.13 0.66 0.4 1.88 0.62 2.7 l 0.81 3.2 l 0.79 3.1 c 0.39 1.55 2.41 10.05 3.58 15 c 1.93 8.22 1.45 7.25 3.97 7.96 c 27.81 7.8 66.36 7.6 95.63 -0.5 l 4.4 -1.2 c 4.8 -1.3 13.09 -4.18 15.3 -5.3 c 0.38 -0.2 0.87 -0.36 1.08 -0.36 c 0.22 0 1.35 -0.43 2.5 -0.95 c 1.17 -0.53 3.45 -1.54 5.08 -2.24 a 168.23 168.23 0 0 0 16.07 -8.23 l 5.9 -3.44 c 2.32 -1.33 8.67 -5.66 8.8 -6 c 0.08 -0.19 0.3 -0.34 0.5 -0.34 c 0.62 0 7.92 -5.64 14.94 -11.55 c 4.04 -3.4 14.2 -13.44 17.43 -17.23 l 3.61 -4.2 c 2.19 -2.5 4.36 -5.27 7.08 -9 c 1.37 -1.88 2.64 -3.6 2.83 -3.83 c 3.93 -4.7 13.6 -21.83 18.18 -32.19 c 0.34 -0.77 1.08 -2.44 1.66 -3.71 a 16.29 16.29 0 0 0 1.04 -2.7 c 0 -0.22 0.17 -0.71 0.38 -1.1 c 0.99 -1.77 4.4 -12.03 6.08 -18.29 c 0.24 -0.88 0.58 -2.05 0.76 -2.6 c 0.17 -0.55 0.53 -1.99 0.78 -3.2 c 0.25 -1.21 0.73 -3.34 1.05 -4.73 c 1.35 -5.68 2.62 -14.08 3.38 -22.27 c 0.95 -10.17 0.85 -31.85 -0.14 -32.85 c -0.11 -0.1 -1.07 0.36 -2.13 1.03 c -4.76 3.02 -11.46 4.61 -18.36 4.35 c -3.02 -0.1 -3.59 -0.03 -3.53 0.47 c 0.07 0.56 1.36 5.53 2.13 8.2 c 3.1 10.75 3.26 20.75 0.45 27.2 c -1.46 3.34 -5.62 11.2 -6.91 13.06 a 5.7 5.7 0 0 0 -0.74 1.27 c 0 0.11 -2.13 3.96 -4.74 8.54 l -5.74 10.13 c -0.96 1.72 -1.67 2.97 -3.58 6.3 c -0.47 0.82 -1.4 2.49 -2.06 3.7 a 46.76 46.76 0 0 1 -1.94 3.26 c -0.4 0.59 -0.74 1.16 -0.74 1.27 c 0 0.11 -0.78 1.52 -1.73 3.14 c -0.95 1.61 -2.5 4.37 -3.46 6.13 a 64.9 64.9 0 0 1 -2.47 4.26 c -0.4 0.59 -0.74 1.16 -0.74 1.28 c 0 0.12 -0.6 1.26 -1.35 2.54 c -0.74 1.27 -1.8 3.13 -2.35 4.12 c -0.55 0.99 -2.34 4.14 -3.98 7 a 675.75 675.75 0 0 0 -4.2 7.4 c -2.97 5.4 -4.25 7.24 -6.54 9.36 a 20.67 20.67 0 0 1 -34.59 -11.6 c -0.45 -2.56 -0.56 -9.88 -0.58 -38.44 c -0.01 -40.33 0.2 -37.82 -3.54 -41.64 c -3.23 -3.3 -4.7 -3.76 -13.27 -4.11 c -14.84 -0.62 -23.27 -3.94 -32.14 -12.68 a 43.39 43.39 0 0 1 -0.46 -61.6 c 3.2 -3.27 3.21 -3.14 -0.4 -4.91 c -12.67 -6.2 -16.36 -26.84 -7.52 -42.05 c 2.78 -4.78 7.27 -8.52 16.72 -13.93 c 1.34 -0.77 7.04 -4.13 16 -9.44 c 3.29 -1.96 6.17 -3.63 6.4 -3.72 a 19.9 19.9 0 0 0 2 -1.24 c 0.88 -0.6 1.78 -1.15 2 -1.24 c 7.69 -3.05 12.54 -8.81 10.5 -12.46 c -2.18 -3.9 -5.46 -4.58 -10.7 -2.2 c -12.95 5.9 -26.59 -2.49 -26.47 -16.27 c 0.06 -7.08 1.84 -10.06 10.48 -17.43 c 4.55 -3.9 5 -4.33 4.7 -4.62 c -0.45 -0.45 -8.17 -2.46 -13.11 -3.42 a 202.2 202.2 0 0 0 -14 -2.4 c -8.45 -1.12 -26.09 -2 -26.5 -1.31 m 67.8 109.48 c -1.36 0.75 -1.92 1.8 -2.48 4.67 c -0.57 2.92 -1.92 7.14 -2.51 7.9 c -1.3 1.62 -0.63 1.7 14.9 1.7 c 17.45 0 17.13 -0.07 18.87 4.15 c 0.5 1.23 0.68 1.42 0.7 0.75 c 0.04 -1.56 -1.53 -3.8 -3.38 -4.83 c -1.05 -0.59 -3.07 -0.68 -16.13 -0.8 c -11.5 -0.09 -14.85 -0.22 -14.56 -0.6 c 1.04 -1.34 2.85 -7.4 2.88 -9.61 c 0 -0.75 0.44 -1.54 1.25 -2.3 l 1.25 -1.16 h 48.95 l 1.86 1.18 c 5.79 3.67 3.59 11.6 -3.5 12.6 a 7.07 7.07 0 0 0 -4.86 2.55 c -0.85 0.97 -1.48 3.67 -0.86 3.67 c 0.18 0 0.32 -0.37 0.32 -0.82 c 0 -2.47 1.93 -4.17 5.6 -4.93 c 8 -1.65 9.99 -10.73 3.03 -13.9 c -2.08 -0.94 -49.66 -1.15 -51.33 -0.22 M 21.68 139.08 a 186.35 186.35 0 0 0 -5.66 20.32 c -0.28 1.32 -0.65 2.94 -0.82 3.6 c -0.17 0.66 -0.52 2.55 -0.78 4.2 l -0.82 5.2 c -3.52 22.07 -2.37 48.28 3.14 71.6 c 1.26 5.33 1.57 6.44 1.88 6.73 c 0.32 0.3 0.39 0.62 -1.61 -8.13 c -6.73 -29.45 -6.59 -57.32 0.43 -87 c 1.7 -7.14 4.09 -15.27 4.98 -16.9 c 0.2 -0.38 0.4 -1 0.43 -1.4 c 0.08 -1.07 0.8 3.1 1.95 11.3 c 0.98 6.9 1.28 9 1.6 11 c 0.32 2 0.52 3.41 1.6 11 c 0.18 1.32 0.53 3.7 0.77 5.3 c 0.71 4.8 1.21 8.35 1.59 11.32 c 0.34 2.76 0.84 4.19 0.84 2.43 c 0 -0.77 -1.18 -9.34 -2.4 -17.45 a 512.95 512.95 0 0 1 -1.59 -10.8 c -0.53 -3.84 -1.13 -8 -1.6 -11 c -0.2 -1.21 -0.56 -3.73 -0.8 -5.6 c -0.66 -4.95 -1.3 -8.55 -1.62 -8.92 c -0.15 -0.17 -0.83 1.27 -1.5 3.2 m 9.55 53.2 c -0.09 2.69 2.01 8.97 4.2 12.62 c 3.12 5.13 7.5 8.9 15.96 13.71 c 2.64 1.5 4.87 2.78 4.95 2.84 c 0.24 0.19 -0.55 2.83 -1.95 6.55 c -4.38 11.63 -6.29 17.04 -7.04 19.92 c -0.64 2.42 -0.76 11.16 -0.19 13.05 l 0.9 3.03 c 1.67 5.85 5.83 11.6 11.74 16.25 c 14.34 11.28 14.22 11.14 19.34 22.25 l 2.41 5.2 c 0.64 1.38 2.01 4.39 3.05 6.7 a 741.74 741.74 0 0 0 6.19 13.4 l 5.35 11.5 c 0.75 1.6 1.63 3.53 1.97 4.3 l 2 4.4 a 211.3 211.3 0 0 1 3.9 8.8 c 0.3 0.77 1.05 2.36 1.66 3.54 c 1.42 2.71 1.4 3.12 -0.04 2.09 a 5.66 5.66 0 0 0 -1.43 -0.83 c -0.15 0 -1.05 -0.54 -2.01 -1.2 a 8.32 8.32 0 0 0 -2.17 -1.2 c -0.24 0 -0.43 -0.18 -0.43 -0.4 c 0 -0.22 -0.27 -0.4 -0.6 -0.4 c -0.33 0 -0.6 -0.18 -0.6 -0.4 c 0 -0.22 -0.27 -0.4 -0.6 -0.4 c -0.33 0 -0.6 -0.18 -0.6 -0.4 c 0 -0.22 -0.23 -0.4 -0.5 -0.4 c -0.28 0 -1.13 -0.54 -1.9 -1.2 c -0.77 -0.66 -1.61 -1.2 -1.87 -1.2 c -0.25 0 -0.52 -0.15 -0.6 -0.33 a 22.75 22.75 0 0 0 -3.13 -2.4 c -4.6 -3.15 -7.9 -5.78 -14.4 -11.44 a 324.67 324.67 0 0 1 -16.4 -16.64 c -1.2 -1.43 -2.52 -2.95 -2.92 -3.39 c -0.4 -0.44 -1.48 -1.79 -2.4 -3 c -0.93 -1.2 -2.44 -3.14 -3.37 -4.3 c -0.93 -1.15 -3.68 -5.11 -6.1 -8.8 c -2.44 -3.69 -4.6 -6.92 -4.82 -7.18 c -0.21 -0.27 -0.39 -0.57 -0.39 -0.67 c 0 -0.1 -1.02 -1.95 -2.27 -4.11 c -2.33 -4.05 -8.6 -16.88 -9.73 -19.94 a 71 71 0 0 0 -0.75 -1.9 l -0.85 -2.1 a 51.26 51.26 0 0 0 -1.65 -3.9 a 3.88 3.88 0 0 1 -0.35 -1.47 c 0 -0.43 -0.18 -0.9 -0.4 -1.03 c -0.22 -0.14 -0.4 -0.6 -0.4 -1.03 c 0 -0.43 -0.16 -1.1 -0.35 -1.47 a 66.72 66.72 0 0 1 -2.25 -7.1 c -0.17 -0.66 -0.38 -0.98 -0.48 -0.7 c -0.28 0.75 4.2 14.62 5.5 17 c 0.21 0.38 0.38 0.87 0.38 1.08 c 0 0.22 0.47 1.44 1.04 2.7 L 27.5 276 c 6.53 14.79 16.8 31.58 26.06 42.64 c 5.22 6.21 7.45 8.69 12.09 13.38 c 6.6 6.68 8.84 8.74 15.75 14.44 c 9.27 7.65 27.59 19.55 26.53 17.24 l -1.07 -2.3 l -1.9 -4.1 a 4207.67 4207.67 0 0 1 -6.37 -13.9 a 4320.58 4320.58 0 0 1 -7.65 -16.55 c -0.78 -1.68 -1.86 -4 -2.38 -5.15 c -1.18 -2.6 -2.36 -5.13 -4.76 -10.3 c -1.02 -2.2 -3.05 -6.61 -4.5 -9.8 c -4.39 -9.6 -5.39 -10.8 -16.18 -19.37 c -15.46 -12.26 -19.4 -23.92 -13.47 -39.95 l 2.02 -5.48 c 0.45 -1.21 0.95 -2.56 1.13 -3 c 0.18 -0.44 0.54 -1.43 0.8 -2.2 c 0.26 -0.77 0.67 -1.85 0.9 -2.4 a 41.77 41.77 0 0 0 1.55 -4.2 c 0.29 -0.88 0.66 -1.77 0.83 -1.98 c 1.03 -1.23 0.7 -1.5 -8.41 -6.68 c -9.59 -5.46 -14.55 -12.4 -16.82 -23.54 c -0.32 -1.59 -0.37 -1.65 -0.4 -0.52" stroke-linecap="round"/>
</g>
</g>
</g>
</svg>