<svg xmlns="http://www.w3.org/2000/svg" xmlns:xlink="http://www.w3.org/1999/xlink" version="1.1" width="1000" height="1000" viewBox="0 0 1000 1000" xml:space="preserve">
<desc>Created with Fabric.js 3.5.0</desc>
<defs>
</defs>
<rect x="0" y="0" width="100%" height="100%" fill="#ffffff"/>
<g transform="matrix(0.07 0 0 0.07 500 500)" id="695578">
<g style="" vector-effect="non-scaling-stroke">
		<g transform="matrix(1 0 0 1 -77.2065 92.3)">
<path style="stroke: none; stroke-width: 1; stroke-dasharray: none; stroke-linecap: butt; stroke-dashoffset: 0; stroke-linejoin: miter; stroke-miterlimit: 4; is-custom-font: none; font-file-url: none; fill: rgb(232,76,97); fill-rule: evenodd; opacity: 1;" transform=" translate(-122.7935, -292.3)" d="M 114 185.2 c 0 0.24 -1.47 0.4 -3.6 0.4 s -3.6 0.16 -3.6 0.4 c 0 0.22 -0.98 0.4 -2.18 0.4 c -1.2 0 -2.28 0.18 -2.42 0.4 c -0.14 0.22 -0.96 0.4 -1.82 0.4 c -0.87 0 -1.58 0.18 -1.58 0.4 c 0 0.22 -0.72 0.4 -1.6 0.4 c -0.88 0 -1.6 0.18 -1.6 0.4 c 0 0.22 -0.63 0.4 -1.4 0.4 c -0.77 0 -1.4 0.18 -1.4 0.4 c 0 0.22 -0.54 0.4 -1.2 0.4 c -0.66 0 -1.2 0.18 -1.2 0.4 c 0 0.22 -0.54 0.4 -1.2 0.4 c -0.66 0 -1.2 0.18 -1.2 0.4 c 0 0.22 -0.54 0.4 -1.2 0.4 c -0.66 0 -1.2 0.18 -1.2 0.4 c 0 0.22 -0.54 0.4 -1.2 0.4 c -0.66 0 -1.2 0.18 -1.2 0.4 c 0 0.22 -0.36 0.4 -0.8 0.4 c -0.44 0 -0.8 0.18 -0.8 0.4 c 0 0.22 -0.4 0.4 -0.9 0.4 s -2.15 0.63 -3.68 1.4 c -1.52 0.77 -3 1.4 -3.3 1.4 c -0.28 0 -0.52 0.15 -0.52 0.32 c 0 0.18 -0.63 0.58 -1.4 0.88 c -0.77 0.3 -1.4 0.66 -1.4 0.8 s -0.63 0.5 -1.4 0.8 c -0.77 0.3 -1.4 0.7 -1.4 0.88 c 0 0.17 -0.27 0.32 -0.6 0.32 c -0.33 0 -0.6 0.18 -0.6 0.4 c 0 0.22 -0.27 0.4 -0.6 0.4 c -0.33 0 -0.6 0.18 -0.6 0.4 c 0 0.22 -0.32 0.4 -0.71 0.4 c -0.4 0 -0.97 0.36 -1.29 0.8 c -0.32 0.44 -0.78 0.8 -1.03 0.8 c -0.24 0 -0.77 0.36 -1.17 0.8 c -0.4 0.44 -0.9 0.8 -1.1 0.8 c -0.2 0 -0.88 0.54 -1.5 1.2 c -0.62 0.66 -1.32 1.2 -1.57 1.2 s -1.07 0.59 -1.82 1.3 a 31.8 31.8 0 0 1 -1.9 1.7 a 58.83 58.83 0 0 0 -6.27 5.53 c -0.77 0.84 -2.16 2.32 -3.11 3.28 c -0.95 0.96 -1.73 1.95 -1.73 2.2 c 0 0.24 -0.9 1.32 -2 2.39 s -2 2.14 -2 2.37 c 0 0.23 -0.54 0.94 -1.2 1.57 c -0.66 0.63 -1.2 1.35 -1.2 1.6 s -0.15 0.46 -0.33 0.46 c -0.19 0 -0.59 0.5 -0.9 1.1 a 7.5 7.5 0 0 1 -1.27 1.75 c -0.38 0.35 -0.7 0.86 -0.7 1.11 c 0 0.26 -0.36 0.86 -0.8 1.33 c -0.44 0.47 -0.8 1.1 -0.8 1.39 c 0 0.28 -0.18 0.52 -0.4 0.52 c -0.22 0 -0.4 0.36 -0.4 0.8 c 0 0.44 -0.14 0.8 -0.3 0.8 c -0.45 0 -4.1 7.37 -4.1 8.28 c 0 0.28 -0.18 0.52 -0.4 0.52 c -0.22 0 -0.4 0.35 -0.4 0.78 c 0 0.42 -0.18 0.88 -0.4 1.02 c -0.22 0.14 -0.4 0.6 -0.4 1.02 c 0 0.43 -0.18 0.78 -0.4 0.78 c -0.22 0 -0.4 0.36 -0.4 0.8 c 0 0.44 -0.18 0.8 -0.4 0.8 c -0.22 0 -0.4 0.54 -0.4 1.2 c 0 0.66 -0.18 1.2 -0.4 1.2 c -0.22 0 -0.4 0.54 -0.4 1.2 c 0 0.66 -0.18 1.2 -0.4 1.2 c -0.22 0 -0.4 0.54 -0.4 1.2 c 0 0.66 -0.18 1.2 -0.4 1.2 c -0.22 0 -0.4 0.44 -0.4 0.98 c 0 0.53 -0.18 1.08 -0.4 1.22 c -0.22 0.14 -0.4 0.87 -0.4 1.62 c 0 0.76 -0.18 1.38 -0.4 1.38 c -0.22 0 -0.4 0.72 -0.4 1.6 c 0 0.88 -0.18 1.6 -0.4 1.6 c -0.22 0 -0.4 0.9 -0.4 2 s -0.18 2 -0.4 2 c -0.22 0 -0.4 1.07 -0.4 2.4 c 0 1.33 -0.18 2.4 -0.4 2.4 c -0.23 0 -0.4 1.32 -0.4 3.18 c 0 1.74 -0.18 3.28 -0.4 3.42 c -0.54 0.33 -0.54 17.66 0 18 c 0.22 0.14 0.4 1.77 0.4 3.62 c 0 1.99 0.16 3.38 0.4 3.38 c 0.22 0 0.4 1.07 0.4 2.4 c 0 1.33 0.18 2.4 0.4 2.4 c 0.22 0 0.4 0.8 0.4 1.78 c 0 0.97 0.18 1.88 0.4 2.02 c 0.22 0.14 0.4 0.78 0.4 1.43 c 0 0.65 0.16 1.5 0.35 1.88 c 0.59 1.16 1.25 3.5 1.25 4.42 c 0 0.48 0.18 0.87 0.4 0.87 c 0.22 0 0.4 0.44 0.4 0.98 c 0 0.53 0.18 1.08 0.4 1.22 c 0.22 0.14 0.4 0.68 0.4 1.2 c 0 0.52 0.18 1.06 0.4 1.2 c 0.22 0.14 0.4 0.6 0.4 1.02 c 0 0.43 0.18 0.78 0.4 0.78 c 0.22 0 0.4 0.28 0.4 0.62 c 0 0.34 0.36 1.36 0.8 2.27 c 0.44 0.91 0.8 1.9 0.8 2.19 c 0 0.28 0.18 0.52 0.4 0.52 c 0.22 0 0.4 0.36 0.4 0.8 c 0 0.44 0.18 0.8 0.4 0.8 c 0.22 0 0.4 0.36 0.4 0.8 c 0 0.44 0.17 0.8 0.38 0.8 s 0.5 0.63 0.65 1.4 c 0.14 0.77 0.42 1.4 0.62 1.4 c 0.19 0 0.35 0.36 0.35 0.8 c 0 0.44 0.14 0.8 0.3 0.8 c 0.16 0.01 0.74 0.91 1.28 2 c 0.54 1.1 1.1 2 1.25 2 c 0.15 0 0.5 0.54 0.77 1.2 c 0.27 0.66 0.66 1.2 0.85 1.2 c 0.2 0 0.35 0.32 0.35 0.71 c 0 0.4 0.36 0.97 0.8 1.29 c 0.44 0.32 0.8 0.71 0.8 0.88 c 0 0.3 0.85 1.42 1.9 2.54 c 0.27 0.29 0.5 0.64 0.5 0.8 c 0 0.14 0.54 0.76 1.2 1.38 c 0.66 0.62 1.2 1.3 1.2 1.5 c 0 1.04 13.8 14.9 14.83 14.9 c 0.24 0 1.12 0.72 1.97 1.6 c 0.85 0.88 1.78 1.6 2.08 1.6 c 0.3 0 0.8 0.36 1.12 0.8 c 0.32 0.44 0.73 0.8 0.92 0.8 c 0.18 0 0.57 0.22 0.86 0.5 c 1.2 1.14 2.25 1.9 2.62 1.9 c 0.22 0 0.4 0.18 0.4 0.4 c 0 0.22 0.32 0.4 0.71 0.4 c 0.4 0 0.97 0.36 1.29 0.8 c 0.32 0.44 0.9 0.8 1.29 0.8 s 0.71 0.18 0.71 0.4 c 0 0.22 0.36 0.4 0.8 0.4 c 0.44 0 0.8 0.15 0.8 0.32 c 0 0.18 0.9 0.76 2 1.3 c 1.09 0.54 1.99 1.12 2 1.28 c 0 0.16 0.24 0.3 0.53 0.3 c 0.3 0 1.42 0.45 2.5 1 s 2.38 1 2.87 1 c 0.5 0 0.9 0.18 0.9 0.4 c 0 0.22 0.36 0.4 0.8 0.4 c 0.44 0 0.8 0.18 0.8 0.4 c 0 0.22 0.54 0.4 1.2 0.4 c 0.66 0 1.2 0.18 1.2 0.4 c 0 0.22 0.35 0.4 0.78 0.4 c 0.42 0 0.88 0.18 1.02 0.4 c 0.14 0.22 0.69 0.4 1.22 0.4 c 0.54 0 0.98 0.18 0.98 0.4 c 0 0.22 0.54 0.4 1.2 0.4 c 0.66 0 1.2 0.18 1.2 0.4 c 0 0.22 0.62 0.4 1.38 0.4 c 0.75 0 1.48 0.18 1.62 0.4 c 0.14 0.22 0.87 0.4 1.62 0.4 c 0.76 0 1.38 0.18 1.38 0.4 c 0 0.22 0.72 0.4 1.6 0.4 c 0.88 0 1.6 0.18 1.6 0.4 c 0 0.22 0.88 0.4 1.97 0.4 c 1.21 0 2.03 0.19 2.13 0.5 c 0.13 0.39 4.19 0.5 18.5 0.5 c 14.31 0 18.37 -0.11 18.5 -0.5 c 0.1 -0.32 0.95 -0.5 2.31 -0.5 c 1.18 0 2.25 -0.18 2.39 -0.4 c 0.14 -0.22 0.96 -0.4 1.82 -0.4 c 0.87 0 1.58 -0.18 1.58 -0.4 c 0 -0.22 0.63 -0.4 1.4 -0.4 c 0.77 0 1.4 -0.18 1.4 -0.4 c 0 -0.22 0.63 -0.4 1.4 -0.4 c 0.77 0 1.4 -0.18 1.4 -0.4 c 0 -0.22 0.54 -0.4 1.2 -0.4 c 0.66 0 1.2 -0.18 1.2 -0.4 c 0 -0.22 0.45 -0.4 1 -0.4 s 1 -0.18 1 -0.4 c 0 -0.22 0.54 -0.4 1.2 -0.4 c 0.66 0 1.2 -0.18 1.2 -0.4 c 0 -0.22 0.44 -0.4 0.98 -0.4 c 0.53 0 1.08 -0.18 1.22 -0.4 c 0.14 -0.22 0.6 -0.4 1.02 -0.4 c 0.43 0 0.78 -0.16 0.78 -0.36 c 0 -0.2 0.72 -0.5 1.6 -0.64 c 0.88 -0.15 1.6 -0.43 1.6 -0.63 s 0.23 -0.37 0.52 -0.37 c 0.74 0 2.67 -0.94 2.68 -1.3 c 0 -0.17 0.36 -0.3 0.8 -0.3 c 0.44 0 0.8 -0.18 0.8 -0.4 c 0 -0.22 0.27 -0.4 0.6 -0.4 c 0.33 0 0.6 -0.18 0.6 -0.4 c 0 -0.22 0.36 -0.4 0.8 -0.4 c 0.44 0 0.8 -0.18 0.8 -0.4 c 0 -0.22 0.28 -0.4 0.62 -0.4 c 0.34 0 1 -0.36 1.47 -0.8 c 0.47 -0.44 1.1 -0.8 1.39 -0.8 c 0.28 0 0.52 -0.18 0.52 -0.4 c 0 -0.22 0.24 -0.4 0.52 -0.4 c 0.3 0 0.92 -0.36 1.39 -0.8 c 0.47 -0.44 1 -0.8 1.17 -0.8 c 0.18 0 0.95 -0.54 1.72 -1.2 a 6.99 6.99 0 0 1 1.7 -1.2 c 0.3 0 1.97 -1.4 4.07 -3.4 c 0.69 -0.66 1.98 -1.7 2.86 -2.3 c 2.52 -1.72 4.57 -3.74 4.57 -4.5 c 0 -0.38 1.44 -2.21 3.2 -4.07 a 106.5 106.5 0 0 0 13 -17.13 c 2.3 -3.9 2.59 -4.44 4.54 -8.4 c 2.5 -5.06 4.06 -8.51 4.06 -9.02 c 0 -0.21 0.17 -0.7 0.38 -1.08 c 1.23 -2.28 4.25 -13.7 5.15 -19.5 c 0.23 -1.54 0.62 -4 0.85 -5.45 c 0.52 -3.26 0.56 -21.42 0.05 -24.38 c -0.2 -1.2 -0.58 -3.61 -0.83 -5.37 a 62.37 62.37 0 0 0 -1.6 -7.8 a 103.57 103.57 0 0 0 -12.52 -30.39 a 109.82 109.82 0 0 0 -3.54 -5.6 l -3.03 -4.01 a 101.04 101.04 0 0 0 -9.46 -10.79 c -1.24 -1.2 -2.25 -2.4 -2.25 -2.68 c 0 -0.64 -4.36 -4.93 -5 -4.93 c -0.11 0 -0.94 -0.72 -1.85 -1.6 c -0.9 -0.88 -1.85 -1.6 -2.11 -1.6 c -0.25 0 -0.72 -0.36 -1.04 -0.8 c -0.32 -0.44 -0.83 -0.8 -1.14 -0.8 c -0.31 0 -0.86 -0.32 -1.21 -0.7 a 7.5 7.5 0 0 0 -1.75 -1.27 c -0.6 -0.31 -1.1 -0.72 -1.1 -0.9 c 0 -0.18 -0.32 -0.33 -0.71 -0.33 c -0.4 0 -0.97 -0.36 -1.29 -0.8 c -0.32 -0.44 -0.9 -0.8 -1.29 -0.8 s -0.71 -0.18 -0.71 -0.4 c 0 -0.22 -0.36 -0.4 -0.8 -0.4 c -0.44 0 -0.8 -0.15 -0.8 -0.34 c 0 -0.4 -6.35 -3.67 -7.1 -3.66 c -0.28 0 -0.5 -0.16 -0.5 -0.37 c 0 -0.2 -0.72 -0.48 -1.6 -0.63 c -0.88 -0.15 -1.6 -0.43 -1.6 -0.64 c 0 -0.2 -0.54 -0.36 -1.2 -0.36 c -0.66 0 -1.2 -0.18 -1.2 -0.4 c 0 -0.22 -0.36 -0.4 -0.8 -0.4 c -0.44 0 -0.8 -0.18 -0.8 -0.4 c 0 -0.22 -0.54 -0.4 -1.2 -0.4 c -0.66 0 -1.2 -0.18 -1.2 -0.4 c 0 -0.22 -0.54 -0.4 -1.2 -0.4 c -0.66 0 -1.2 -0.18 -1.2 -0.4 c 0 -0.22 -0.44 -0.4 -0.98 -0.4 c -0.53 0 -1.08 -0.18 -1.22 -0.4 c -0.14 -0.22 -0.87 -0.4 -1.62 -0.4 c -0.76 0 -1.38 -0.18 -1.38 -0.4 c 0 -0.22 -0.72 -0.4 -1.6 -0.4 c -0.88 0 -1.6 -0.18 -1.6 -0.4 c 0 -0.22 -0.9 -0.4 -2 -0.4 s -2 -0.18 -2 -0.4 c 0 -0.22 -0.99 -0.4 -2.2 -0.4 c -1.21 0 -2.2 -0.18 -2.2 -0.4 c 0 -0.24 -1.47 -0.4 -3.6 -0.4 s -3.6 -0.16 -3.6 -0.4 c 0 -0.25 -3.33 -0.4 -9.2 -0.4 c -5.87 0 -9.2 0.14 -9.2 0.4 m 19.6 26.06 c 24.33 3 46.5 17.31 59.68 38.54 c 2.5 4.02 5.84 10.89 7.12 14.6 c 0.26 0.77 0.64 1.76 0.84 2.2 c 4.78 10.8 5.46 32.54 1.47 47.2 c -13.04 47.95 -62.2 72.69 -109.91 55.32 c -20.88 -7.6 -40.14 -28.07 -47.54 -50.52 c -18.88 -57.3 28.38 -114.72 88.34 -107.34" stroke-linecap="round"/>
</g>
		<g transform="matrix(1 0 0 1 5.5135 -0.2693)">
<path style="stroke: none; stroke-width: 1; stroke-dasharray: none; stroke-linecap: butt; stroke-dashoffset: 0; stroke-linejoin: miter; stroke-miterlimit: 4; is-custom-font: none; font-file-url: none; fill: rgb(179,226,250); fill-rule: evenodd; opacity: 1;" transform=" translate(-205.5136, -199.7307)" d="M 178.1 37.06 c -0.4 0.16 -0.5 7.77 -0.5 36.17 v 35.97 h 180 l -0.1 -36.1 l -0.1 -36.1 l -89.4 -0.07 c -49.17 -0.04 -89.63 0.02 -89.9 0.13 M 248 186.2 c 0 2.47 -3.4 6.96 -5.7 7.54 c -0.6 0.15 -1.1 0.45 -1.1 0.67 c 0 0.21 -0.36 0.39 -0.8 0.39 c -0.44 0 -0.8 0.18 -0.8 0.4 c 0 0.22 -0.44 0.4 -0.98 0.4 c -0.53 0 -1.08 0.18 -1.22 0.4 c -0.14 0.22 -0.6 0.4 -1.02 0.4 c -0.43 0 -0.78 0.18 -0.78 0.4 c 0 0.22 -0.36 0.4 -0.8 0.4 c -0.45 0 -1.12 0.16 -1.5 0.35 c -0.39 0.2 -1.24 0.58 -1.9 0.85 c -0.66 0.27 -1.51 0.65 -1.9 0.85 c -0.38 0.2 -1.05 0.35 -1.5 0.35 c -0.44 0 -0.8 0.18 -0.8 0.4 c 0 0.22 -0.54 0.4 -1.2 0.4 c -0.66 0 -1.2 0.18 -1.2 0.4 c 0 0.22 -0.54 0.4 -1.2 0.4 c -0.66 0 -1.2 0.18 -1.2 0.4 c 0 0.22 -0.44 0.4 -0.98 0.4 c -0.53 0 -1.08 0.18 -1.22 0.4 c -0.14 0.22 -0.78 0.4 -1.42 0.4 c -0.65 0 -1.18 0.18 -1.18 0.4 c 0 0.22 -0.36 0.4 -0.8 0.4 c -0.44 0 -0.8 0.18 -0.8 0.4 c 0 0.22 -0.54 0.4 -1.2 0.4 c -0.66 0 -1.2 0.18 -1.2 0.4 c 0 0.22 -0.45 0.4 -1 0.4 s -1 0.18 -1 0.4 c 0 0.22 -0.35 0.4 -0.78 0.4 c -0.42 0 -0.88 0.18 -1.02 0.4 c -0.14 0.22 -0.69 0.4 -1.22 0.4 c -0.54 0 -0.98 0.18 -0.98 0.4 c 0 0.22 -0.36 0.4 -0.8 0.4 c -0.44 0 -0.8 0.18 -0.8 0.4 c 0 0.22 -0.36 0.4 -0.8 0.4 c -0.44 0 -0.8 0.18 -0.8 0.4 c 0 0.22 -0.36 0.4 -0.8 0.4 c -0.44 0 -0.8 0.16 -0.8 0.35 c 0 0.2 -0.5 0.45 -1.1 0.58 c -1.74 0.37 -5.12 2.8 -4.98 3.59 c 0.06 0.37 1.34 1.91 2.83 3.43 A 117.42 117.42 0 0 1 215.07 237 c 2.3 3.77 7.73 14.62 7.73 15.46 c 0 0.32 0.16 0.75 0.37 0.96 c 0.56 0.59 3.12 8.52 4.24 13.17 c 0.55 2.3 1.11 4.46 1.24 4.8 c 0.2 0.53 2.25 0.61 16.6 0.61 h 16.35 v -15.22 c 0 -12.3 0.1 -15.43 0.56 -16.3 c 1.61 -3.1 4.94 -4.3 7.97 -2.88 c 3.38 1.6 3.24 0.9 3.47 18.58 l 0.2 15.62 l 41.91 0.1 l 41.92 0.1 l -0.18 -9.3 c -0.2 -9.87 -0.5 -13.86 -1.08 -14.48 c -0.2 -0.2 -0.37 -1.05 -0.37 -1.88 c 0 -0.82 -0.14 -1.58 -0.32 -1.7 c -0.18 -0.1 -0.57 -1.11 -0.88 -2.24 c -0.3 -1.13 -0.7 -2.14 -0.88 -2.25 c -0.18 -0.1 -0.32 -0.64 -0.32 -1.17 c 0 -0.54 -0.18 -0.98 -0.4 -0.98 c -0.22 0 -0.4 -0.36 -0.4 -0.8 c 0 -0.44 -0.18 -0.8 -0.4 -0.8 c -0.22 0 -0.4 -0.36 -0.4 -0.8 c 0 -0.44 -0.18 -0.8 -0.4 -0.8 c -0.22 0 -0.4 -0.36 -0.4 -0.8 c 0 -0.44 -0.14 -0.8 -0.3 -0.8 c -0.17 0 -0.76 -0.72 -1.3 -1.6 c -0.54 -0.88 -1.13 -1.6 -1.3 -1.6 c -0.16 0 -0.3 -0.2 -0.3 -0.43 c 0 -0.24 -0.72 -1.17 -1.6 -2.06 c -0.88 -0.9 -1.6 -1.8 -1.6 -2 c 0 -0.41 -2.86 -3.24 -5.98 -5.91 c -1.15 -0.99 -2.34 -2.03 -2.63 -2.3 c -0.3 -0.28 -0.71 -0.5 -0.93 -0.5 c -0.21 0 -0.45 -0.15 -0.53 -0.32 c -0.15 -0.37 -3.74 -2.88 -4.12 -2.88 c -0.13 0 -0.63 -0.36 -1.1 -0.8 c -0.47 -0.44 -1.1 -0.8 -1.38 -0.8 c -0.3 0 -0.53 -0.16 -0.53 -0.36 c 0 -0.2 -0.8 -0.7 -1.8 -1.1 c -0.99 -0.4 -1.8 -0.88 -1.8 -1.04 c 0 -0.16 -0.36 -0.3 -0.8 -0.3 c -0.44 0 -0.8 -0.18 -0.8 -0.4 c 0 -0.22 -0.36 -0.4 -0.8 -0.4 c -0.44 0 -0.8 -0.18 -0.8 -0.4 c 0 -0.22 -0.35 -0.4 -0.77 -0.4 c -0.42 0 -0.82 -0.13 -0.9 -0.3 c -0.19 -0.43 -3.5 -2.1 -4.17 -2.1 c -0.3 0 -0.56 -0.18 -0.56 -0.4 c 0 -0.22 -0.36 -0.4 -0.8 -0.4 c -0.44 0 -0.8 -0.18 -0.8 -0.4 c 0 -0.22 -0.36 -0.4 -0.8 -0.4 c -0.44 0 -0.8 -0.18 -0.8 -0.4 c 0 -0.22 -0.36 -0.4 -0.8 -0.4 c -0.44 0 -0.8 -0.18 -0.8 -0.4 c 0 -0.22 -0.27 -0.4 -0.6 -0.4 c -0.33 0 -0.6 -0.18 -0.6 -0.4 c 0 -0.22 -0.23 -0.4 -0.52 -0.4 c -0.74 0 -2.67 -0.94 -2.68 -1.3 c 0 -0.16 -0.36 -0.3 -0.8 -0.3 c -0.44 0 -0.8 -0.18 -0.8 -0.4 c 0 -0.22 -0.36 -0.4 -0.8 -0.4 c -0.44 0 -0.8 -0.18 -0.8 -0.4 c 0 -0.22 -0.36 -0.4 -0.8 -0.4 c -0.44 0 -0.8 -0.18 -0.8 -0.4 c 0 -0.22 -0.23 -0.4 -0.52 -0.4 c -0.74 0 -2.67 -0.94 -2.68 -1.3 c 0 -0.16 -0.36 -0.3 -0.8 -0.3 c -0.44 0 -0.8 -0.15 -0.8 -0.33 c 0 -0.4 -2.6 -1.67 -3.41 -1.67 c -0.33 0 -0.59 -0.14 -0.59 -0.32 c 0 -0.17 -0.59 -0.94 -1.3 -1.71 c -1.56 -1.67 -3.1 -4.51 -3.1 -5.7 c 0 -0.82 -10.91 -1.2 -13.1 -0.46 c -0.39 0.13 -0.5 3.53 -0.5 15.2 c 0 12.5 -0.1 15.22 -0.6 16.18 c -2 3.87 -8.02 4.13 -10.31 0.44 c -0.87 -1.4 -0.9 -1.8 -1.09 -16.83 l -0.2 -15.4 l -6.7 -0.11 l -6.7 -0.1 v 1.4 m -134.88 37.04 c -2.91 0.43 -5.88 1.28 -3.32 0.95 c 0.88 -0.11 2.81 -0.31 4.3 -0.44 l 2.7 -0.23 v 3.66 c 0 11.55 11.97 12.52 12.8 1.04 c 0.17 -2.34 0.37 -4.3 0.45 -4.37 c 0.35 -0.3 10.25 1.29 11.24 1.8 c 0.39 0.2 1.05 0.36 1.48 0.36 c 0.43 0 0.9 0.18 1.03 0.4 c 0.14 0.22 0.68 0.4 1.2 0.4 c 0.52 0 1.06 0.18 1.2 0.4 c 0.14 0.22 0.69 0.4 1.22 0.4 c 0.54 0 0.98 0.18 0.98 0.4 c 0 0.22 0.45 0.4 1 0.4 s 1 0.18 1 0.4 c 0 0.22 0.36 0.4 0.8 0.4 c 0.44 0 0.8 0.18 0.8 0.4 c 0 0.22 0.23 0.4 0.52 0.4 c 0.74 0 2.67 0.94 2.68 1.3 c 0 0.16 0.34 0.3 0.77 0.3 c 0.42 0 0.82 0.14 0.9 0.3 c 0.07 0.16 0.94 0.74 1.93 1.27 s 1.89 1.09 2 1.23 c 0.11 0.14 1.29 1 2.62 1.89 c 4.09 2.75 4.1 2.6 -0.24 6.9 c -3.4 3.37 -1.74 9.9 2.86 11.22 c 2.83 0.83 4.69 0.13 7.7 -2.87 a 33.5 33.5 0 0 1 2.94 -2.74 c 0.53 0 5.72 7.22 5.72 7.96 c 0 0.24 0.13 0.44 0.3 0.44 c 0.17 0 0.5 0.41 0.73 0.9 c 0.23 0.5 0.97 1.98 1.64 3.3 c 2.46 4.81 2.93 5.89 2.93 6.64 c 0 0.42 0.18 0.76 0.4 0.76 c 0.22 0 0.4 0.45 0.4 1 s 0.18 1 0.4 1 c 0.22 0 0.4 0.63 0.4 1.4 c 0 0.77 0.18 1.4 0.4 1.4 c 0.22 0 0.4 0.54 0.4 1.2 c 0 0.66 0.18 1.2 0.4 1.2 c 0.22 0 0.4 0.9 0.4 2 s 0.18 2 0.4 2 c 0.22 0 0.4 1.12 0.4 2.57 c 0 1.68 0.17 2.63 0.5 2.76 c 0.28 0.12 -1.15 0.22 -3.18 0.24 c -2.02 0.02 -3.78 0.21 -3.92 0.43 c -0.14 0.22 -0.68 0.4 -1.2 0.4 c -1.63 0 -4.07 2.69 -4.4 4.83 c -0.5 3.43 1.77 7.57 4.17 7.57 c 0.43 0 0.9 0.18 1.03 0.4 c 0.14 0.22 1.96 0.4 4.1 0.4 c 3 0 3.75 0.1 3.38 0.48 c -0.27 0.27 -0.48 1.57 -0.48 2.98 c 0 1.37 -0.18 2.6 -0.4 2.74 c -0.22 0.14 -0.4 0.96 -0.4 1.82 c 0 0.87 -0.18 1.58 -0.4 1.58 c -0.22 0 -0.4 0.62 -0.4 1.38 c 0 0.75 -0.18 1.48 -0.4 1.62 c -0.22 0.14 -0.4 0.68 -0.4 1.2 c 0 0.52 -0.18 1.06 -0.4 1.2 c -0.22 0.14 -0.4 0.69 -0.4 1.22 c 0 0.54 -0.18 0.98 -0.4 0.98 c -0.22 0 -0.4 0.44 -0.4 0.98 c 0 0.53 -0.18 1.08 -0.4 1.22 c -0.22 0.14 -0.4 0.6 -0.4 1.02 c 0 0.43 -0.18 0.78 -0.4 0.78 c -0.22 0 -0.4 0.36 -0.4 0.8 c 0 0.44 -0.18 0.8 -0.4 0.8 c -0.22 0 -0.4 0.23 -0.4 0.52 c 0 0.74 -0.94 2.67 -1.3 2.68 c -0.17 0 -0.3 0.36 -0.3 0.8 c 0 0.44 -0.16 0.8 -0.35 0.8 c -0.2 0 -0.58 0.54 -0.85 1.2 c -0.27 0.66 -0.66 1.2 -0.85 1.2 c -0.2 0 -0.35 0.18 -0.35 0.4 c 0 0.45 -2.5 4.12 -3.66 5.36 c -0.4 0.43 -0.74 1.01 -0.74 1.29 c 0 0.27 -1.4 -0.9 -3.1 -2.62 c -3.2 -3.22 -4.79 -3.97 -6.7 -3.2 c -0.65 0.26 -0.55 0.32 0.53 0.35 c 1.88 0.03 2.7 0.54 6 3.76 l 2.93 2.86 l 1.36 -1.55 c 2.35 -2.7 6.6 -9.42 8.3 -13.15 a 66.33 66.33 0 0 0 4.23 -11.3 c 1.46 -5.07 2.6 -11.75 2.18 -12.83 c -0.17 -0.44 -1.18 -0.57 -4.54 -0.57 c -5.62 0 -7.99 -1.72 -7.99 -5.8 c 0 -4.02 2.4 -5.73 8.22 -5.89 l 4.38 -0.11 l -0.13 -2 c -0.7 -10.84 -6.72 -25.5 -14.32 -34.9 l -1.7 -2.11 l -2.13 2.23 c -4.8 5.07 -9.32 5.56 -11.92 1.28 c -1.72 -2.81 -0.99 -5.36 2.6 -9.08 c 2.85 -2.94 2.92 -3.08 1.9 -3.88 c -10.04 -7.79 -20.55 -12.47 -32.64 -14.53 c -5.73 -0.98 -5.46 -1.13 -5.46 2.96 c 0 5.77 -1.32 8.23 -4.71 8.77 c -4.8 0.77 -7.29 -2.23 -7.29 -8.79 c 0 -4.27 0.36 -3.97 -4.08 -3.32 M 103 225.55 a 71.54 71.54 0 0 0 -22.7 11.79 c -2.01 1.6 -1.94 1.9 1.3 5.31 c 4 4.22 3.95 8.09 -0.16 10.59 c -0.79 0.48 -1 0.76 -0.57 0.76 c 1.12 0 3.4 -2.5 3.95 -4.3 c 0.77 -2.58 0.05 -4.38 -3.04 -7.66 c -1.42 -1.5 -2.58 -2.88 -2.58 -3.04 c 0 -1.2 12.56 -8.76 18.4 -11.1 c 0.55 -0.21 1.31 -0.55 1.7 -0.75 c 0.38 -0.2 1.04 -0.35 1.47 -0.35 c 0.43 0 0.9 -0.18 1.03 -0.4 c 0.14 -0.22 0.77 -0.4 1.4 -0.4 c 0.63 0 1.26 -0.18 1.4 -0.4 c 0.14 -0.22 0.73 -0.4 1.32 -0.4 c 0.6 0 1.35 -0.19 1.68 -0.4 c 1.12 -0.72 -0.82 -0.4 -4.6 0.75 m 1.22 20.01 c -0.12 0.2 0.72 0.37 1.87 0.38 c 1.43 0.01 1.9 -0.1 1.5 -0.36 c -0.76 -0.47 -3.08 -0.49 -3.37 -0.02 m -2.98 1.85 c -0.68 0.78 -1.24 1.64 -1.24 1.9 c 0 0.27 0.35 -0.09 0.78 -0.79 a 6.14 6.14 0 0 1 1.9 -1.88 c 0.72 -0.39 0.88 -0.61 0.46 -0.62 c -0.36 -0.01 -1.22 0.62 -1.9 1.4 m 8.66 0.1 c 0.91 0.92 1.88 2.53 2.46 4.1 c 0.95 2.55 1.53 3.97 3.2 7.68 c 0.46 1.04 0.84 1.99 0.84 2.1 c 0 0.12 0.34 0.97 0.76 1.9 c 0.41 0.94 0.87 2.04 1 2.46 c 0.15 0.41 0.36 0.66 0.47 0.54 c 0.2 -0.2 -0.93 -3.21 -2.42 -6.5 c -0.3 -0.66 -0.94 -2.19 -1.41 -3.4 c -2.7 -6.86 -4.75 -10.4 -6.05 -10.4 c -0.2 0 0.33 0.68 1.15 1.52 m -41.36 1.38 c -3.19 3.5 -11.17 17.4 -10.42 18.15 c 0.14 0.15 0.37 -0.08 0.5 -0.5 c 0.5 -1.51 3.57 -7.6 4.66 -9.22 c 0.62 -0.92 1.12 -1.78 1.12 -1.9 c 0 -0.4 4.93 -7.03 5.22 -7.03 c 0.15 0 1.6 1.26 3.2 2.8 c 2.52 2.4 4.6 3.71 3.78 2.4 a 0.94 0.94 0 0 0 -0.71 -0.4 c -0.26 0 -1.75 -1.27 -3.3 -2.81 l -2.84 -2.82 l -1.2 1.33 m 31.16 2.9 c 0 1.1 0.09 1.5 0.18 0.9 c 0.09 -0.61 0.09 -1.51 0 -2 c -0.1 -0.5 -0.18 0 -0.18 1.1 m 0.29 2.39 c 0 0.25 1.66 4.35 2.6 6.41 c 0.3 0.66 0.93 2.19 1.4 3.4 c 0.47 1.21 1.14 2.83 1.47 3.6 c 0.34 0.77 0.75 1.76 0.93 2.2 c 0.89 2.23 1.68 3.85 1.83 3.7 c 0.14 -0.14 -1.76 -4.93 -3.21 -8.1 c -0.3 -0.66 -1.22 -2.91 -2.05 -5 a 35.69 35.69 0 0 0 -1.83 -4.18 c -0.19 -0.2 -0.34 -0.7 -0.34 -1.08 c 0 -0.38 -0.18 -0.8 -0.4 -0.94 c -0.22 -0.14 -0.4 -0.14 -0.4 -0.01 m 18.8 12.74 c 0 0.29 3.13 7.81 3.54 8.52 c 0.64 1.1 0.55 0.07 -0.1 -1.29 c -0.31 -0.64 -1.14 -2.56 -1.84 -4.26 c -1.08 -2.63 -1.6 -3.59 -1.6 -2.97 m -61.75 2.52 c -0.36 1.04 -0.56 1.97 -0.46 2.07 c 0.1 0.1 0.3 -0.15 0.44 -0.56 c 0.13 -0.42 0.43 -1.26 0.66 -1.87 c 0.23 -0.61 0.32 -1.21 0.2 -1.32 c -0.1 -0.12 -0.49 0.64 -0.84 1.68 m -1.57 4.89 c -0.68 2.46 -0.93 4.84 -0.3 2.86 c 1.01 -3.15 1.3 -4.36 1.15 -4.81 c -0.1 -0.28 -0.47 0.6 -0.85 1.95 m 52.92 0 c 0 0.26 0.16 0.78 0.35 1.17 c 0.2 0.38 0.54 1.14 0.76 1.69 c 1.05 2.57 1.77 4.05 1.92 3.9 c 0.15 -0.15 -2.5 -6.7 -2.86 -7.06 c -0.1 -0.1 -0.17 0.04 -0.17 0.3 m -54.18 5.59 c -0.16 0.95 -0.2 1.82 -0.09 1.94 c 0.3 0.29 0.8 -2.5 0.57 -3.15 c -0.1 -0.29 -0.32 0.26 -0.48 1.2 m 70.28 0.91 c 1.4 3.42 2.05 4.76 2.2 4.6 c 0.11 -0.11 -0.18 -1.01 -0.65 -2.01 c -0.47 -1 -0.85 -1.98 -0.85 -2.2 c 0 -0.2 -0.21 -0.5 -0.47 -0.66 c -0.3 -0.19 -0.38 -0.09 -0.23 0.27 m -70.96 3.77 c -0.32 2.23 -0.37 2.2 4.32 2.2 c 6.26 0 9.4 2.8 8.09 7.21 c -1.03 3.45 -2.71 4.39 -7.82 4.4 c -4.84 0 -5.02 0.1 -4.57 2.4 l 0.35 1.79 l 0.05 -1.65 l 0.04 -1.64 l 4.2 -0.2 c 11.64 -0.51 11.89 -12.17 0.27 -12.71 l -4.27 -0.2 l -0.22 -1.6 l -0.21 -1.6 l -0.23 1.6 m 73.42 1.73 c 0.2 0.34 3.3 0.47 11.16 0.47 c 12.28 0 12.66 0.09 14.24 3.08 c 0.49 0.92 0.81 1.24 0.82 0.8 c 0.01 -0.38 -0.78 -1.5 -1.77 -2.5 l -1.79 -1.78 h -10.78 c -5.93 0 -11.09 -0.12 -11.47 -0.27 c -0.48 -0.18 -0.6 -0.12 -0.41 0.2 m -12.16 3.35 c 0 0.67 2.62 6.26 3.35 7.16 c 1.72 2.1 2.15 2.16 17.05 2.16 H 149 l 1.47 -1 c 1.5 -1.01 2.75 -2.7 2.7 -3.66 c -0.02 -0.3 -0.29 0.03 -0.6 0.73 c -0.3 0.7 -1.16 1.74 -1.9 2.3 l -1.35 1.03 h -14.08 c -17.14 0 -16.51 0.2 -18.83 -5.8 c -0.84 -2.16 -1.61 -3.56 -1.61 -2.92 M 54.07 304.4 c 0.02 1.65 0.65 3.36 0.66 1.8 c 0 -0.66 -0.14 -1.56 -0.33 -2 c -0.31 -0.73 -0.34 -0.7 -0.33 0.2 m 0.74 3.74 c -0.01 1.2 1.33 5.32 1.5 4.58 a 2.56 2.56 0 0 0 -0.29 -1.47 a 4.38 4.38 0 0 1 -0.43 -1.72 c 0 -0.51 -0.18 -1.2 -0.39 -1.53 c -0.33 -0.5 -0.39 -0.49 -0.4 0.14 m 1.6 6.01 c 0 0.7 2.46 6.69 4.14 10.05 c 1.7 3.42 3.45 6.2 7.66 12.24 c 1.1 1.57 1.47 1.48 3.68 -0.9 a 23.8 23.8 0 0 1 3.7 -3.2 c 0.98 -0.63 1.53 -1.14 1.24 -1.14 c -0.74 0 -2.79 1.6 -5.12 4.01 l -1.94 2 l -1.03 -1.1 c -2.87 -3.08 -9.1 -13.77 -10.31 -17.71 a 9.7 9.7 0 0 0 -0.89 -2.18 c -0.18 -0.2 -0.33 -0.7 -0.33 -1.08 c 0 -0.38 -0.18 -0.8 -0.4 -0.94 c -0.22 -0.14 -0.4 -0.16 -0.4 -0.05 m 24.65 17.63 c 4.88 2.12 4.6 6.93 -0.7 12.24 c -1.1 1.1 -1.94 2.22 -1.85 2.48 c 0.33 0.98 5.99 4.99 10.9 7.71 l 1.6 0.9 c 5.53 3.15 18.78 7.29 23.3 7.29 c 1.7 0 0.71 -0.46 -1.77 -0.83 c -2.1 -0.3 -3.12 -0.5 -7.64 -1.4 c -0.71 -0.15 -1.4 -0.42 -1.52 -0.62 c -0.12 -0.2 -0.66 -0.35 -1.2 -0.35 c -0.54 0 -1.3 -0.16 -1.67 -0.35 a 27.1 27.1 0 0 0 -1.7 -0.76 c -7 -2.84 -12.98 -6.14 -17.58 -9.7 l -2.5 -1.94 l 2.67 -2.83 c 3.87 -4.13 4.47 -5.93 3.02 -9.11 c -0.75 -1.66 -2.78 -3.32 -4.01 -3.3 c -0.33 0.02 -0.04 0.27 0.65 0.56 m 82.97 0.48 c -2.94 2.47 -3.37 7.33 -0.86 9.77 c 0.35 0.34 1.42 1.44 2.38 2.46 l 1.74 1.83 l -2.14 1.65 l -3.14 2.44 c -0.55 0.44 -1.22 0.8 -1.5 0.8 s -0.5 0.16 -0.5 0.35 c 0 0.2 -0.31 0.46 -0.7 0.58 c -0.94 0.3 -3.07 1.6 -3.23 1.97 c -0.08 0.16 -0.48 0.3 -0.9 0.3 c -0.42 0 -0.77 0.18 -0.77 0.4 c 0 0.22 -0.36 0.4 -0.8 0.4 c -0.44 0 -0.8 0.18 -0.8 0.4 c 0 0.22 -0.36 0.4 -0.8 0.4 c -0.44 0 -0.8 0.18 -0.8 0.4 c 0 0.22 -0.45 0.4 -1 0.4 s -1 0.18 -1 0.4 c 0 0.22 -0.35 0.4 -0.78 0.4 c -0.42 0 -0.88 0.18 -1.02 0.4 c -0.14 0.22 -0.69 0.4 -1.22 0.4 c -0.54 0 -0.98 0.18 -0.98 0.4 c 0 0.22 -0.53 0.4 -1.18 0.4 c -0.64 0 -1.28 0.18 -1.42 0.4 c -0.14 0.22 -0.68 0.4 -1.2 0.4 a 6 6 0 0 0 -1.88 0.37 c -0.5 0.2 -1.46 0.5 -2.12 0.65 c -0.66 0.15 -1 0.36 -0.74 0.45 c 1.2 0.44 12.03 -3.04 16.94 -5.46 c 6.28 -3.08 14.4 -8.58 14.4 -9.75 c 0 -0.27 -1.1 -1.56 -2.44 -2.87 c -4.56 -4.45 -4.79 -8.69 -0.61 -11.2 c 0.9 -0.54 1.35 -0.98 0.98 -0.99 c -0.37 0 -1.23 0.47 -1.91 1.05 m -43.46 17.69 c -2.73 1.27 -3.52 3.04 -3.76 8.32 c -0.11 2.46 -0.06 4.38 0.1 4.28 c 0.16 -0.1 0.3 -1.87 0.3 -3.92 c 0 -6.14 1.75 -8.62 6.1 -8.62 c 4.23 0 5.9 2.44 5.9 8.59 c 0 2.1 0.14 3.81 0.3 3.81 c 0.95 0 -0.12 -9.08 -1.24 -10.56 a 6.2 6.2 0 0 0 -7.7 -1.9 M 131.8 362 c -1.05 0.45 1.44 0.45 3.2 0 c 1.08 -0.28 1.03 -0.3 -0.6 -0.32 a 8.47 8.47 0 0 0 -2.6 0.32" stroke-linecap="round"/>
</g>
		<g transform="matrix(1 0 0 1 12.9562 -12.4938)">
<path style="stroke: none; stroke-width: 1; stroke-dasharray: none; stroke-linecap: butt; stroke-dashoffset: 0; stroke-linejoin: miter; stroke-miterlimit: 4; is-custom-font: none; font-file-url: none; fill: rgb(51,90,121); fill-rule: evenodd; opacity: 1;" transform=" translate(-212.9563, -187.5062)" d="M 163.2 0.26 c -1.43 0.48 -4 1.9 -4 2.2 c 0 0.19 -0.24 0.34 -0.54 0.34 c -0.72 0 -4.26 3.38 -4.26 4.07 c 0 0.3 -0.36 0.81 -0.8 1.13 c -0.44 0.32 -0.8 0.9 -0.8 1.29 s -0.18 0.71 -0.4 0.71 c -0.22 0 -0.4 0.44 -0.4 0.98 c 0 0.53 -0.18 1.08 -0.4 1.22 c -0.22 0.14 -0.4 0.96 -0.4 1.82 c 0 0.87 -0.18 1.58 -0.4 1.58 c -0.23 0 -0.4 1.13 -0.4 2.58 c 0 1.41 0.18 2.68 0.4 2.82 c 0.22 0.14 0.4 0.87 0.4 1.63 c 0 0.76 0.16 1.7 0.35 2.07 c 1.68 3.34 2.28 4.38 2.82 4.9 c 0.35 0.33 0.88 1.07 1.18 1.66 a 4.3 4.3 0 0 0 1.6 1.6 c 0.57 0.3 1.32 0.8 1.65 1.14 c 0.87 0.87 3.95 2.4 4.84 2.4 c 0.42 0 0.76 0.13 0.76 0.3 c 0 0.34 206.36 0.27 206.7 -0.07 c 0.13 -0.13 0.64 -0.23 1.14 -0.23 c 0.5 0 1.02 -0.18 1.16 -0.4 c 0.14 -0.22 0.56 -0.4 0.94 -0.4 c 0.37 0 0.94 -0.36 1.26 -0.8 c 0.32 -0.44 0.82 -0.8 1.12 -0.8 c 0.7 0 4.88 -4.33 4.88 -5.05 c 0 -0.3 0.18 -0.55 0.4 -0.55 c 0.22 0 0.4 -0.36 0.4 -0.8 c 0 -0.44 0.18 -0.8 0.4 -0.8 c 0.22 0 0.4 -0.36 0.4 -0.8 c 0 -0.44 0.18 -0.8 0.4 -0.8 c 0.22 0 0.4 -0.63 0.4 -1.4 c 0 -0.77 0.18 -1.4 0.4 -1.4 c 0.24 0 0.4 -1.6 0.4 -3.98 c 0 -2.22 -0.18 -4.08 -0.4 -4.22 c -0.22 -0.14 -0.4 -0.65 -0.4 -1.14 c 0 -1.04 -0.86 -3.05 -1.3 -3.06 c -0.16 0 -0.3 -0.36 -0.3 -0.8 c 0 -0.44 -0.18 -0.8 -0.4 -0.8 c -0.22 0 -0.4 -0.27 -0.4 -0.6 c 0 -0.64 -4.12 -5 -4.72 -5 c -0.18 0 -0.69 -0.31 -1.13 -0.7 C 373.45 0.07 381.03 0.2 268.4 0.13 C 210.87 0.09 163.53 0.15 163.2 0.26 M 119 210.67 c -46.33 1.98 -82.24 43.98 -77.46 90.6 c 3.07 29.87 24.37 58.06 51.26 67.85 c 17.26 6.28 34.03 7.44 50 3.47 c 42.5 -10.58 69.52 -52.6 61.2 -95.19 c -0.84 -4.27 -2.16 -9.43 -2.76 -10.8 c -0.2 -0.44 -0.58 -1.43 -0.84 -2.2 c -1.28 -3.71 -4.62 -10.58 -7.12 -14.6 c -15.94 -25.68 -43.94 -40.42 -74.28 -39.13 m -1.8 15.88 c 0 6.56 2.48 9.56 7.29 8.79 c 3.39 -0.54 4.71 -3 4.71 -8.77 c 0 -4.09 -0.27 -3.94 5.46 -2.96 c 12.1 2.06 22.6 6.74 32.64 14.53 c 1.02 0.8 0.95 0.94 -1.9 3.88 c -3.59 3.72 -4.32 6.27 -2.6 9.08 c 2.6 4.28 7.11 3.8 11.92 -1.28 l 2.13 -2.23 l 1.7 2.1 c 7.6 9.42 13.61 24.07 14.32 34.91 l 0.13 2 l -4.38 0.11 c -5.83 0.16 -8.22 1.87 -8.22 5.89 c 0 4.08 2.37 5.8 7.99 5.8 c 3.36 0 4.37 0.13 4.54 0.57 c 0.42 1.08 -0.72 7.76 -2.18 12.83 a 66.33 66.33 0 0 1 -4.23 11.3 c -1.7 3.73 -5.95 10.45 -8.3 13.15 l -1.36 1.55 l -2.93 -2.86 c -4.28 -4.17 -5.75 -4.62 -8.94 -2.75 c -4.22 2.47 -4 6.73 0.57 11.2 c 2.9 2.84 2.92 2.96 0.74 4.74 c -8.8 7.15 -23.77 13.38 -34 14.15 l -3.1 0.23 v -3.87 c 0 -6.2 -1.66 -8.64 -5.9 -8.64 c -4.33 0 -5.76 1.97 -6.08 8.4 l -0.22 4.19 l -1.8 -0.11 c -6.42 -0.4 -18.28 -4 -24.2 -7.37 l -1.6 -0.9 c -4.91 -2.72 -10.57 -6.73 -10.9 -7.7 c -0.09 -0.27 0.74 -1.4 1.85 -2.5 c 4.47 -4.47 5.3 -7.3 3 -10.31 c -2.88 -3.78 -6.84 -3.15 -11.47 1.84 c -2.2 2.38 -2.59 2.47 -3.68 0.9 c -6.42 -9.2 -8.91 -13.84 -11.42 -21.28 c -1.68 -5.02 -2.07 -6.65 -2.98 -12.55 c -0.66 -4.36 -0.83 -4.2 4.33 -4.2 c 5.1 -0.01 6.79 -0.95 7.82 -4.4 c 1.32 -4.4 -1.83 -7.21 -8.09 -7.21 c -2.32 0 -4.29 -0.13 -4.38 -0.3 c -0.18 -0.3 0.54 -5.4 1.3 -9.3 c 1.68 -8.5 8.48 -22.49 13.76 -28.3 l 1.21 -1.33 l 2.83 2.72 c 4.07 3.92 5.83 4.55 8.62 3.11 c 4.28 -2.22 4.44 -6.49 0.4 -10.75 c -3.24 -3.4 -3.31 -3.7 -1.3 -5.31 c 8.78 -7 21.42 -12.44 32.83 -14.1 c 4.43 -0.66 4.07 -0.96 4.07 3.31 m -12.63 19.47 c -3.62 0.75 -5.86 5.15 -4.2 8.28 c 0.52 0.99 1.37 3 2.83 6.7 c 0.7 1.76 1.6 3.92 2 4.8 c 1.03 2.3 8.8 21.01 8.8 21.21 c 0 0.1 0.5 1.3 1.13 2.68 c 0.62 1.38 1.37 3.14 1.67 3.91 c 1.87 4.84 1.72 4.8 18.44 4.8 h 14.08 l 1.35 -1.02 a 5.64 5.64 0 0 0 1.71 -7.41 c -1.57 -3.09 -1.93 -3.17 -14.27 -3.17 h -10.89 l -0.6 -1.15 c -0.56 -1.1 -3.03 -6.94 -6.1 -14.45 c -1.53 -3.73 -2 -4.86 -3.27 -7.7 a 17.6 17.6 0 0 1 -0.85 -2.1 c 0 -0.11 -0.38 -1.06 -0.85 -2.1 a 108.04 108.04 0 0 1 -3.2 -7.68 c -1.64 -4.44 -4.26 -6.32 -7.78 -5.6 M 290.2 332.7 l -67.2 0.1 l -0.56 1.3 c -0.78 1.84 -4.73 9.86 -5.56 11.3 A 102.75 102.75 0 0 1 202 365.73 c -1.76 1.86 -3.2 3.58 -3.2 3.82 c 0 0.6 171.83 0.65 172.2 0.05 c 0.14 -0.22 0.68 -0.4 1.2 -0.4 c 0.52 0 1.06 -0.18 1.2 -0.4 c 0.14 -0.22 0.56 -0.4 0.94 -0.4 c 0.37 0 0.94 -0.36 1.26 -0.8 c 0.32 -0.44 0.82 -0.8 1.12 -0.8 c 0.7 0 4.88 -4.33 4.88 -5.05 c 0 -0.3 0.18 -0.55 0.4 -0.55 c 0.22 0 0.4 -0.36 0.4 -0.8 c 0 -0.44 0.14 -0.8 0.3 -0.8 c 0.48 0 1.3 -2.06 1.3 -3.28 c 0 -0.62 0.18 -1.12 0.4 -1.12 c 0.24 0 0.4 -1.6 0.4 -3.98 c 0 -2.22 -0.18 -4.08 -0.4 -4.22 c -0.22 -0.14 -0.4 -0.65 -0.4 -1.14 c 0 -1.04 -0.86 -3.05 -1.3 -3.06 c -0.16 0 -0.3 -0.36 -0.3 -0.8 c 0 -0.44 -0.18 -0.8 -0.4 -0.8 c -0.22 0 -0.4 -0.27 -0.4 -0.6 c 0 -0.75 -4.18 -5 -4.9 -5 c -0.29 0 -0.78 -0.36 -1.1 -0.8 c -0.32 -0.44 -0.9 -0.8 -1.29 -0.8 s -0.71 -0.18 -0.71 -0.4 c 0 -0.22 -0.44 -0.4 -0.98 -0.4 c -0.53 0 -1.08 -0.18 -1.22 -0.4 c -0.15 -0.25 -2.86 -0.36 -7.12 -0.3 c -3.79 0.05 -37.12 0.14 -74.08 0.2" stroke-linecap="round"/>
</g>
		<g transform="matrix(1 0 0 1 67.59 21.085)">
<path style="stroke: none; stroke-width: 1; stroke-dasharray: none; stroke-linecap: butt; stroke-dashoffset: 0; stroke-linejoin: miter; stroke-miterlimit: 4; is-custom-font: none; font-file-url: none; fill: rgb(251,191,91); fill-rule: evenodd; opacity: 1;" transform=" translate(-267.59, -221.085)" d="M 177.81 111.6 c 0.46 4.22 0.95 7.81 1.35 9.8 l 0.67 3.3 c 0.14 0.72 0.42 1.4 0.62 1.53 c 0.2 0.12 0.35 0.58 0.35 1.01 c 0 0.44 0.36 1.54 0.8 2.45 c 0.44 0.91 0.8 1.9 0.8 2.19 c 0 0.28 0.18 0.52 0.4 0.52 c 0.22 0 0.4 0.36 0.4 0.8 c 0 0.44 0.18 0.8 0.4 0.8 c 0.22 0 0.4 0.36 0.4 0.8 c 0 0.44 0.18 0.8 0.4 0.8 c 0.22 0 0.4 0.24 0.4 0.53 c 0 0.28 0.36 0.9 0.8 1.38 c 0.44 0.47 0.8 1.02 0.8 1.21 c 0 0.2 0.54 0.93 1.2 1.62 c 0.66 0.69 1.2 1.35 1.2 1.46 c 0 0.12 1.14 1.36 2.54 2.76 a 50.6 50.6 0 0 1 3.1 3.3 c 0.3 0.43 1.37 1.4 2.35 2.16 c 0.98 0.76 2.33 1.87 3 2.48 c 0.67 0.6 1.4 1.1 1.62 1.1 c 0.23 0 0.67 0.36 0.99 0.8 c 0.32 0.44 0.81 0.8 1.1 0.8 c 0.3 0 0.75 0.19 1.02 0.42 c 1.05 0.91 4.88 3.18 5.37 3.18 c 0.28 0 0.51 0.18 0.51 0.4 c 0 0.22 0.36 0.4 0.8 0.4 c 0.44 0 0.8 0.18 0.8 0.4 c 0 0.22 0.27 0.4 0.6 0.4 c 0.33 0 0.6 0.18 0.6 0.4 c 0 0.22 0.34 0.4 0.77 0.4 c 0.42 0 0.82 0.14 0.9 0.3 c 0.07 0.17 1.75 1.11 3.73 2.1 s 3.66 1.93 3.73 2.1 c 0.08 0.16 0.48 0.3 0.9 0.3 c 0.43 0 0.77 0.18 0.77 0.4 c 0 0.22 0.45 0.4 1 0.4 s 1 0.14 1 0.3 c 0 0.17 0.59 0.55 1.3 0.84 c 2.52 1.04 9.7 4.65 9.83 4.96 c 0.08 0.16 0.48 0.3 0.9 0.3 c 0.43 0 0.77 0.14 0.77 0.3 c 0 0.16 1.04 0.83 2.3 1.47 c 2.62 1.33 6.1 4.66 6.1 5.84 c 0 0.43 0.18 0.79 0.4 0.79 c 0.22 0 0.4 0.72 0.4 1.6 v 1.6 h 13.6 v 15.22 c 0 16.61 -0.05 16.26 2.38 18.57 c 2.35 2.23 7.25 1.4 8.92 -1.52 c 0.37 -0.63 0.55 -5.01 0.7 -16.27 l 0.2 -15.4 l 6.6 -0.24 c 7.67 -0.27 6.8 -0.07 6.8 -1.56 c 0 -0.66 0.18 -1.2 0.4 -1.2 c 0.22 0 0.4 -0.4 0.4 -0.9 s 0.45 -1.44 1 -2.1 l 1.9 -2.29 c 0.5 -0.6 1.22 -1.1 1.6 -1.1 c 0.38 0 0.7 -0.14 0.7 -0.31 c 0 -0.16 1.49 -1.02 3.3 -1.9 a 47.54 47.54 0 0 0 3.5 -1.8 c 0.42 -0.42 3.82 -2 4.3 -2 c 0.27 0 0.5 -0.18 0.5 -0.4 c 0 -0.22 0.23 -0.4 0.52 -0.4 c 0.74 0 2.67 -0.94 2.68 -1.3 c 0 -0.16 0.36 -0.3 0.8 -0.3 c 0.44 0 0.8 -0.18 0.8 -0.4 c 0 -0.22 0.36 -0.4 0.8 -0.4 c 0.44 0 0.8 -0.18 0.8 -0.4 c 0 -0.22 0.36 -0.4 0.8 -0.4 c 0.44 0 0.8 -0.18 0.8 -0.4 c 0 -0.22 0.36 -0.4 0.8 -0.4 c 0.44 0 0.8 -0.18 0.8 -0.4 c 0 -0.22 0.36 -0.4 0.8 -0.4 c 0.44 0 0.8 -0.18 0.8 -0.4 c 0 -0.22 0.36 -0.4 0.8 -0.4 c 0.44 0 0.8 -0.18 0.8 -0.4 c 0 -0.22 0.36 -0.4 0.8 -0.4 c 0.44 0 0.8 -0.18 0.8 -0.4 c 0 -0.22 0.36 -0.4 0.8 -0.4 c 0.44 0 0.8 -0.18 0.8 -0.4 c 0 -0.22 0.36 -0.4 0.8 -0.4 c 0.44 0 0.8 -0.14 0.8 -0.3 c 0 -0.17 0.59 -0.56 1.3 -0.88 c 0.72 -0.31 1.54 -0.8 1.83 -1.1 c 0.29 -0.28 0.87 -0.52 1.3 -0.52 c 0.42 0 0.77 -0.14 0.77 -0.31 c 0 -0.18 1.03 -0.94 2.3 -1.7 c 1.27 -0.76 2.54 -1.6 2.83 -1.88 c 0.29 -0.28 0.69 -0.51 0.88 -0.51 c 0.2 0 0.8 -0.45 1.35 -1 s 1.17 -1 1.38 -1 c 0.2 0 1.28 -0.9 2.38 -2 c 1.1 -1.1 2.1 -2 2.22 -2 c 0.35 0 3.86 -3.74 3.86 -4.11 c 0 -0.2 0.72 -1.04 1.6 -1.89 c 0.88 -0.85 1.6 -1.7 1.6 -1.88 c 0 -0.19 0.36 -0.6 0.8 -0.92 c 0.44 -0.32 0.8 -0.9 0.8 -1.29 s 0.14 -0.71 0.3 -0.71 c 0.17 0 0.94 -1.21 1.7 -2.7 a 35.8 35.8 0 0 1 1.6 -2.9 c 0.1 -0.11 0.26 -0.65 0.34 -1.2 c 0.07 -0.55 0.3 -1.06 0.5 -1.13 c 0.2 -0.08 0.36 -0.56 0.36 -1.08 s 0.18 -1.05 0.4 -1.19 c 0.22 -0.14 0.4 -0.68 0.4 -1.2 c 0 -0.52 0.18 -1.06 0.4 -1.2 c 0.22 -0.14 0.4 -0.86 0.4 -1.6 c 0 -0.74 0.15 -1.44 0.33 -1.56 c 0.18 -0.1 0.37 -1.14 0.42 -2.29 a 9.3 9.3 0 0 1 0.47 -2.8 c 0.21 -0.38 0.38 -2.11 0.38 -3.84 v -3.14 l -90.01 0.02 l -90.01 0.01 l 0.23 2.2 m 87.99 125.68 c -4.04 1.41 -4.2 2.17 -4.2 19.76 v 14.94 l -0.9 0.23 c -0.5 0.12 -7.9 0.17 -16.44 0.1 l -15.53 -0.11 l 0.28 1.6 c 0.88 5.1 1.08 7.8 1.27 17.2 c 0.2 10.09 0.1 11.73 -1.14 19.6 c -0.9 5.71 -3.63 16.11 -5.14 19.6 c -0.2 0.44 -0.46 1.2 -0.6 1.7 l -0.25 0.9 l 67.12 -0.1 l 67.13 -0.1 l 0.1 -30.3 l 0.1 -30.28 l -41.38 0.25 c -33.44 0.21 -41.5 0.16 -42 -0.25 c -0.54 -0.45 -0.62 -2.47 -0.62 -15.7 c 0 -15.81 -0.03 -16.13 -1.76 -17.66 c -1.88 -1.65 -3.93 -2.12 -6.04 -1.38" stroke-linecap="round"/>
</g>
		<g transform="matrix(1 0 0 1 -12.6183 35.95)">
<path style="stroke: none; stroke-width: 1; stroke-dasharray: none; stroke-linecap: butt; stroke-dashoffset: 0; stroke-linejoin: miter; stroke-miterlimit: 4; is-custom-font: none; font-file-url: none; fill: rgb(247,240,242); fill-rule: evenodd; opacity: 1;" transform=" translate(-187.3817, -235.95)" d="M 215.5 109.5 c 20.74 0.06 54.67 0.06 75.4 0 c 20.74 -0.06 3.77 -0.1 -37.7 -0.1 c -41.47 0 -58.44 0.04 -37.7 0.1 M 110.6 224.08 c -0.88 0.2 -2.15 0.54 -2.83 0.75 c -0.67 0.2 -1.6 0.37 -2.08 0.37 c -0.46 0 -0.95 0.18 -1.09 0.4 c -0.14 0.22 -0.77 0.4 -1.4 0.4 c -0.63 0 -1.26 0.18 -1.4 0.4 c -0.14 0.22 -0.6 0.4 -1.03 0.4 c -0.43 0 -1.1 0.16 -1.47 0.35 c -0.39 0.2 -1.15 0.54 -1.7 0.76 c -5.84 2.33 -18.4 9.9 -18.4 11.09 c 0 0.16 1.16 1.53 2.58 3.04 c 7.95 8.43 -0.61 17.11 -9 9.11 c -1.59 -1.51 -3.01 -2.75 -3.16 -2.75 c -0.3 0 -5.22 6.63 -5.22 7.02 c 0 0.13 -0.5 0.99 -1.12 1.9 c -0.61 0.93 -1.9 3.3 -2.85 5.28 c -1.82 3.79 -2.06 4.35 -2.83 6.6 c -0.26 0.77 -0.63 1.76 -0.81 2.2 a 11.4 11.4 0 0 0 -0.52 1.8 c -0.1 0.55 -0.47 2.08 -0.8 3.4 c -1.2 4.8 -1.54 6.83 -1.4 8.2 l 0.13 1.4 l 4.27 0.2 c 11.65 0.55 11.36 12.2 -0.3 12.72 l -4.26 0.19 l 0.23 2.44 c 0.21 2.36 0.57 4.27 1.42 7.65 c 0.22 0.88 0.52 2.14 0.65 2.8 c 0.14 0.66 0.42 1.6 0.62 2.1 l 0.74 1.8 c 0.2 0.5 0.61 1.62 0.9 2.5 c 1.3 3.97 7.5 14.55 10.26 17.5 l 1.03 1.11 l 1.94 -2 c 4.97 -5.12 9.75 -5.7 12.32 -1.5 c 1.98 3.26 1.4 5.55 -2.49 9.74 l -2.8 3.01 l 2.5 1.93 c 4.6 3.56 10.57 6.86 17.57 9.7 c 0.55 0.22 1.31 0.56 1.7 0.76 c 0.38 0.2 1.13 0.35 1.67 0.35 s 1.08 0.16 1.2 0.35 c 0.12 0.2 0.8 0.47 1.52 0.62 l 3.31 0.66 c 1.1 0.22 2.9 0.55 4 0.74 c 1.1 0.18 2.58 0.46 3.3 0.63 l 1.3 0.3 v -3.92 c 0 -12.39 12.25 -13.2 12.8 -0.84 l 0.2 4.46 l 1 -0.1 c 2.42 -0.25 5.93 -0.87 7.4 -1.3 c 0.88 -0.26 2.19 -0.57 2.9 -0.68 c 0.72 -0.12 1.4 -0.37 1.53 -0.56 c 0.12 -0.2 0.75 -0.36 1.4 -0.36 c 0.64 0 1.17 -0.18 1.17 -0.4 c 0 -0.22 0.44 -0.4 0.98 -0.4 c 0.53 0 1.08 -0.18 1.22 -0.4 c 0.14 -0.22 0.6 -0.4 1.02 -0.4 c 0.43 0 0.78 -0.18 0.78 -0.4 c 0 -0.22 0.45 -0.4 1 -0.4 s 1 -0.18 1 -0.4 c 0 -0.22 0.36 -0.4 0.8 -0.4 c 0.44 0 0.8 -0.18 0.8 -0.4 c 0 -0.22 0.36 -0.4 0.8 -0.4 c 0.44 0 0.8 -0.18 0.8 -0.4 c 0 -0.22 0.34 -0.4 0.77 -0.4 c 0.42 0 0.82 -0.13 0.9 -0.3 c 0.16 -0.38 2.3 -1.68 3.23 -1.97 c 0.38 -0.12 0.7 -0.38 0.7 -0.58 c 0 -0.2 0.22 -0.35 0.5 -0.36 c 0.28 0 0.95 -0.36 1.5 -0.79 l 3.14 -2.44 l 2.14 -1.64 l -1.74 -1.84 a 117.6 117.6 0 0 0 -2.38 -2.46 c -3.38 -3.28 -1.5 -9.51 3.3 -10.96 c 3.1 -0.93 4.17 -0.52 7.64 2.97 c 1.7 1.72 3.1 2.9 3.1 2.62 c 0 -0.27 0.33 -0.86 0.74 -1.3 c 1.16 -1.23 3.66 -4.9 3.66 -5.35 c 0 -0.22 0.16 -0.4 0.35 -0.4 c 0.2 0 0.58 -0.54 0.85 -1.2 c 0.27 -0.66 0.66 -1.2 0.85 -1.2 c 0.2 0 0.35 -0.36 0.35 -0.8 c 0 -0.44 0.13 -0.8 0.3 -0.8 c 0.36 0 1.3 -1.94 1.3 -2.68 c 0 -0.29 0.18 -0.52 0.4 -0.52 c 0.22 0 0.4 -0.36 0.4 -0.8 c 0 -0.44 0.18 -0.8 0.4 -0.8 c 0.22 0 0.4 -0.35 0.4 -0.78 c 0 -0.42 0.18 -0.88 0.4 -1.02 c 0.22 -0.14 0.4 -0.69 0.4 -1.22 c 0 -0.54 0.18 -0.98 0.4 -0.98 c 0.22 0 0.4 -0.44 0.4 -0.98 c 0 -0.53 0.18 -1.08 0.4 -1.22 c 0.22 -0.14 0.4 -0.68 0.4 -1.2 c 0 -0.52 0.18 -1.06 0.4 -1.2 c 0.22 -0.14 0.4 -0.87 0.4 -1.62 c 0 -0.76 0.18 -1.38 0.4 -1.38 c 0.22 0 0.4 -0.7 0.4 -1.58 c 0 -0.86 0.18 -1.68 0.4 -1.82 c 0.22 -0.14 0.4 -1.37 0.4 -2.74 c 0 -1.41 0.2 -2.7 0.48 -2.98 c 0.37 -0.37 -0.38 -0.48 -3.38 -0.48 c -2.14 0 -3.96 -0.18 -4.1 -0.4 c -0.14 -0.22 -0.6 -0.4 -1.03 -0.4 c -2.4 0 -4.68 -4.14 -4.16 -7.57 c 0.32 -2.15 2.76 -4.83 4.38 -4.83 c 0.53 0 1.07 -0.18 1.21 -0.4 c 0.14 -0.22 1.9 -0.41 3.92 -0.43 c 2.03 -0.02 3.46 -0.12 3.18 -0.24 c -0.33 -0.13 -0.5 -1.08 -0.5 -2.76 c 0 -1.45 -0.18 -2.57 -0.4 -2.57 c -0.22 0 -0.4 -0.9 -0.4 -2 s -0.18 -2 -0.4 -2 c -0.22 0 -0.4 -0.54 -0.4 -1.2 c 0 -0.66 -0.18 -1.2 -0.4 -1.2 c -0.22 0 -0.4 -0.63 -0.4 -1.4 c 0 -0.77 -0.18 -1.4 -0.4 -1.4 c -0.22 0 -0.4 -0.45 -0.4 -1 s -0.18 -1 -0.4 -1 c -0.22 0 -0.4 -0.34 -0.4 -0.76 c 0 -0.75 -0.47 -1.83 -2.93 -6.64 c -0.67 -1.32 -1.41 -2.8 -1.64 -3.3 c -0.24 -0.49 -0.56 -0.9 -0.73 -0.9 c -0.16 0 -0.3 -0.2 -0.3 -0.44 c 0 -0.74 -5.2 -7.96 -5.72 -7.96 c -0.1 0 -1.42 1.23 -2.94 2.74 c -3.01 3 -4.87 3.7 -7.7 2.88 c -4.6 -1.34 -6.26 -7.86 -2.86 -11.24 c 4.33 -4.3 4.33 -4.14 0.24 -6.9 c -1.33 -0.89 -2.51 -1.74 -2.62 -1.88 c -0.11 -0.14 -1.01 -0.7 -2 -1.23 a 8.25 8.25 0 0 1 -1.93 -1.27 c -0.08 -0.16 -0.48 -0.3 -0.9 -0.3 c -0.43 0 -0.77 -0.13 -0.77 -0.3 c 0 -0.36 -1.94 -1.3 -2.68 -1.3 c -0.29 0 -0.52 -0.18 -0.52 -0.4 c 0 -0.22 -0.36 -0.4 -0.8 -0.4 c -0.44 0 -0.8 -0.18 -0.8 -0.4 c 0 -0.22 -0.45 -0.4 -1 -0.4 s -1 -0.18 -1 -0.4 c 0 -0.22 -0.44 -0.4 -0.98 -0.4 c -0.53 0 -1.08 -0.18 -1.22 -0.4 c -0.14 -0.22 -0.68 -0.4 -1.2 -0.4 c -0.52 0 -1.06 -0.18 -1.2 -0.4 c -0.14 -0.22 -0.6 -0.4 -1.03 -0.4 c -0.43 0 -1.1 -0.16 -1.48 -0.36 c -0.99 -0.51 -10.88 -2.1 -11.24 -1.8 a 37.7 37.7 0 0 0 -0.45 4.37 c -0.83 11.44 -12.8 10.51 -12.8 -1 v -3.61 l -2.3 0.05 c -1.27 0.03 -3.02 0.22 -3.9 0.43 m -2.47 21.72 c 2.5 1.04 3.61 2.8 6.67 10.6 a 83.64 83.64 0 0 0 1.41 3.4 c 0.3 0.66 1.18 2.73 1.94 4.6 a 637.28 637.28 0 0 0 5.04 12.2 c 0.72 1.88 2.28 5.55 3.05 7.16 c 0.31 0.64 0.56 1.39 0.56 1.66 c 0 0.89 1.13 0.98 12.04 0.98 h 10.78 l 1.73 1.73 c 3.22 3.22 2.84 7.22 -0.95 9.88 l -1.4 0.99 h -13.84 c -17.03 0 -16.52 0.17 -19.2 -6.4 c -0.71 -1.76 -1.64 -4.01 -2.07 -5 a 121.1 121.1 0 0 1 -1.84 -4.5 c -0.2 -0.5 -0.75 -1.8 -1.25 -2.9 a 71.15 71.15 0 0 1 -2 -4.8 c -0.17 -0.44 -0.7 -1.7 -1.2 -2.8 c -0.5 -1.1 -1.04 -2.36 -1.21 -2.8 c -0.17 -0.44 -0.58 -1.43 -0.92 -2.2 c -0.33 -0.77 -1 -2.38 -1.46 -3.57 c -0.47 -1.19 -1.18 -2.9 -1.58 -3.8 c -2.78 -6.24 -3.3 -8.56 -2.4 -10.9 c 0.56 -1.5 2.34 -3.33 3.22 -3.33 c 0.39 0 0.81 -0.18 0.95 -0.4 c 0.36 -0.59 2.3 -0.49 3.93 0.2 m 128.74 26.5 c 4.33 0.06 11.53 0.06 16 0 c 4.47 -0.06 0.93 -0.12 -7.87 -0.12 s -12.46 0.06 -8.13 0.12 m 51.86 0 c 8 0.06 20.95 0.06 28.8 0 c 7.85 -0.06 1.31 -0.11 -14.53 -0.11 s -22.26 0.05 -14.27 0.11" stroke-linecap="round"/>
</g>
</g>
</g>
</svg>